<?xml version="1.0" encoding="UTF-8"?>
<!DOCTYPE svg PUBLIC "-//W3C//DTD SVG 1.1//EN" "http://www.w3.org/Graphics/SVG/1.1/DTD/svg11.dtd">
<!-- Creator: CorelDRAW X7 -->
<svg xmlns="http://www.w3.org/2000/svg" xml:space="preserve" width="33px" height="30px" version="1.1" style="shape-rendering:geometricPrecision; text-rendering:geometricPrecision; image-rendering:optimizeQuality; fill-rule:evenodd; clip-rule:evenodd"
viewBox="0 0 330000 300000"
 xmlns:xlink="http://www.w3.org/1999/xlink">
 <defs>
  <style type="text/css">
   <![CDATA[
    .fil0 {fill:white}
   ]]>
  </style>
 </defs>
 <g id="Слой_x0020_1">
  <metadata id="CorelCorpID_0Corel-Layer"/>
  <path class="fil0" d="M256098 154028c5327,1547 1441,-874 2386,3401 12,36 -661,5303 -673,5339 -1488,5988 -2173,5622 -1996,12519l-14445 82418 -28417 874c-296,-15343 -1949,-95563 508,-104410l42637 -141zm-69803 104539c-7677,-1394 -34901,-1500 -42413,0l24 -103724 41728 -674c1760,8067 638,89079 661,104398zm-69330 0l-28347 -1146 -14799 -83244c142,-5882 83,-6319 -1099,-11634 -1440,-6496 -2964,-7665 2327,-8657l41575 319 343 104362zm-96792 -110067c201,4594 3024,19878 5965,22677 -355,6484 20291,94878 23480,103075 7063,18154 25453,15968 47575,15968l127642 0c19665,0 42496,3272 52582,-10972 4016,-5657 25748,-92894 25122,-102272 5327,-7511 5351,-20882 8150,-30696 5787,-2174 6815,-473 10972,-3733 1288,-1004 5292,-5953 6426,-8078 4216,-7878 2303,-16678 -2906,-22500 -9567,-10666 -29905,-6898 -51590,-7134 -2138,10074 -2646,16842 -8410,22771 -4594,4713 -13665,9378 -23031,8457 -23103,-2280 -20209,-18532 -32221,-31217l-89917 12c-8150,8717 -11126,29611 -31866,31311 -25642,2091 -28996,-19263 -31843,-31334 -9827,59 -19665,47 -29492,11 -11811,-23 -16724,886 -22701,7890 -5338,6260 -6118,15733 -1334,23292 7759,12271 11633,5303 17397,12472zm107138 -138555c-10335,2775 -13240,12413 -22098,28004l-36213 62834c-7701,15000 7819,28182 21201,25111 8953,-2055 16441,-20055 21248,-28264l36401 -62575c8256,-17350 -11693,-27496 -20539,-25110zm69803 -272c-14787,2610 -21390,15414 -12555,29315l36142 62835c5764,10287 11575,26516 25984,24307 12165,-1866 21732,-12307 11917,-29634l-36330 -62657c-5209,-9083 -11622,-26552 -25158,-24166z"/>
 </g>
</svg>
