<?xml version="1.0" encoding="UTF-8"?>
<!DOCTYPE svg PUBLIC "-//W3C//DTD SVG 1.1//EN" "http://www.w3.org/Graphics/SVG/1.1/DTD/svg11.dtd">
<!-- Creator: CorelDRAW X7 -->
<svg xmlns="http://www.w3.org/2000/svg" xml:space="preserve" width="39px" height="38px" version="1.1" style="shape-rendering:geometricPrecision; text-rendering:geometricPrecision; image-rendering:optimizeQuality; fill-rule:evenodd; clip-rule:evenodd"
viewBox="0 0 390000 379984"
 xmlns:xlink="http://www.w3.org/1999/xlink">
 <defs>
  <style type="text/css">
   <![CDATA[
    .fil0 {fill:gray}
   ]]>
  </style>
 </defs>
 <g id="Слой_x0020_1">
  <metadata id="CorelCorpID_0Corel-Layer"/>
  <path class="fil0" d="M66614 118535c0,8209 213,14292 2492,22323 6036,21201 12650,32351 23929,50492l7583 11386c2610,3792 5008,6969 7689,10536 1347,1795 2610,3732 4099,5385 7842,8729 13145,16087 21885,24815l43394 40512c2008,1902 3260,2114 5504,3969 1890,1571 3437,2669 5374,4122 4004,2988 4122,2043 4996,4476l2929 0c839,-2338 614,-1264 4571,-4169l36095 -30295c6377,-6390 12224,-12237 18602,-18615 3461,-3448 5823,-6307 9130,-9838 1854,-1973 2291,-3083 4370,-5114l11126 -13677c94,-119 236,-284 331,-402 8468,-10488 25145,-35386 30307,-47020l5740 -13240c6331,-17114 10086,-36957 2504,-54827 -9921,-23374 -33614,-41055 -58477,-29598 -9130,4205 -15933,8787 -23763,14905 -2422,1902 -2882,2587 -4973,4524 -3260,3000 -7240,6343 -9555,10134 -4476,7370 -26020,38409 -26740,41102l-1465 0c-649,-2433 -5716,-9472 -7287,-11669 -6213,-8693 -18945,-30130 -25784,-36957 -1299,-1299 -1370,-909 -2846,-2267l-10169 -8800c-16158,-10830 -35032,-21047 -54012,-9035 -6898,4358 -11847,8468 -16335,15035 -4594,6709 -3071,3142 -6980,12733 -2291,5633 -3425,9189 -3839,15236l-425 3838zm128410 260457c-1961,0 -3083,-1358 -4229,-2338l-26456 -18780c-130,-83 -319,-189 -437,-283 -130,-83 -319,-201 -449,-284l-24059 -19724c-2504,-2351 -5422,-4264 -8008,-6567l-24366 -22335c-4725,-5161 -10500,-9543 -15201,-14705l-23917 -25700c-4359,-4937 -7949,-10418 -12496,-15237l-3237 -4039c-1405,-2256 -1582,-2232 -3224,-4087 -9473,-10689 -26091,-38657 -31500,-52393 -1453,-3674 -3012,-5540 -4370,-9496 -2634,-7618 -5044,-13772 -6721,-21733 -874,-4181 -1807,-6885 -2669,-11197l-2433 -20303c-484,-8078 -413,-14149 543,-22051 1500,-12307 6485,-31960 13051,-43157 1713,-2918 3378,-6780 5103,-9496l6130 -8469c8527,-11303 18059,-19772 29586,-28039 8552,-6130 19807,-11209 29918,-13866 4311,-1134 7854,-1595 10984,-2138 14090,-2433 32492,-2303 45839,2232 13311,4536 25440,10299 36673,18780 2787,2102 5114,3897 7830,6035 12272,9709 4371,8799 23646,-5716 21402,-16123 42260,-22831 69827,-22831 17587,0 34027,6035 49122,14350l12472 8693c7949,6225 14977,13122 21059,21248 13500,18024 21201,37937 24934,60437l1086 20043c-709,12709 -3909,36697 -8846,48024 -662,1536 -1004,2339 -1618,4205 -922,2811 -1607,5197 -2646,7571 -484,1122 -957,2220 -1583,3519 -3626,7394 -6484,15036 -10842,21992 -3910,6249 -7548,13418 -12154,19229 -3921,4960 -7169,10913 -11338,15638l-9520 12378c-8386,9224 -16075,18838 -24886,27637 -9224,9225 -18035,19040 -27756,27697l-69508 56705c-2197,1571 -11386,8551 -13334,8551z"/>
 </g>
</svg>
