<?xml version="1.0" encoding="UTF-8"?>
<!DOCTYPE svg PUBLIC "-//W3C//DTD SVG 1.1//EN" "http://www.w3.org/Graphics/SVG/1.1/DTD/svg11.dtd">
<!-- Creator: CorelDRAW X7 -->
<svg xmlns="http://www.w3.org/2000/svg" xml:space="preserve" width="65px" height="57px" version="1.1" style="shape-rendering:geometricPrecision; text-rendering:geometricPrecision; image-rendering:optimizeQuality; fill-rule:evenodd; clip-rule:evenodd"
viewBox="0 0 650000 570014"
 xmlns:xlink="http://www.w3.org/1999/xlink">
 <defs>
  <style type="text/css">
   <![CDATA[
    .fil0 {fill:#990000;fill-rule:nonzero}
   ]]>
  </style>
 </defs>
 <g id="Слой_x0020_1">
  <metadata id="CorelCorpID_0Corel-Layer"/>
  <g id="_2310068054448">
   <path class="fil0" d="M391746 400888l-26765 24567 -112219 -35481 -602 555c13051,12508 22169,21556 27378,27213l42911 46750 -18827 17291 -91207 -99345 26575 -24402 111463 34820 485 -449c-12556,-12284 -21273,-21107 -26174,-26445l-43171 -47033 18946 -17398 91207 99357zm82206 -75475l-57214 52525 -91195 -99345 57202 -52525 15839 17257 -36154 33190 20056 21839 33615 -30863 15839 17244 -33615 30875 23504 25607 36155 -33190 15968 17386zm117488 -107849l-23977 22005 -61396 -39840c-2197,-1405 -6567,-4441 -13122,-9154 -6532,-4736 -10819,-8008 -12827,-9838 1972,2716 4902,7252 8788,13677 3874,6402 6590,11044 8126,13867l34382 64371 -23906 21957 -116542 -76076 20729 -19040 62470 42556c11422,7996 21001,15178 28737,21603 -2126,-2823 -5162,-7394 -9154,-13689 -4004,-6307 -6921,-11375 -8811,-15142l-36627 -68943 19926 -18284 65564 42367c2906,1914 7217,4985 12863,9213 5657,4252 10406,8008 14256,11221 -2776,-3969 -6118,-9036 -9945,-15225 -3862,-6201 -6862,-11303 -9059,-15319l-37135 -65813 20729 -19028 65931 122554z"/>
   <path class="fil0" d="M14965 544820l354351 0c36095,0 69958,-3000 101270,-12650 31052,-9567 59836,-25725 86176,-52099 26351,-26387 42473,-55136 52005,-86128 9602,-31241 12567,-65045 12567,-101129l0 -267632 -179213 0c-26918,0 -52430,1523 -76903,6614 -24344,5043 -47884,13630 -71069,27698 -19808,12224 -37702,26729 -53375,43064 -15958,16618 -29670,35162 -40797,55076 -13382,23906 -21969,48095 -27201,73029 -5244,25040 -7146,51013 -7146,78321l0 176106c0,3780 -1524,7194 -4004,9674 -2516,2469 -5918,4004 -9673,4004 -3780,0 -7205,-1535 -9674,-4004 -2469,-2480 -4004,-5894 -4004,-9674l0 -175858c0,-29410 2126,-57545 7949,-84982 5847,-27556 15414,-54285 30272,-80672 12261,-21780 27320,-42060 44836,-60261 17268,-17918 36875,-33804 58537,-47115l59 0c25926,-15745 52159,-25359 79218,-31017 26930,-5634 54545,-7358 83471,-7358l197969 0 8115 8114 0 286625c0,39084 -3426,75841 -14162,110271 -10819,34713 -29020,66875 -58525,96415 -29469,29517 -61679,47777 -96404,58655 -34454,10796 -71246,14268 -110294,14268 -64454,0 -310319,-9331 -354351,12 -3744,0 -7158,-1535 -9638,-4016 -2504,-2468 -4040,-5894 -4040,-9673 0,-3768 1536,-7193 4004,-9662 2481,-2480 5906,-4016 9674,-4016z"/>
  </g>
 </g>
</svg>
