<?xml version="1.0" encoding="UTF-8"?>
<!DOCTYPE svg PUBLIC "-//W3C//DTD SVG 1.1//EN" "http://www.w3.org/Graphics/SVG/1.1/DTD/svg11.dtd">
<!-- Creator: CorelDRAW X7 -->
<svg xmlns="http://www.w3.org/2000/svg" xml:space="preserve" width="30px" height="30px" version="1.1" style="shape-rendering:geometricPrecision; text-rendering:geometricPrecision; image-rendering:optimizeQuality; fill-rule:evenodd; clip-rule:evenodd"
viewBox="0 0 300000 300000"
 xmlns:xlink="http://www.w3.org/1999/xlink">
 <defs>
  <style type="text/css">
   <![CDATA[
    .fil0 {fill:white}
   ]]>
  </style>
 </defs>
 <g id="Слой_x0020_1">
  <metadata id="CorelCorpID_0Corel-Layer"/>
  <g id="_2310457301760">
   <path class="fil0" d="M191539 233965l7772 -1075 2209 -898c3661,-1157 10689,-4264 12460,-6732 603,-851 1429,-2232 2055,-3225 756,-1204 1193,-1889 1926,-3082 6141,-9886 7228,-9118 -3615,-19146l-16346 -15295c-6154,-5421 -8020,-4205 -16323,-2977 -3614,544 -4358,2103 -7441,3638 -18401,9225 -40488,-20362 -48130,-33059 -6732,-11185 -11704,-25240 -1405,-34842 626,-579 2279,-1831 2693,-2481l3000 -7051c2610,-6555 -437,-10394 -3520,-15838l-11787 -21355c-2433,-4393 -3296,-3236 -5823,-4512l-2811 402 -1677 803c-756,260 -1335,437 -2138,709l-7866 2598c-4701,1536 -9638,8670 -11681,12508 -10465,19736 -4619,43973 3271,63744 5811,14551 16973,31205 27225,43229 4322,5078 9555,10452 14374,14929 2185,2031 7948,6968 10488,8740 4441,3094 6189,4618 11268,7736 9448,5787 22464,11138 33555,12165 1736,154 7405,107 8267,367z"/>
   <path class="fil0" d="M156980 90803c-1594,921 -2492,3295 -1063,5268 1099,1523 3343,1736 5469,2090 24945,4075 44067,27768 43098,53067 -71,1926 -744,5115 -12,7004 674,1760 3248,3000 5410,1559 4098,-2740 1323,-21590 -425,-27094 -4063,-12721 -10300,-21732 -19902,-29551 -2976,-2422 -5787,-4536 -9331,-6284 -3271,-1618 -6897,-3401 -10724,-4441 -2374,-649 -10098,-3035 -12520,-1618z"/>
   <path class="fil0" d="M155740 105413c-3614,1607 -3012,5977 614,7028 1465,437 3177,496 4607,909 1736,496 2882,827 4441,1453 15448,6166 25098,20894 23964,37536 -106,1641 -401,3378 638,4795 968,1311 2764,1890 4677,992 4075,-1913 1843,-15709 650,-20398 -2906,-11456 -12201,-22547 -22134,-27578 -3000,-1524 -13925,-6296 -17457,-4737z"/>
   <path class="fil0" d="M153602 120461c-1960,968 -2988,3543 -1240,5610 2185,2586 9130,673 16051,8386 8032,8929 5351,16193 6012,19346 449,2209 2988,3662 5244,2516 4937,-2480 3177,-24071 -13641,-33024 -1997,-1063 -9461,-4287 -12426,-2834z"/>
   <path class="fil0" d="M151594 135461c-2102,1145 -2846,4275 -566,6035 1807,1394 3874,673 6106,2894 2315,2315 1949,3425 2315,6945 283,2775 2964,4511 5610,2988 4098,-2327 1476,-14126 -6437,-17906 -1724,-815 -4831,-2149 -7028,-956z"/>
  </g>
 </g>
</svg>
