<?xml version="1.0" encoding="UTF-8"?>
<!DOCTYPE svg PUBLIC "-//W3C//DTD SVG 1.1//EN" "http://www.w3.org/Graphics/SVG/1.1/DTD/svg11.dtd">
<!-- Creator: CorelDRAW X7 -->
<svg xmlns="http://www.w3.org/2000/svg" xml:space="preserve" width="30px" height="30px" version="1.1" style="shape-rendering:geometricPrecision; text-rendering:geometricPrecision; image-rendering:optimizeQuality; fill-rule:evenodd; clip-rule:evenodd"
viewBox="0 0 300000 300000"
 xmlns:xlink="http://www.w3.org/1999/xlink">
 <defs>
  <style type="text/css">
   <![CDATA[
    .fil0 {fill:white}
   ]]>
  </style>
 </defs>
 <g id="Слой_x0020_1">
  <metadata id="CorelCorpID_0Corel-Layer"/>
  <g id="_2168934690240">
   <path class="fil0" d="M195791 202394c-19571,0 -30519,-118 -48153,-9378 -10902,-5729 -11421,-7134 -19134,-13736 -9059,-7737 -18697,-20930 -22961,-32221 -3200,-8457 -7819,-25925 -6555,-36709 2410,-20598 3425,-30567 16477,-49346 8787,-12650 22878,-23764 36885,-30024 22489,-10063 49217,-10181 71965,-354 5563,2409 9614,4618 14468,7843 4193,2787 9000,6448 12520,9791 32977,31405 37748,86575 4110,124523 -7582,8552 -14338,14174 -24779,19831 -8126,4394 -22984,9780 -34843,9780zm104492 -93118l0 8421c-1003,26953 -11645,53539 -31984,73831 -9862,9826 -17421,15602 -30626,22216 -21307,10665 -32882,10949 -55972,10949 -16736,0 -32138,-6106 -43441,-11728 -6284,-3130 -11953,-6615 -17457,-10725 -25831,-19334 -47362,-58960 -44279,-90933 1677,-17256 2291,-28476 10464,-44728 3213,-6425 5764,-11622 9839,-17162 43264,-58807 122823,-63271 170882,-15212 20693,20693 31571,47764 32574,75071z"/>
   <path class="fil0" d="M188752 190654c-59846,0 -106122,-71457 -56870,-129674 34146,-40358 114732,-32645 131799,34772 4453,17551 1110,34819 -4630,48968 -10264,25335 -39732,45934 -70299,45934zm85701 -77493c0,-69141 -78213,-109181 -134020,-70630 -10996,7595 -24000,22040 -29374,35209 -13665,33449 -9012,69059 17516,95599 10394,10381 23634,18897 40701,22700 56126,12520 105177,-30389 105177,-82878z"/>
   <polygon class="fil0" points="6472,261980 35835,291909 106854,221469 76925,192106 "/>
   <path class="fil0" d="M79559 188303c1488,5551 10240,12000 14386,16146 4146,4145 10594,12897 16146,14374 11444,-17091 -6650,-43158 -30532,-30520z"/>
   <path class="fil0" d="M-272 274004c0,16004 13961,31760 34040,21142l-30237 -30815c-1653,2882 -3803,6012 -3803,9673z"/>
  </g>
 </g>
</svg>
