<?xml version="1.0" standalone="no"?>
<!DOCTYPE svg PUBLIC "-//W3C//DTD SVG 1.1//EN" "http://www.w3.org/Graphics/SVG/1.1/DTD/svg11.dtd" >
<svg xmlns="http://www.w3.org/2000/svg" xmlns:xlink="http://www.w3.org/1999/xlink" version="1.1">
<metadata></metadata>
<defs>
<font id="pf_din_text_cond_proregular" horiz-adv-x="3723" >
<font-face units-per-em="2048" ascent="1536" descent="-512" />
<missing-glyph horiz-adv-x="430" />
<glyph unicode="fj" horiz-adv-x="890" d="M35 877v137h112v184q0 82 26 140.5t71 95t103.5 53t123.5 16.5q197 0 303 -119l-106 -114q-66 76 -197 76q-82 0 -119 -39t-37 -109v-184h457v-1153q0 -57 -16.5 -107.5t-48 -87.5t-80.5 -57.5t-117 -20.5h-61v154h23.5t21.5 2q61 0 86.5 34t25.5 93v1006h-291v-877h-168 v877h-112z" />
<glyph unicode="ffj" horiz-adv-x="1353" d="M35 877v137h112v166q0 82 26 139t71 94t103.5 53.5t123.5 16.5q61 0 113.5 -13.5t93.5 -35.5q45 45 108.5 64.5t139.5 19.5q201 0 303 -117l-107 -115q-33 35 -82 55.5t-114 20.5q-82 0 -119 -40t-37 -108v-200h457v-1153q0 -57 -16.5 -107.5t-49.5 -87.5t-82 -57.5 t-116 -20.5h-62v154h23.5t21.5 2q63 0 88 37t25 108v988h-289v-877h-168v877h-287v-877h-168v877h-112zM315 1014h287v200q0 45 8 78q-61 33 -139 33q-82 0 -119 -39t-37 -108v-164z" />
<glyph unicode="ff" horiz-adv-x="991" d="M33 877v135h114v166q0 82 26 139t70 94t103 53.5t125 16.5q55 0 101 -10.5t87 -28.5q33 35 80 52t105 17h112v-153h-90q-57 0 -78.5 -33t-21.5 -82v-231h186v-135h-186v-877h-166v877h-287v-877h-166v877h-114zM313 1012h287v231v24.5t2 28.5q-55 29 -131 29 q-84 0 -121 -40t-37 -107v-166z" />
<glyph unicode="fi" horiz-adv-x="890" d="M35 877v137h112v184q0 82 26 140.5t71 95t103.5 53t123.5 16.5q197 0 303 -119l-106 -114q-66 76 -197 76q-82 0 -119 -39t-37 -109v-184h457v-1014h-166v877h-291v-877h-168v877h-112z" />
<glyph unicode="fl" horiz-adv-x="950" d="M35 877v137h112v184q0 82 25 141.5t69 97.5t103 55t127 17q39 0 115 -9t186 -44v-1198q0 -57 21.5 -86t78.5 -29h37v-149h-53q-121 0 -185.5 51t-64.5 191v1095q-43 12 -73.5 16.5t-63.5 4.5q-82 0 -118 -41t-36 -119v-178h189v-137h-189v-877h-168v877h-112z" />
<glyph unicode="ffi" horiz-adv-x="1353" d="M35 877v137h112v166q0 82 26 139t71 94t103.5 53.5t123.5 16.5q61 0 113.5 -13.5t93.5 -35.5q45 45 108.5 64.5t139.5 19.5q201 0 305 -117l-109 -115q-66 76 -196 76q-82 0 -119 -40t-37 -108v-200h457v-1014h-168v877h-289v-877h-168v877h-287v-877h-168v877h-112z M315 1014h287v200q0 39 6 74q-29 16 -62.5 26.5t-74.5 10.5q-82 0 -119 -39t-37 -108v-164z" />
<glyph unicode="ffl" horiz-adv-x="1402" d="M35 877v137h112v164q0 82 26 139t71 94t103 53.5t124 16.5q53 0 109.5 -11.5t101.5 -35.5q45 43 106.5 63.5t135.5 20.5q39 0 115.5 -9.5t185.5 -44.5v-1206q0 -57 21.5 -86t78.5 -29h37v-149h-51q-121 0 -186.5 51t-65.5 191v1103q-43 12 -73 16.5t-62 4.5 q-84 0 -120 -41t-36 -119v-186h186v-137h-186v-877h-166v877h-287v-877h-168v877h-112zM315 1014h287v192q0 23 2 43.5t6 40.5q-61 35 -139 35q-82 0 -119 -40t-37 -107v-164z" />
<glyph unicode="ft" horiz-adv-x="968" d="M35 877v137h112v229q0 127 69 188.5t177 61.5h107v-154h-84q-57 0 -79 -33.5t-22 -82.5v-209h289v258h166v-258h143v-137h-143v-601q0 -61 24.5 -92.5t79.5 -31.5h56v-152h-92q-117 0 -175.5 66.5t-58.5 164.5v646h-289v-877h-168v877h-112z" />
<glyph unicode=" "  horiz-adv-x="430" />
<glyph unicode="&#x09;" horiz-adv-x="430" />
<glyph unicode="&#xa0;" horiz-adv-x="430" />
<glyph unicode="!" horiz-adv-x="481" d="M156 0v182h174v-182h-174zM160 1425h162l-17 -1063h-129z" />
<glyph unicode="&#x22;" horiz-adv-x="573" d="M102 1020v405h127v-405h-127zM344 1020v405h127v-405h-127z" />
<glyph unicode="#" horiz-adv-x="901" d="M23 451v112h176l49 309h-158v113h176l72 442h117l-72 -442h205l71 442h117l-74 -442h166v-113h-184l-49 -309h166v-112h-185l-71 -451h-117l72 451h-205l-72 -451h-117l74 451h-157zM313 563h205l51 309h-204z" />
<glyph unicode="$" horiz-adv-x="901" d="M55 231l135 84q29 -63 82.5 -111t137.5 -59v506q-168 63 -249 150.5t-81 236.5q0 160 86 265.5t244 119.5v166h90v-166q129 -10 210 -73.5t113 -139.5l-137 -90q-27 59 -73 97t-113 49v-469q96 -23 160.5 -60t102.5 -88t54.5 -116.5t16.5 -145.5q0 -174 -84 -279.5 t-250 -117.5v-205h-90v205q-131 8 -221.5 76.5t-133.5 164.5zM250 1036q0 -78 41 -125t119 -82v439q-82 -14 -121 -78t-39 -154zM500 147q94 14 130 79t36 159q0 51 -10.5 89t-32 64.5t-52 46t-71.5 36.5v-474z" />
<glyph unicode="%" horiz-adv-x="1310" d="M80 782v430q0 100 66.5 160t164.5 60q100 0 166 -59.5t66 -160.5v-430q0 -102 -67.5 -160.5t-164.5 -58.5q-96 0 -163.5 58.5t-67.5 160.5zM209 782q0 -47 27.5 -74.5t74.5 -27.5t75 27.5t28 74.5v430q0 43 -28 72t-75 29t-74.5 -29t-27.5 -72v-430zM211 -35l756 1497 h116l-757 -1497h-115zM770 203v446q0 49 18.5 89t51 66.5t73.5 41t88 14.5q45 0 87 -14.5t75 -41t51.5 -66.5t18.5 -89v-446q0 -51 -18.5 -90t-51.5 -66t-74.5 -41t-87.5 -14q-47 0 -88 14t-73.5 41t-51 66t-18.5 90zM899 203q0 -47 27.5 -70.5t74.5 -23.5t75 23.5t28 70.5 v446q0 43 -27.5 67.5t-75.5 24.5q-47 0 -74.5 -24.5t-27.5 -67.5v-446z" />
<glyph unicode="&#x26;" horiz-adv-x="1122" d="M113 344q0 131 62.5 231.5t186.5 196.5q-25 41 -51 81t-46.5 83t-34 88t-13.5 96q0 68 21.5 126.5t62.5 101.5t101.5 67.5t138.5 24.5q94 0 169.5 -32t131.5 -108l-119 -98q-47 51 -87 68.5t-99 17.5q-82 0 -120 -51t-38 -115q0 -37 21.5 -90t56.5 -114.5t79 -129 t91 -134t92 -131t82 -117.5q29 57 42 112t23 115l154 -12q-12 -88 -41 -181.5t-78 -177.5q43 -66 89 -132.5t91 -129.5h-194l-94 133q-74 -78 -158 -111.5t-176 -33.5q-82 0 -146.5 27.5t-108.5 74.5t-67.5 112.5t-23.5 141.5zM274 354q0 -90 53.5 -152.5t153.5 -62.5 q66 0 128.5 36t99.5 81q-66 98 -131.5 196.5t-133.5 196.5q-82 -66 -126 -137.5t-44 -157.5z" />
<glyph unicode="'" horiz-adv-x="423" d="M145 1020v405h127v-405h-127z" />
<glyph unicode="(" horiz-adv-x="512" d="M88 625q0 131 25.5 250.5t70.5 227t103.5 203t124.5 177.5l86 -47q-55 -84 -100.5 -181.5t-77 -202t-49 -211t-17.5 -208.5q0 -223 67.5 -435t174.5 -378l-78 -56q-66 82 -125.5 178.5t-105.5 205t-72.5 228.5t-26.5 249z" />
<glyph unicode=")" horiz-adv-x="512" d="M55 1434q23 12 43.5 24t42.5 23q66 -82 124.5 -177.5t103.5 -203t70.5 -227t25.5 -250.5q0 -129 -26.5 -248t-73 -227.5t-105.5 -205t-125 -178.5l-78 56q53 82 98.5 177t77 199.5t49 215t17.5 221.5q0 102 -17.5 208.5t-49 210t-76.5 201t-101 181.5z" />
<glyph unicode="*" horiz-adv-x="729" d="M53 1151q2 8 7.5 25.5t11.5 37t11 37t9 27.5l219 -92q0 14 -3 49t-6 73t-6 71.5t-3 50.5h131l-21 -244q14 6 45 18.5t65 26.5t64.5 27.5t45.5 19.5q2 -10 8 -27.5t12 -37t12.5 -37t8.5 -25.5l-230 -59l158 -187q-8 -6 -22.5 -17t-32 -22.5t-31.5 -23t-23 -17.5l-125 209 q-8 -12 -26.5 -41.5t-38 -62.5t-36.5 -62.5t-26 -44.5q-8 6 -23 17.5t-31.5 24t-32 22.5t-21.5 16l158 189q-14 4 -47 12t-68 17t-66.5 17.5t-46.5 12.5z" />
<glyph unicode="+" horiz-adv-x="901" d="M39 539v127h350v362h125v-362h348v-127h-348v-365h-125v365h-350z" />
<glyph unicode="," horiz-adv-x="456" d="M117 -238l57 230h-51v213h194v-209l-104 -234h-96z" />
<glyph unicode="-" horiz-adv-x="755" d="M104 455v145h560v-145h-560z" />
<glyph unicode="." horiz-adv-x="446" d="M125 0v207h194v-207h-194z" />
<glyph unicode="/" horiz-adv-x="587" d="M4 -86l449 1571h129l-449 -1571h-129z" />
<glyph unicode="0" horiz-adv-x="901" d="M109 326v772q0 82 27.5 145.5t75.5 106.5t109.5 65.5t129.5 22.5t130 -22.5t109 -65.5t76 -106.5t29 -145.5v-772q0 -82 -29 -145.5t-76 -106.5t-109.5 -64.5t-129.5 -21.5q-68 0 -129.5 21.5t-109.5 64.5t-75.5 106.5t-27.5 145.5zM272 326q0 -86 49.5 -132.5 t129.5 -46.5t129 46.5t49 132.5v772q0 86 -49.5 133t-128.5 47q-80 0 -129.5 -47t-49.5 -133v-772z" />
<glyph unicode="1" horiz-adv-x="901" d="M231 1102l2 176l193 147h168v-1425h-166v1251z" />
<glyph unicode="2" horiz-adv-x="901" d="M96 0v154l461 720q35 53 48 115t13 107q0 35 -8 67.5t-28.5 59t-53.5 42t-82 15.5q-82 -2 -128 -62.5t-52 -170.5l-168 26q12 166 104.5 264.5t248.5 98.5q162 0 254 -88t92 -250q0 -74 -24.5 -153t-72.5 -150l-407 -637h487v-158h-684z" />
<glyph unicode="3" horiz-adv-x="901" d="M100 299l166 33q12 -84 49 -136.5t127 -52.5q102 0 146.5 75t44.5 185q0 266 -195 267h-84v143h76q102 0 148.5 57.5t46.5 167.5q0 45 -8.5 89t-29 78t-55 54.5t-86.5 20.5q-47 0 -77.5 -15.5t-50 -42t-28.5 -61.5t-16 -74l-163 27q8 68 32.5 127t66.5 103.5t99.5 69 t134.5 24.5q104 0 171 -32t106 -85t54.5 -125t15.5 -154q0 -41 -6.5 -85t-24 -85t-48 -74.5t-79.5 -52.5q55 -12 88 -41.5t50 -72.5t22.5 -97.5t5.5 -115.5q0 -92 -18.5 -171t-61.5 -136.5t-112.5 -90t-172.5 -32.5q-63 0 -120.5 19.5t-102.5 58t-75 97t-36 136.5z" />
<glyph unicode="4" horiz-adv-x="901" d="M53 217v160l396 1048h172l-398 -1052h350v407h164v-407h109v-156h-109v-217h-164v217h-520z" />
<glyph unicode="5" horiz-adv-x="901" d="M90 305l166 27q10 -94 51 -144.5t133 -50.5q68 0 106 33t56.5 84t21.5 114.5t3 125.5q0 53 -4.5 105t-21.5 94t-52 68.5t-96 26.5q-57 0 -98.5 -27.5t-67.5 -74.5h-154v739h647v-153h-497l6 -414q49 47 102.5 62.5t108.5 15.5q98 0 156.5 -37t89 -97.5t39 -138 t8.5 -159.5q0 -125 -15.5 -221.5t-54.5 -162t-108.5 -99t-176.5 -33.5q-307 0 -348 317z" />
<glyph unicode="6" horiz-adv-x="901" d="M106 395q0 119 20.5 210t61.5 181q33 74 78 172.5t88 193.5t78 170t47 103h176l-282 -624l6 -2q23 14 56.5 21t64.5 7q82 0 138 -34.5t92 -91t51.5 -127t15.5 -140.5q0 -98 -19.5 -180t-61.5 -141.5t-109.5 -92t-164.5 -32.5q-178 0 -257 106.5t-79 300.5zM268 399 q0 -57 7.5 -104t28 -81t55 -53.5t87.5 -19.5q88 0 135.5 62.5t47.5 204.5q0 51 -7.5 100t-25.5 88t-53 61.5t-90 22.5q-61 0 -98.5 -26.5t-55.5 -68.5t-24.5 -91.5t-6.5 -94.5z" />
<glyph unicode="7" horiz-adv-x="901" d="M104 1077v348h693v-153l-430 -1272h-172l428 1270h-365v-193h-154z" />
<glyph unicode="8" horiz-adv-x="901" d="M92 397q0 268 158 344q-45 27 -74 57.5t-44 67.5t-20.5 83t-5.5 102q0 100 28 172.5t76 121t110.5 71t130.5 22.5q72 0 134 -22.5t109 -70t74 -121t27 -173.5q0 -113 -32 -185.5t-104 -124.5q88 -41 119 -128t31 -216q0 -115 -30.5 -192.5t-82 -125.5t-115 -69.5 t-130.5 -21.5q-72 0 -136.5 21.5t-113.5 69.5t-79 126t-30 192zM258 410q0 -76 15.5 -127.5t41 -83t60.5 -45t76 -13.5q100 0 144 65.5t44 207.5q0 141 -48 201.5t-140 60.5q-86 0 -139.5 -60.5t-53.5 -205.5zM272 1040q0 -231 179 -231q88 0 133 57.5t45 184.5 q0 111 -42 170t-136 59t-136.5 -60.5t-42.5 -179.5z" />
<glyph unicode="9" horiz-adv-x="901" d="M102 991q0 98 20.5 180t63.5 141.5t112 92.5t165 33q178 0 256 -106.5t78 -301.5q2 -119 -21.5 -210t-64.5 -181q-6 -12 -30 -63.5t-55.5 -121t-66.5 -147.5t-65.5 -144.5t-51 -112.5t-22.5 -50h-176l282 625l-6 2q-23 -14 -55.5 -20.5t-63.5 -6.5q-82 0 -139 35t-92 91 t-51.5 126t-16.5 139zM270 1022q0 -53 7.5 -103.5t29 -89t58 -61.5t98.5 -23q51 0 84 23t51 59.5t25.5 87t7.5 105.5q0 57 -7.5 105.5t-26.5 83t-54 55t-88 20.5q-88 0 -136.5 -60.5t-48.5 -201.5z" />
<glyph unicode=":" horiz-adv-x="442" d="M119 0v207h194v-207h-194zM119 598v209h194v-209h-194z" />
<glyph unicode=";" horiz-adv-x="442" d="M115 -238l57 230h-49v213h194v-209l-104 -234h-98zM123 598v209h194v-209h-194z" />
<glyph unicode="&#x3c;" horiz-adv-x="901" d="M55 545v117l783 395v-139l-637 -314l637 -313v-139z" />
<glyph unicode="=" horiz-adv-x="901" d="M39 360v134h823v-134h-823zM39 715v133h823v-133h-823z" />
<glyph unicode="&#x3e;" horiz-adv-x="901" d="M57 152v139l637 313l-637 314v139l783 -395v-117z" />
<glyph unicode="?" horiz-adv-x="888" d="M78 1073q12 92 47 161t86 114t115.5 66.5t136.5 21.5q178 0 270 -98.5t92 -262.5q0 -49 -7 -88t-20.5 -72.5t-33 -64.5t-43.5 -68q-23 -33 -51.5 -66.5t-54 -70.5t-43 -76t-17.5 -77v-123h-170v96q0 74 17.5 131t58.5 111q76 102 129 173.5t57 145.5q0 43 -6 87t-26.5 80 t-59.5 58.5t-102 22.5q-47 0 -85 -19.5t-63.5 -51.5t-40 -72.5t-16.5 -81.5zM381 0v182h172v-182h-172z" />
<glyph unicode="@" horiz-adv-x="1617" d="M109 688q0 164 51 302t145 238.5t228.5 157t300.5 56.5q152 0 275.5 -49.5t210.5 -136.5t135 -207.5t48 -262.5q0 -141 -29.5 -237t-78.5 -155.5t-113.5 -85t-136.5 -25.5q-18 0 -47 8t-57.5 24.5t-52 41t-32.5 57.5l-6 -2q-25 -45 -86 -76t-135 -31q-111 0 -171 64.5 t-60 169.5q0 45 13 88t42 76.5t74 55t108 21.5h187v99q0 53 -36 83.5t-108 30.5q-47 0 -85 -22.5t-56 -57.5l-111 56q35 66 99.5 105.5t150.5 39.5q61 0 111.5 -11t87.5 -39t57.5 -73t20.5 -112v-344q0 -61 30.5 -94t71.5 -33t79 14t66.5 56t46 116t17.5 192 q0 127 -42 226.5t-113.5 167t-167 103.5t-201.5 36q-141 0 -252 -49t-187.5 -134t-116.5 -200t-40 -248q0 -145 41 -265t117.5 -205t189.5 -131t254 -46q55 0 103 4t94.5 14.5t92.5 27.5t95 44l47 -119q-96 -41 -201.5 -66.5t-220.5 -25.5q-168 0 -305 51.5t-235.5 149.5 t-152.5 240.5t-54 326.5zM623 545q0 -49 34.5 -83t108.5 -34q156 0 156 137v105h-154q-66 0 -105.5 -28.5t-39.5 -96.5z" />
<glyph unicode="A" horiz-adv-x="1017" d="M18 0l414 1425h154l415 -1425h-176l-90 324h-454l-88 -324h-175zM319 477h377l-104 369l-80 315h-8l-80 -313z" />
<glyph unicode="B" horiz-adv-x="1036" d="M133 0v1425h410q197 0 292 -101t95 -273q0 -98 -37 -174t-145 -129v-7q55 -14 94 -46.5t63.5 -77t35.5 -98.5t11 -111q0 -201 -103.5 -304.5t-279.5 -103.5h-436zM303 166h248q68 0 113 20.5t71.5 55t37.5 81t11 99.5q0 106 -54 175t-183 69h-244v-500zM303 813h223 q123 0 179.5 63.5t56.5 167.5q0 102 -56.5 164t-179.5 62h-223v-457z" />
<glyph unicode="C" horiz-adv-x="960" d="M102 414v598q0 90 28 167.5t81 134t131 89.5t176 33q145 0 250.5 -72t144.5 -201l-161 -63q-20 78 -79 125t-155 47q-59 0 -105 -21.5t-77 -56.5t-47.5 -82t-16.5 -96v-606q0 -51 16.5 -98.5t47.5 -83t77 -57t105 -21.5q92 0 152.5 47t81.5 127l161 -60 q-37 -135 -142 -205.5t-253 -70.5q-96 0 -174 31.5t-131 88t-82 134t-29 172.5z" />
<glyph unicode="D" horiz-adv-x="1067" d="M131 0v1425h399q143 0 246 -52t152 -175q31 -82 34 -199.5t3 -273.5q0 -162 -2 -278.5t-33 -200.5q-29 -72 -72 -119t-98 -74.5t-121 -40t-135 -12.5h-373zM303 160h211q152 0 215.5 81t63.5 224v491q0 166 -72 239t-207 73h-211v-1108z" />
<glyph unicode="E" horiz-adv-x="931" d="M133 0v1425h756v-159h-586v-467h502v-154h-502v-479h586v-166h-756z" />
<glyph unicode="F" horiz-adv-x="911" d="M133 0v1425h756v-159h-586v-473h502v-154h-502v-639h-170z" />
<glyph unicode="G" horiz-adv-x="1036" d="M100 414v598q0 90 28 167.5t82 134t132 89.5t176 33q145 0 250.5 -72t144.5 -205l-163 -55q-20 76 -80 122t-152 46q-59 0 -105 -21.5t-78 -56.5t-48.5 -82t-16.5 -96v-613q0 -51 16.5 -98t48.5 -83t78 -57.5t105 -21.5q55 0 100.5 19.5t77 52.5t50 78t18.5 96v225h-234 v152h406v-367q0 -94 -32 -170.5t-87 -130t-132 -83t-167 -29.5q-98 0 -176 31.5t-131 88t-82 135t-29 173.5z" />
<glyph unicode="H" horiz-adv-x="1089" d="M133 0v1425h170v-626h481v626h172v-1425h-172v649h-481v-649h-170z" />
<glyph unicode="I" horiz-adv-x="444" d="M135 0v1425h172v-1425h-172z" />
<glyph unicode="J" horiz-adv-x="831" d="M-4 131l133 102q29 -35 74 -59t96 -24q94 0 158.5 51t64.5 174v1050h172v-1052q0 -104 -30.5 -177t-85 -119t-125 -67.5t-150.5 -21.5q-98 0 -177 37.5t-130 105.5z" />
<glyph unicode="K" horiz-adv-x="1056" d="M131 0v1425h172v-747q2 0 3 1t3 1q121 190 244 373.5t246 371.5h186q-92 -141 -183 -277t-184 -278l420 -870h-188l-340 707q-53 -76 -103.5 -153t-103.5 -151v-403h-172z" />
<glyph unicode="L" horiz-adv-x="905" d="M133 0v1425h170v-1259h569v-166h-739z" />
<glyph unicode="M" horiz-adv-x="1343" d="M133 0v1425h172l236 -538l135 -330h6l139 334l232 534h170v-1425h-170v995l-9 -2l-112 -274l-197 -440h-117l-198 448l-109 268l-8 -2v-993h-170z" />
<glyph unicode="N" horiz-adv-x="1150" d="M129 0v1425h166l399 -739l152 -293l8 2v1030h170v-1425h-164l-407 750l-146 284h-6v-1034h-172z" />
<glyph unicode="O" horiz-adv-x="1017" d="M90 440v572q0 72 22.5 147.5t71.5 137t129 100.5t195 39q109 0 187.5 -37t130 -97.5t76 -136t24.5 -153.5v-596q0 -98 -31 -177t-86 -135.5t-132 -86t-169 -29.5q-113 0 -192.5 36.5t-130 99t-73 144.5t-22.5 172zM258 1006l2 -564q0 -61 13.5 -115.5t44 -94t78.5 -63.5 t116 -24q49 0 93 17.5t76 50.5t51.5 80t19.5 106v611q0 33 -11.5 78t-39 85.5t-74.5 70.5t-121 30t-121 -27.5t-75.5 -67.5t-40 -87.5t-11.5 -85.5z" />
<glyph unicode="P" horiz-adv-x="991" d="M133 0v1425h406q199 0 307 -105.5t108 -322.5q0 -82 -22.5 -158.5t-70.5 -135t-126 -94.5t-188 -36h-244v-573h-170zM303 733h234q72 0 118.5 22.5t75.5 59.5t40 85t11 99q0 123 -57 195t-190 72h-232v-533z" />
<glyph unicode="Q" horiz-adv-x="1036" d="M111 442v572q0 72 22.5 146.5t71.5 136t129 100.5t194 39q109 0 188 -37t130 -96.5t75.5 -135t24.5 -153.5v-596q0 -66 -14 -123t-39 -105l143 -114l-88 -111l-143 115q-111 -92 -277 -92q-113 0 -192.5 36.5t-129.5 100t-72.5 145.5t-22.5 172zM279 1012l2 -568 q0 -61 13 -116.5t44 -95t79 -63.5t115 -24q80 0 140 43l-168 136l92 108l160 -131q16 49 16 100v611q0 33 -10 78t-38 86t-75 69.5t-121 28.5q-70 0 -118 -26.5t-76.5 -65.5t-41.5 -85t-13 -85z" />
<glyph unicode="R" horiz-adv-x="1036" d="M133 0v1425h447q174 0 274 -103t100 -294q0 -135 -60 -232.5t-185 -144.5l258 -651h-187l-237 627h-240v-627h-170zM303 776h250q115 0 172 67.5t57 184.5q0 119 -56 180.5t-177 61.5h-246v-494z" />
<glyph unicode="S" horiz-adv-x="978" d="M45 238l152 88q41 -72 110.5 -123t179.5 -51q131 0 188.5 67.5t57.5 169.5q0 57 -17.5 97t-50 69t-79.5 50.5t-105 39.5q-106 33 -181 69t-122 83t-68.5 107.5t-21.5 142.5q0 86 28.5 157.5t83 123.5t130.5 81t170 29q158 0 254 -56.5t143 -142.5l-145 -100 q-41 72 -102.5 103.5t-157.5 31.5q-119 0 -174.5 -65.5t-55.5 -161.5q0 -55 24.5 -94.5t67.5 -67t100.5 -49t125.5 -41.5q92 -29 155.5 -66t101 -86t55 -111.5t17.5 -142.5q0 -186 -111.5 -294.5t-312.5 -108.5q-166 0 -276.5 67.5t-163.5 184.5z" />
<glyph unicode="T" horiz-adv-x="825" d="M2 1270v155h821v-155h-325v-1270h-170v1270h-326z" />
<glyph unicode="U" horiz-adv-x="1062" d="M115 414v1011h170v-1017q0 -51 17 -97.5t49 -82t78 -57t103 -21.5q109 0 177.5 68.5t68.5 189.5v1017h172v-1011q0 -98 -30.5 -177t-86 -134.5t-132 -85t-169.5 -29.5q-98 0 -174.5 31.5t-131 88t-83 135.5t-28.5 171z" />
<glyph unicode="V" horiz-adv-x="960" d="M29 1425h178l168 -665l102 -461h6l105 465l166 661h178l-373 -1425h-160z" />
<glyph unicode="W" horiz-adv-x="1437" d="M39 1425h178l119 -653l65 -405h7l86 399l153 659h146l153 -661l86 -397h6l64 397l117 661h180l-283 -1425h-151l-160 692l-84 391h-6l-82 -383l-160 -700h-151z" />
<glyph unicode="X" horiz-adv-x="921" d="M8 0l363 739l-338 686h186l242 -530l241 530h187l-340 -686l364 -739h-184l-268 578l-266 -578h-187z" />
<glyph unicode="Y" horiz-adv-x="905" d="M14 1425h181q37 -92 75.5 -184t75.5 -184q25 -61 50.5 -133t47.5 -133h13l104 274l148 360h178l-352 -831v-594h-166v594z" />
<glyph unicode="Z" horiz-adv-x="845" d="M55 0v158l555 1112h-532v155h717v-147l-555 -1116h553v-162h-738z" />
<glyph unicode="[" horiz-adv-x="483" d="M139 -211v1641h312v-109h-164v-1423h164v-109h-312z" />
<glyph unicode="\" horiz-adv-x="540" d="M10 1462h127l387 -1513h-129z" />
<glyph unicode="]" horiz-adv-x="483" d="M43 -102h162v1423h-162v109h307v-1643h-307v111z" />
<glyph unicode="^" horiz-adv-x="901" d="M37 680l362 741h117l365 -741h-140l-284 592l-283 -592h-137z" />
<glyph unicode="_" horiz-adv-x="1024" d="M0 -141h1024v-125h-1024v125z" />
<glyph unicode="`" horiz-adv-x="868" d="M338 1475l156 51l143 -355l-98 -38z" />
<glyph unicode="a" horiz-adv-x="872" d="M74 285q0 135 84 224t268 89h186v125q0 70 -46 108.5t-136 38.5q-59 0 -111.5 -21.5t-74.5 -74.5q-33 18 -65 37.5t-64 40.5q41 84 126 129t189 45q72 0 135.5 -15.5t111.5 -50t75.5 -93t27.5 -146.5v-721h-168v74l-8 4q-35 -45 -97.5 -67.5t-141.5 -22.5 q-74 0 -129.5 23.5t-91 64.5t-53 95t-17.5 114zM231 295q0 -68 45.5 -110t137.5 -42q86 0 142 39t56 135v140h-198q-80 0 -131.5 -38t-51.5 -124z" />
<glyph unicode="b" horiz-adv-x="884" d="M100 0v1487h166v-580h4q47 63 108.5 90t123.5 27q104 0 164.5 -44t92.5 -114.5t40 -163t8 -186.5q0 -104 -10.5 -200.5t-43 -169t-92 -115.5t-159.5 -43q-72 0 -129.5 25.5t-102.5 82.5q-2 0 -2 -1t-2 -1v-94h-166zM262 532q0 -59 1 -127.5t18.5 -127t56.5 -96.5t113 -38 q61 0 98 27t57.5 76t26.5 115.5t6 146.5q0 84 -7 149.5t-28.5 110.5t-58.5 68.5t-94 23.5q-63 0 -101.5 -30.5t-58 -79t-24.5 -105.5t-5 -113z" />
<glyph unicode="c" horiz-adv-x="788" d="M63 528q0 227 92.5 362.5t288.5 135.5q111 0 190 -50t120 -136l-136 -84q-23 53 -67.5 82.5t-104.5 29.5q-68 0 -110.5 -26.5t-66 -72.5t-32 -108.5t-8.5 -136.5t8.5 -142.5t32 -121.5t65.5 -85t109 -32q61 0 105 32t67 73q35 -20 70 -37.5t70 -38.5q-41 -86 -121 -135 t-191 -49q-115 0 -188.5 39t-116.5 109.5t-59.5 171t-16.5 220.5z" />
<glyph unicode="d" horiz-adv-x="886" d="M80 504q0 94 11 187t45 167t97.5 120t167.5 46q61 0 115.5 -22.5t99.5 -73.5h5v559h165v-1487h-165v94q-2 0 -2.5 1t-2.5 1q-45 -57 -102 -82.5t-129 -25.5q-100 0 -160.5 42t-92.5 112.5t-42 164.5t-10 197zM248 508q0 -74 6 -139.5t26.5 -114.5t57.5 -79t98 -30 q74 0 113 41t55.5 101.5t17.5 127t1 117.5q0 63 -6.5 122t-25 105t-55.5 73.5t-98 27.5q-63 0 -101 -28.5t-57.5 -76.5t-25.5 -112.5t-6 -134.5z" />
<glyph unicode="e" horiz-adv-x="868" d="M76 506q0 96 15 189t55 167t110 119t178 45q172 0 263 -109.5t91 -302.5v-157h-546q0 -68 8 -126.5t30.5 -101.5t63.5 -67.5t107 -24.5q55 0 101 35t75 82l135 -72q-41 -90 -122 -142t-183 -52t-174 28.5t-118 91t-67.5 161t-21.5 237.5zM246 590h379q0 139 -48.5 209.5 t-140.5 70.5q-106 0 -146 -75.5t-44 -204.5z" />
<glyph unicode="f" horiz-adv-x="538" d="M35 877v135h112v231q0 127 69 188.5t177 61.5h107v-154h-84q-57 0 -79 -33.5t-22 -82.5v-211h185v-135h-185v-877h-168v877h-112z" />
<glyph unicode="g" horiz-adv-x="903" d="M80 498q0 98 9 193t40 170t92.5 120t165.5 45q72 0 129 -25.5t102 -82.5q2 0 2.5 1t2.5 1v94h165v-1022q0 -188 -89 -302t-281 -114q-98 0 -178 47t-121 133l137 80q23 -41 66 -72.5t102 -31.5q104 0 151.5 61.5t47.5 171.5v141h-5q-47 -63 -108 -89.5t-123 -26.5 q-104 0 -165.5 44t-92.5 114.5t-40 161.5t-9 188zM250 506q0 -82 6 -147.5t26.5 -110.5t55.5 -69.5t94 -24.5q61 0 99 27.5t58.5 73.5t28 104.5t7.5 121.5q0 59 -1 127t-17.5 125.5t-55.5 95t-113 37.5q-66 0 -103.5 -28.5t-56 -77.5t-23.5 -114.5t-5 -139.5z" />
<glyph unicode="h" horiz-adv-x="897" d="M96 0v1487h166v-588h6q43 59 106.5 92t137.5 33q61 0 113.5 -20.5t90.5 -60.5t60.5 -96t22.5 -130v-717h-166v662q0 92 -46 145t-138 53q-86 0 -137.5 -53t-51.5 -150v-657h-164z" />
<glyph unicode="i" horiz-adv-x="403" d="M119 0v1014h166v-1014h-166zM119 1260v165h166v-165h-166z" />
<glyph unicode="j" horiz-adv-x="430" d="M-25 -266q4 0 20.5 -1t18.5 1q63 2 91 42t28 111v1127h166v-1164q0 -57 -16.5 -106t-50 -86t-84 -57.5t-117.5 -20.5h-56v154zM133 1260v165h166v-165h-166z" />
<glyph unicode="k" horiz-adv-x="901" d="M113 0v1487h166v-963h4l360 490h191l-289 -387l346 -627h-184l-269 494l-159 -222v-272h-166z" />
<glyph unicode="l" horiz-adv-x="464" d="M121 236v1251h166v-1225q0 -57 22.5 -86t79.5 -29h35v-153h-45q-121 0 -191 51q-68 50 -67 183v8z" />
<glyph unicode="m" horiz-adv-x="1437" d="M106 0v1012h166v-109h4q86 121 236 121q84 0 147.5 -36t100.5 -93h2q59 68 125.5 98.5t154.5 30.5q61 0 113.5 -22.5t91.5 -62.5t60.5 -96.5t21.5 -125.5v-717h-166v602q0 55 -8 102.5t-27.5 81t-54.5 53t-88 19.5q-98 0 -141 -68.5t-43 -185.5v-604h-166v602 q0 55 -8.5 101.5t-28.5 81t-55 54t-88 19.5q-98 0 -141.5 -71.5t-43.5 -188.5v-598h-164z" />
<glyph unicode="n" horiz-adv-x="892" d="M94 0v1014h166v-113h6q43 59 106.5 91t137.5 32q61 0 113.5 -21.5t90.5 -61.5t60.5 -96.5t22.5 -127.5v-717h-166v662q0 92 -47 144t-140 52q-84 0 -135 -54t-51 -147v-657h-164z" />
<glyph unicode="o" horiz-adv-x="897" d="M82 500q0 96 9 184t32 143q41 92 125 145.5t207 53.5q121 0 190.5 -48t110.5 -120q14 -25 24.5 -64.5t16.5 -88t9 -100.5t3 -99q0 -29 -2 -70t-7 -86t-11.5 -86t-14.5 -65q-18 -59 -54 -100.5t-82 -66t-98.5 -35.5t-107.5 -11q-117 0 -191.5 49t-111.5 127 q-27 55 -37 146t-10 192zM246 481q0 -68 3 -127t19 -100q23 -55 66 -86t108 -31q63 0 111.5 31t71.5 98q10 29 14 97.5t4 152.5q0 72 -4 136.5t-16 101.5q-23 61 -68 92t-104 31t-106.5 -29t-70.5 -86q-14 -39 -21 -111.5t-7 -169.5z" />
<glyph unicode="p" horiz-adv-x="884" d="M90 -410v1424h166v-94q2 0 2 -1t2 -1q45 57 102.5 82.5t129.5 25.5q100 0 159.5 -42t92 -112.5t43 -165t10.5 -196.5q0 -96 -11.5 -189.5t-46 -167t-98 -118.5t-166.5 -45q-127 0 -215 100h-4v-500h-166zM254 481q0 -55 5 -112.5t23.5 -105.5t55.5 -78.5t100 -30.5 t100 28.5t57.5 76.5t27 111.5t6.5 135.5q0 74 -6.5 139.5t-25.5 114.5t-56 78.5t-101 29.5q-74 0 -112.5 -37.5t-55 -95t-17.5 -126t-1 -128.5z" />
<glyph unicode="q" horiz-adv-x="901" d="M88 498q0 98 11.5 193t44 170t93 120t160.5 45q72 0 129.5 -25.5t102.5 -82.5q2 0 2 1t2 1v94h166v-1428h-166v520h-4q-47 -63 -108.5 -89.5t-123.5 -26.5q-104 0 -165.5 44t-93.5 114.5t-41 161.5t-9 188zM260 506q0 -72 5 -135.5t24.5 -111.5t58 -76.5t101.5 -28.5 q61 0 98 30.5t56.5 78.5t25.5 105.5t6 112.5q0 59 -1 128t-17.5 127.5t-55.5 96t-112 37.5q-61 0 -98.5 -29.5t-58 -79.5t-26.5 -115.5t-6 -139.5z" />
<glyph unicode="r" horiz-adv-x="636" d="M121 0v1012h164v-121h6q47 80 106.5 107.5t141.5 27.5q59 -4 92 -22l-37 -179q-49 23 -100 23q-94 0 -151.5 -52.5t-57.5 -166.5v-629h-164z" />
<glyph unicode="s" horiz-adv-x="829" d="M55 201l135 78q33 -66 87.5 -103t136.5 -37q86 0 134 36t48 116q0 39 -14.5 63.5t-40 41t-60.5 27.5t-75 23q-74 18 -133.5 42t-102.5 58t-65.5 80t-22.5 111q0 135 88 212t242 77q137 0 213.5 -51t111.5 -144l-129 -79q-59 122 -196 122h-2q-92 0 -128 -41.5t-36 -95.5 q0 -35 18.5 -57.5t50 -37.5t73.5 -27.5t87 -24.5q72 -16 125 -40t89 -59.5t53.5 -85t17.5 -118.5q0 -137 -92.5 -219t-257.5 -82q-131 0 -219.5 55t-135.5 160z" />
<glyph unicode="t" horiz-adv-x="522" d="M33 879v135h112v260h166v-260h144v-135h-144v-600q0 -63 24.5 -95t80.5 -32h55v-152h-92q-117 0 -175.5 66.5t-58.5 164.5v648h-112z" />
<glyph unicode="u" horiz-adv-x="905" d="M94 295v717h166v-662q0 -92 50 -146t136 -54q84 0 135.5 55t51.5 149v658h164v-1012h-164v109h-6q-43 -61 -107.5 -91t-136.5 -30q-61 0 -114.5 21.5t-91.5 61.5t-60.5 96t-22.5 128z" />
<glyph unicode="v" horiz-adv-x="808" d="M12 1014h178q8 -27 24.5 -87.5t35 -128t34 -128t25.5 -86.5l97 -346h6q6 18 19 68t27.5 106.5t27 105.5t18.5 68q8 27 24.5 87t33 126.5t31.5 126t25 88.5h179q-16 -43 -40 -122t-53.5 -178.5t-60.5 -207t-60.5 -206.5t-54 -179t-39.5 -121h-167q-16 41 -41 121 t-53.5 179t-60.5 206.5t-60.5 207t-54 178.5t-40.5 122z" />
<glyph unicode="w" horiz-adv-x="1300" d="M16 1014h177q35 -135 66.5 -268.5t64.5 -268.5l49 -209h8l51 207q33 133 68 267.5t69 271.5h162q35 -131 66.5 -262t64.5 -263l56 -231h8l51 221q33 135 62.5 267.5t62.5 267.5h178l-276 -1014h-162q-33 123 -67 245t-64 247l-64 235h-4q-16 -66 -32.5 -132.5 t-32.5 -129.5l-123 -465h-164z" />
<glyph unicode="x" horiz-adv-x="806" d="M18 0l297 520l-282 494h186l187 -371l184 371h186l-282 -496l297 -518h-187l-198 389l-201 -389h-187z" />
<glyph unicode="y" horiz-adv-x="786" d="M2 1014h176l125 -406l96 -342h7l90 342l118 406h172l-364 -1217q-33 -109 -100.5 -160t-163.5 -51h-54v144h50q96 0 131 145l43 150z" />
<glyph unicode="z" horiz-adv-x="757" d="M59 0v145l455 721h-426v146h612v-142l-452 -714h452v-156h-641z" />
<glyph unicode="{" horiz-adv-x="503" d="M35 555v104q39 6 66.5 30t45 59.5t25.5 82t8 95.5v280q0 102 53.5 161.5t131.5 59.5h114v-110h-61q-27 0 -44.5 -16.5t-28.5 -42t-15 -57.5t-4 -62v-258q0 -66 -15.5 -114t-38 -81t-46 -50.5t-40.5 -23.5v-6q16 -6 40 -23.5t46.5 -50t38 -79.5t15.5 -111v-266 q0 -31 4 -62.5t15 -57.5t28.5 -42t44.5 -16h61v-109h-114q-78 0 -131.5 59.5t-53.5 159.5v285q0 109 -33.5 180.5t-111.5 81.5z" />
<glyph unicode="|" horiz-adv-x="423" d="M147 -332v1798h132v-1798h-132z" />
<glyph unicode="}" horiz-adv-x="503" d="M31 -102h63q27 0 44.5 16t28.5 42t15 57.5t4 62.5v266q0 63 15.5 110.5t38 80t46 50t40.5 23.5v6q-16 6 -40 23.5t-46.5 50.5t-38 81t-15.5 114v258q0 31 -3 62.5t-12 57t-27.5 42t-49.5 16.5h-63v106h114q86 0 136.5 -59t50.5 -158v-280q0 -49 8 -95.5t24.5 -82t44 -59 t66.5 -30.5v-104q-78 -10 -110.5 -82t-32.5 -180v-285q0 -100 -53.5 -159.5t-131.5 -59.5h-116v109z" />
<glyph unicode="~" horiz-adv-x="901" d="M37 510q45 78 105.5 122t136.5 44q49 0 93 -17.5t87 -39t84 -39t82 -17.5q45 0 71.5 25.5t65.5 75.5l104 -72q-47 -78 -103 -127t-140 -49q-39 0 -82 18.5t-88 40t-89.5 39.5t-87.5 18q-47 0 -72.5 -22.5t-66.5 -69.5z" />
<glyph unicode="&#xa1;" horiz-adv-x="481" d="M156 1243v182h174v-182h-174zM160 0l16 1063h129l17 -1063h-162z" />
<glyph unicode="&#xa2;" horiz-adv-x="901" d="M104 528q0 205 76 337t238 155v211h92v-207q102 -6 174 -55t111 -129l-136 -84q-45 100 -149 110v-723q53 8 90 38t57 67q35 -20 70 -37.5t70 -38.5q-39 -80 -113 -129t-174 -53v-230h-92v232q-92 12 -153.5 55t-96.5 112.5t-49.5 163t-14.5 205.5zM270 524 q0 -63 6.5 -123.5t22.5 -109.5t45 -85t74 -52v704q-47 -12 -76 -43t-44 -75t-21.5 -99.5t-6.5 -116.5z" />
<glyph unicode="&#xa3;" horiz-adv-x="901" d="M63 0v137q59 94 99.5 189.5t48.5 218.5l4 65h-149v135h124q-10 51 -24 95.5t-26.5 84.5t-21.5 81t-9 88q0 72 23.5 134t67.5 108t107.5 73t141.5 27q129 0 232 -61.5t155 -207.5l-156 -59q-45 102 -100.5 136t-124.5 34q-63 0 -114.5 -48t-51.5 -140q0 -39 9 -78 t21.5 -81t25.5 -88t22 -98h260v-135h-248q0 -135 -27.5 -241.5t-87.5 -214.5h537v-154h-738z" />
<glyph unicode="&#xa4;" horiz-adv-x="1138" d="M82 274l141 138q-43 55 -60.5 116.5t-17.5 124.5q0 123 78 242l-141 139l100 101l140 -140q59 39 118.5 58.5t124.5 19.5q66 0 125.5 -19.5t118.5 -58.5l137 140l101 -103l-140 -137q78 -119 78 -242q0 -127 -78 -241l140 -136l-101 -102l-137 139q-115 -80 -244 -80 q-131 0 -243 80l-140 -139zM291 653q0 -55 22.5 -105t59.5 -87t86 -58.5t104 -21.5q57 0 107.5 21.5t87.5 58.5t58.5 86t21.5 106t-21.5 107.5t-58.5 87.5t-87 58.5t-108 21.5q-55 0 -104 -21.5t-87 -58.5t-59.5 -87.5t-21.5 -107.5z" />
<glyph unicode="&#xa5;" horiz-adv-x="901" d="M43 1425h168q59 -162 117.5 -322.5t117.5 -322.5h9q59 162 116.5 323t114.5 322h170l-276 -714h227v-105h-266l-11 -31v-131h277v-106h-277v-338h-155v338h-275v106h275v129l-10 33h-265v105h224z" />
<glyph unicode="&#xa6;" horiz-adv-x="423" d="M147 -332v856h132v-856h-132zM147 608v858h132v-858h-132z" />
<glyph unicode="&#xa7;" horiz-adv-x="911" d="M94 -12q25 25 47.5 51.5t46.5 50.5q59 -59 122 -81.5t132 -22.5q100 0 155.5 43t55.5 125q0 72 -61.5 122t-177.5 103q-74 31 -131.5 62.5t-96.5 69.5t-58 85t-19 111q0 66 32.5 127t85.5 102q-41 41 -63.5 88t-22.5 113t26 121t71 95t107.5 62.5t133.5 22.5 q199 0 332 -123q-23 -29 -47.5 -55.5t-48.5 -55.5q-66 55 -124.5 74.5t-113.5 19.5q-84 0 -130 -43t-46 -106q0 -37 18.5 -66.5t49 -53t71.5 -45t88 -42.5q57 -27 113.5 -57.5t101.5 -72.5t74 -95t29 -125q0 -70 -29 -129.5t-82 -102.5q35 -43 56.5 -93t21.5 -107 q0 -141 -99.5 -227.5t-273.5 -86.5q-100 0 -193 40t-153 102zM262 719q0 -31 17.5 -58.5t45 -52t63.5 -44t73 -36.5q41 -18 82 -35.5t75 -37.5q39 20 57.5 56t18.5 77v6q0 72 -61.5 115t-171.5 90q-27 12 -54.5 22t-56.5 27q-41 -16 -64.5 -50t-23.5 -79z" />
<glyph unicode="&#xa8;" horiz-adv-x="874" d="M184 1214v172h162v-172h-162zM526 1214v172h160v-172h-160z" />
<glyph unicode="&#xa9;" horiz-adv-x="1542" d="M104 698q0 154 47.5 286t134.5 228.5t209.5 150.5t274.5 54q150 0 273.5 -54t210.5 -150.5t135.5 -228.5t48.5 -286t-48.5 -283.5t-135.5 -226t-210.5 -150.5t-273.5 -54q-154 0 -276.5 54t-209.5 150.5t-133.5 226.5t-46.5 283zM227 698q0 -127 39 -235.5t109.5 -190.5 t171 -128t223.5 -46q125 0 226.5 46t171 128t107.5 190.5t38 235.5t-38 238t-108.5 191.5t-171 128t-225.5 47.5q-127 0 -227.5 -47.5t-170 -128t-107.5 -191.5t-38 -238zM512 508v360q0 111 68.5 186.5t193.5 75.5q88 0 155.5 -47t92.5 -133l-115 -45q-12 47 -46 77t-87 30 q-70 0 -104.5 -44t-34.5 -98v-366q0 -55 35 -100.5t104 -45.5q49 0 85 30t48 79l115 -43q-23 -86 -91.5 -134t-156.5 -48q-123 0 -192.5 74.5t-69.5 191.5z" />
<glyph unicode="&#xaa;" horiz-adv-x="602" d="M43 766q0 39 11.5 77t37 66.5t66.5 47t100 18.5h154v69q0 41 -26 62.5t-89 21.5q-88 0 -123 -63l-104 59q29 59 89 92t138 33q53 0 99 -9t80 -32.5t52.5 -63.5t18.5 -100v-473h-135v66q-29 -35 -70 -54.5t-94 -19.5t-92 16.5t-63.5 44t-37 64.5t-12.5 78zM174 772 q0 -88 107 -88q55 0 93 23.5t38 78.5v76h-125q-51 0 -82 -21.5t-31 -68.5z" />
<glyph unicode="&#xab;" horiz-adv-x="915" d="M90 475l240 381h159l-235 -381l235 -381h-159zM432 475l240 381h159l-233 -381l233 -381h-159z" />
<glyph unicode="&#xac;" horiz-adv-x="901" d="M39 539v127h823l-2 -492h-127v365h-694z" />
<glyph unicode="&#xad;" horiz-adv-x="755" d="M104 455v145h560v-145h-560z" />
<glyph unicode="&#xae;" horiz-adv-x="1071" d="M123 1006q0 94 28.5 175t83 139t130 92t170.5 34q92 0 166.5 -34t129 -92t83 -139t28.5 -175t-28.5 -174t-83 -138.5t-129 -91.5t-166.5 -33q-94 0 -170 33t-130.5 91.5t-83 138t-28.5 174.5zM207 1008q0 -78 23.5 -144.5t66.5 -115t103.5 -75t134.5 -26.5q76 0 136 27.5 t101 76t63.5 114t22.5 143.5q0 76 -22.5 142.5t-65.5 115.5t-102 77.5t-133 28.5q-78 0 -138.5 -28.5t-102.5 -77.5t-64.5 -116t-22.5 -142zM381 741v523h149q76 0 125.5 -34t49.5 -120q0 -100 -84 -141q27 -55 52 -112.5t48 -115.5h-96q-23 53 -45.5 107.5t-44.5 107.5h-68 v-215h-86zM467 1032h65q41 0 63.5 18.5t22.5 59.5q0 47 -25.5 61.5t-76.5 14.5h-49v-154z" />
<glyph unicode="&#xaf;" horiz-adv-x="872" d="M205 1204v154h508v-154h-508z" />
<glyph unicode="&#xb0;" horiz-adv-x="681" d="M104 1196q0 49 18.5 93t51.5 77t77 51.5t93 18.5t93 -18.5t77 -51.5t52.5 -77t19.5 -93t-19.5 -93t-52.5 -77t-77 -51.5t-93 -18.5t-93 18.5t-77 51.5t-51.5 77t-18.5 93zM205 1196q0 -59 41 -100t98 -41q59 0 99 41t40 100t-40 99t-99 40q-57 0 -98 -40t-41 -99z" />
<glyph unicode="&#xb1;" horiz-adv-x="901" d="M49 0v127h813v-127h-813zM49 569v127h344v346h125v-346h344v-127h-344v-346h-125v346h-344z" />
<glyph unicode="&#xb2;" horiz-adv-x="571" d="M53 760v106l297 416q41 59 41 125q0 35 -22.5 64.5t-75.5 29.5q-47 0 -76 -35.5t-33 -101.5l-131 18q8 109 70.5 172.5t171.5 63.5t170 -54.5t61 -154.5q0 -45 -15 -93t-48 -93l-248 -342h303v-121h-465z" />
<glyph unicode="&#xb3;" horiz-adv-x="575" d="M49 1401q10 92 74 152.5t166 60.5q63 0 107 -18.5t71 -49t39 -71.5t12 -86q0 -53 -14.5 -102.5t-69.5 -84.5q53 -31 70.5 -78t17.5 -118q0 -117 -58 -187.5t-181 -70.5q-104 0 -164 52t-68 158l131 17q6 -115 103 -115q66 0 87 48t21 106q0 57 -25.5 93t-91.5 36h-65v108 h61q68 0 91.5 37t23.5 92t-23.5 86t-76.5 31q-41 0 -70 -30.5t-37 -84.5z" />
<glyph unicode="&#xb4;" horiz-adv-x="868" d="M338 1171l143 355l156 -51l-201 -342z" />
<glyph unicode="&#xb5;" horiz-adv-x="929" d="M117 -414v1426h166v-602q0 -55 10 -101.5t31.5 -81t57.5 -54t87 -19.5q53 0 89 19.5t57.5 55t30.5 86t9 109.5v588h164v-1012h-164v106h-6q-43 -59 -107.5 -87.5t-135.5 -28.5q-66 0 -121 30l-2 -434h-166z" />
<glyph unicode="&#xb6;" horiz-adv-x="993" d="M84 1036q0 57 13.5 129t51 133.5t107.5 103.5t182 42h463v-133h-74v-1479h-129v1479h-147v-1479h-129v832h-6q-94 0 -157.5 34.5t-102.5 90t-55.5 121t-16.5 126.5z" />
<glyph unicode="&#xb7;" horiz-adv-x="440" d="M121 457v207h194v-207h-194z" />
<glyph unicode="&#xb8;" horiz-adv-x="882" d="M248 -387l28 76q39 -18 75 -22.5t65 -4.5q35 0 62.5 20.5t27.5 55.5q0 41 -32 65.5t-99 20.5l-37 31l61 204l84 -6l-45 -149q53 -4 88 -20.5t56.5 -41t30 -51.5t8.5 -51q0 -25 -10.5 -53.5t-33 -52t-59.5 -39t-88 -15.5h-28.5t-46 3t-54.5 10.5t-53 19.5z" />
<glyph unicode="&#xb9;" horiz-adv-x="493" d="M98 1389v133l131 92h125v-854h-129v717z" />
<glyph unicode="&#xba;" horiz-adv-x="618" d="M51 901q0 53 4 102.5t21 90.5q29 76 85 115.5t154 39.5q84 0 136.5 -31.5t80.5 -82.5q35 -61 35 -224q0 -82 -7 -139t-30 -96q-35 -59 -95 -87t-130 -28q-92 0 -151.5 38t-81.5 103q-12 35 -16.5 90.5t-4.5 108.5zM184 889q0 -37 1 -70t12 -57q12 -39 38.5 -60.5 t73.5 -21.5q84 0 113 76q10 23 12 63.5t2 93.5q0 49 -3 82t-9 56q-23 79 -113 79q-66 0 -96 -47q-14 -20 -22.5 -74.5t-8.5 -119.5z" />
<glyph unicode="&#xbb;" horiz-adv-x="915" d="M92 94l234 381l-234 381h160l240 -381l-240 -381h-160zM434 94l236 381l-236 381h160l240 -381l-240 -381h-160z" />
<glyph unicode="&#xbc;" horiz-adv-x="1310" d="M115 1200v133l131 92h125v-854h-129v717zM152 -35l755 1497h117l-758 -1497h-114zM664 127v109l254 618h137l-252 -612h192v237h129v-237h72v-115h-72v-127h-129v127h-331z" />
<glyph unicode="&#xbd;" horiz-adv-x="1310" d="M102 1200v133l131 92h125v-854h-129v717zM143 -35l756 1497h117l-758 -1497h-115zM733 0v106l297 416q41 59 41 125q0 35 -22.5 64.5t-75.5 29.5q-47 0 -76 -35.5t-33 -101.5l-131 19q8 109 70.5 172t171.5 63t170 -54t61 -155q0 -45 -15 -93t-48 -93l-248 -342h303v-121 h-465z" />
<glyph unicode="&#xbe;" horiz-adv-x="1310" d="M53 1217q10 92 74 152.5t166 60.5q63 0 107 -18.5t71 -49.5t39 -72t12 -86q0 -53 -14 -102t-70 -84q53 -31 70.5 -78t17.5 -119q0 -117 -58 -187.5t-181 -70.5q-104 0 -164 52.5t-68 158.5l131 17q6 -115 103 -115q66 0 87 48t21 105t-25.5 93t-90.5 36h-66v109h61 q68 0 91.5 37t23.5 92t-23.5 86t-76.5 31q-41 0 -69.5 -31t-37.5 -84zM229 -35l756 1497h117l-758 -1497h-115zM715 127v109l254 618h137l-252 -612h193v237h129v-237h71v-115h-71v-127h-129v127h-332z" />
<glyph unicode="&#xbf;" horiz-adv-x="888" d="M115 -68q0 49 7 88t20.5 73t33 64.5t43.5 67.5q23 33 51.5 67t54 70.5t43 74.5t17.5 79v123h170v-96q0 -74 -17.5 -131.5t-58.5 -110.5q-39 -51 -71.5 -94t-57 -81t-40 -73t-17.5 -71q0 -43 6 -87.5t26.5 -80t58.5 -58t103 -22.5q47 0 85 19.5t64 51t40 72.5t16 82 l170 -25q-12 -92 -47 -160.5t-86 -113.5t-115.5 -66.5t-136.5 -21.5q-178 0 -270 98t-92 262zM387 825v183h172v-183h-172z" />
<glyph unicode="&#xc0;" horiz-adv-x="1017" d="M18 0l414 1425h154l415 -1425h-176l-90 324h-454l-88 -324h-175zM170 1722l121 125l303 -250l-76 -86zM319 477h377l-104 369l-80 315h-8l-80 -313z" />
<glyph unicode="&#xc1;" horiz-adv-x="1017" d="M18 0l414 1425h154l415 -1425h-176l-90 324h-454l-88 -324h-175zM319 477h377l-104 369l-80 315h-8l-80 -313zM461 1569l297 241l110 -120l-340 -201z" />
<glyph unicode="&#xc2;" horiz-adv-x="1017" d="M18 0l414 1425h154l415 -1425h-176l-90 324h-454l-88 -324h-175zM178 1569l287 252h102l273 -248l-66 -72l-266 164l-266 -164zM319 477h377l-104 369l-80 315h-8l-80 -313z" />
<glyph unicode="&#xc3;" horiz-adv-x="1017" d="M18 0l414 1425h154l415 -1425h-176l-90 324h-454l-88 -324h-175zM170 1591q35 70 88.5 119t112.5 49q33 0 65.5 -13t63 -29.5t61.5 -30t60 -13.5q55 0 116 86l92 -57q-41 -84 -93 -126t-107 -42q-35 0 -68 13.5t-64.5 28.5t-61 28.5t-56.5 13.5q-31 0 -58.5 -18.5 t-60.5 -59.5zM319 477h377l-104 369l-80 315h-8l-80 -313z" />
<glyph unicode="&#xc4;" horiz-adv-x="1017" d="M18 0l414 1425h154l415 -1425h-176l-90 324h-454l-88 -324h-175zM256 1532v172h162v-172h-162zM319 477h377l-104 369l-80 315h-8l-80 -313zM598 1532v172h160v-172h-160z" />
<glyph unicode="&#xc5;" horiz-adv-x="1017" d="M18 0l414 1425h154l415 -1425h-176l-90 324h-454l-88 -324h-175zM319 477h377l-104 369l-80 315h-8l-80 -313zM328 1645q0 37 14 68.5t39 55t57.5 38t71.5 14.5q35 0 66.5 -14.5t55 -38t38 -55.5t14.5 -68q0 -72 -51 -122t-123 -50q-78 0 -130 50t-52 122zM414 1645 q0 -37 27.5 -63t68.5 -26q37 0 63.5 26t26.5 63q0 39 -26.5 65.5t-63.5 26.5q-41 0 -68.5 -27t-27.5 -65z" />
<glyph unicode="&#xc6;" horiz-adv-x="1640" d="M14 0q178 358 354.5 712.5t356.5 712.5h842v-159h-586v-467h502v-154h-502v-481h586v-164h-758v395h-422l-197 -395h-176zM463 549h346v715h-2z" />
<glyph unicode="&#xc7;" horiz-adv-x="960" d="M102 414v598q0 90 28 167.5t81 134t131 89.5t176 33q145 0 250.5 -72t144.5 -201l-161 -63q-20 78 -79 125t-155 47q-59 0 -105 -21.5t-77 -56.5t-47.5 -82t-16.5 -96v-606q0 -51 16.5 -98.5t47.5 -83t77 -57t105 -21.5q92 0 152.5 47t81.5 127l161 -60 q-35 -127 -132 -196.5t-232 -77.5l-25 -86q53 -4 88 -20.5t56.5 -41t30 -51.5t8.5 -51q0 -25 -10.5 -53.5t-33 -52t-59.5 -39t-88 -15.5h-28.5t-46 3t-54.5 10.5t-53 19.5l28 76q39 -18 75 -22.5t65 -4.5q35 0 62.5 20.5t27.5 55.5q0 41 -32 65.5t-99 20.5l-37 31l41 137 q-172 16 -267.5 131t-95.5 291z" />
<glyph unicode="&#xc8;" horiz-adv-x="931" d="M133 0v1425h756v-159h-586v-467h502v-154h-502v-479h586v-166h-756zM184 1722l121 125l303 -250l-76 -86z" />
<glyph unicode="&#xc9;" horiz-adv-x="931" d="M133 0v1425h756v-159h-586v-467h502v-154h-502v-479h586v-166h-756zM358 1569l297 241l111 -120l-340 -201z" />
<glyph unicode="&#xca;" horiz-adv-x="931" d="M133 0v1425h756v-159h-586v-467h502v-154h-502v-479h586v-166h-756zM178 1569l287 252h102l273 -248l-66 -72l-266 164l-266 -164z" />
<glyph unicode="&#xcb;" horiz-adv-x="931" d="M133 0v1425h756v-159h-586v-467h502v-154h-502v-479h586v-166h-756zM260 1563v172h162v-172h-162zM602 1563v172h160v-172h-160z" />
<glyph unicode="&#xcc;" horiz-adv-x="444" d="M-111 1722l121 125l303 -250l-75 -86zM135 0v1425h172v-1425h-172z" />
<glyph unicode="&#xcd;" horiz-adv-x="444" d="M135 0v1425h172v-1425h-172zM160 1569l297 241l110 -120l-340 -201z" />
<glyph unicode="&#xce;" horiz-adv-x="444" d="M-117 1569l287 252h102l273 -248l-66 -72l-266 164l-266 -164zM135 0v1425h172v-1425h-172z" />
<glyph unicode="&#xcf;" horiz-adv-x="444" d="M-37 1563v172h162v-172h-162zM135 0v1425h172v-1425h-172zM305 1563v172h160v-172h-160z" />
<glyph unicode="&#xd0;" horiz-adv-x="1067" d="M12 672v129h119v624h399q143 0 246 -52t152 -175q31 -82 34 -199.5t3 -273.5q0 -162 -2 -278.5t-33 -200.5q-29 -72 -72 -119t-98 -74.5t-121 -40t-135 -12.5h-373v672h-119zM303 160h211q152 0 215.5 81t63.5 224v491q0 166 -72 239t-207 73h-211v-467h248v-129h-248 v-512z" />
<glyph unicode="&#xd1;" horiz-adv-x="1150" d="M129 0v1425h166l399 -739l152 -293l8 2v1030h170v-1425h-164l-407 750l-146 284h-6v-1034h-172zM242 1587q35 70 88 119t112 49q33 0 66 -13t63.5 -29.5t61.5 -30t59 -13.5q55 0 117 86l92 -57q-41 -84 -93 -126t-108 -42q-35 0 -67.5 13t-64 28.5t-61.5 29t-56 13.5 q-31 0 -58.5 -18.5t-60.5 -59.5z" />
<glyph unicode="&#xd2;" horiz-adv-x="1017" d="M90 440v572q0 72 22.5 147.5t71.5 137t129 100.5t195 39q109 0 187.5 -37t130 -97.5t76 -136t24.5 -153.5v-596q0 -98 -31 -177t-86 -135.5t-132 -86t-169 -29.5q-113 0 -192.5 36.5t-130 99t-73 144.5t-22.5 172zM258 1006l2 -564q0 -61 13.5 -115.5t44 -94t78.5 -63.5 t116 -24q49 0 93 17.5t76 50.5t51.5 80t19.5 106v611q0 33 -11.5 78t-39 85.5t-74.5 70.5t-121 30t-121 -27.5t-75.5 -67.5t-40 -87.5t-11.5 -85.5zM291 1722l121 125l303 -250l-76 -86z" />
<glyph unicode="&#xd3;" horiz-adv-x="1017" d="M90 440v572q0 72 22.5 147.5t71.5 137t129 100.5t195 39q109 0 187.5 -37t130 -97.5t76 -136t24.5 -153.5v-596q0 -98 -31 -177t-86 -135.5t-132 -86t-169 -29.5q-113 0 -192.5 36.5t-130 99t-73 144.5t-22.5 172zM258 1006l2 -564q0 -61 13.5 -115.5t44 -94t78.5 -63.5 t116 -24q49 0 93 17.5t76 50.5t51.5 80t19.5 106v611q0 33 -11.5 78t-39 85.5t-74.5 70.5t-121 30t-121 -27.5t-75.5 -67.5t-40 -87.5t-11.5 -85.5zM358 1569l297 241l111 -120l-340 -201z" />
<glyph unicode="&#xd4;" horiz-adv-x="1017" d="M90 440v572q0 72 22.5 147.5t71.5 137t129 100.5t195 39q109 0 187.5 -37t130 -97.5t76 -136t24.5 -153.5v-596q0 -98 -31 -177t-86 -135.5t-132 -86t-169 -29.5q-113 0 -192.5 36.5t-130 99t-73 144.5t-22.5 172zM178 1569l287 252h102l273 -248l-66 -72l-266 164 l-266 -164zM258 1006l2 -564q0 -61 13.5 -115.5t44 -94t78.5 -63.5t116 -24q49 0 93 17.5t76 50.5t51.5 80t19.5 106v611q0 33 -11.5 78t-39 85.5t-74.5 70.5t-121 30t-121 -27.5t-75.5 -67.5t-40 -87.5t-11.5 -85.5z" />
<glyph unicode="&#xd5;" horiz-adv-x="1017" d="M90 440v572q0 72 22.5 147.5t71.5 137t129 100.5t195 39q109 0 187.5 -37t130 -97.5t76 -136t24.5 -153.5v-596q0 -98 -31 -177t-86 -135.5t-132 -86t-169 -29.5q-113 0 -192.5 36.5t-130 99t-73 144.5t-22.5 172zM174 1591q35 70 88.5 119t112.5 49q33 0 65.5 -13 t63.5 -29.5t61.5 -30t59.5 -13.5q55 0 116 86l93 -57q-41 -84 -93.5 -126t-107.5 -42q-35 0 -68 13.5t-64.5 28.5t-61 28.5t-56.5 13.5q-31 0 -58.5 -18.5t-60.5 -59.5zM258 1006l2 -564q0 -61 13.5 -115.5t44 -94t78.5 -63.5t116 -24q49 0 93 17.5t76 50.5t51.5 80 t19.5 106v611q0 33 -11.5 78t-39 85.5t-74.5 70.5t-121 30t-121 -27.5t-75.5 -67.5t-40 -87.5t-11.5 -85.5z" />
<glyph unicode="&#xd6;" horiz-adv-x="1017" d="M90 440v572q0 72 22.5 147.5t71.5 137t129 100.5t195 39q109 0 187.5 -37t130 -97.5t76 -136t24.5 -153.5v-596q0 -98 -31 -177t-86 -135.5t-132 -86t-169 -29.5q-113 0 -192.5 36.5t-130 99t-73 144.5t-22.5 172zM252 1532v172h162v-172h-162zM258 1006l2 -564 q0 -61 13.5 -115.5t44 -94t78.5 -63.5t116 -24q49 0 93 17.5t76 50.5t51.5 80t19.5 106v611q0 33 -11.5 78t-39 85.5t-74.5 70.5t-121 30t-121 -27.5t-75.5 -67.5t-40 -87.5t-11.5 -85.5zM594 1532v172h160v-172h-160z" />
<glyph unicode="&#xd7;" horiz-adv-x="991" d="M117 274l307 308l-299 299l88 90l299 -299l305 307l90 -90l-305 -307l299 -299l-90 -90l-299 299l-307 -306z" />
<glyph unicode="&#xd8;" horiz-adv-x="1017" d="M80 43l72 131q-33 57 -47.5 125t-14.5 141v572q0 72 22.5 147.5t71.5 137t129 100.5t195 39q94 0 164.5 -29t122.5 -76l57 105l80 -50l-74 -131q35 -55 51.5 -117.5t16.5 -125.5v-596q0 -98 -31 -177t-86 -135.5t-132 -86t-169 -29.5q-98 0 -172 28.5t-123 77.5l-57 -102 zM258 1006l2 -564v-34.5t4 -32.5l441 794q-29 43 -76 74t-123 31q-74 0 -121 -27.5t-75.5 -67.5t-40 -87.5t-11.5 -85.5zM301 254q29 -51 81 -80t130 -29q49 0 93 17.5t76 50.5t51.5 80t19.5 106v611q0 10 -1 21t-3 24z" />
<glyph unicode="&#xd9;" horiz-adv-x="1062" d="M115 414v1011h170v-1017q0 -51 17 -97.5t49 -82t78 -57t103 -21.5q109 0 177.5 68.5t68.5 189.5v1017h172v-1011q0 -98 -30.5 -177t-86 -134.5t-132 -85t-169.5 -29.5q-98 0 -174.5 31.5t-131 88t-83 135.5t-28.5 171zM295 1722l121 125l303 -250l-76 -86z" />
<glyph unicode="&#xda;" horiz-adv-x="1062" d="M115 414v1011h170v-1017q0 -51 17 -97.5t49 -82t78 -57t103 -21.5q109 0 177.5 68.5t68.5 189.5v1017h172v-1011q0 -98 -30.5 -177t-86 -134.5t-132 -85t-169.5 -29.5q-98 0 -174.5 31.5t-131 88t-83 135.5t-28.5 171zM358 1569l297 241l111 -120l-340 -201z" />
<glyph unicode="&#xdb;" horiz-adv-x="1062" d="M115 414v1011h170v-1017q0 -51 17 -97.5t49 -82t78 -57t103 -21.5q109 0 177.5 68.5t68.5 189.5v1017h172v-1011q0 -98 -30.5 -177t-86 -134.5t-132 -85t-169.5 -29.5q-98 0 -174.5 31.5t-131 88t-83 135.5t-28.5 171zM190 1569l287 252h103l272 -248l-66 -72l-266 164 l-266 -164z" />
<glyph unicode="&#xdc;" horiz-adv-x="1062" d="M115 414v1011h170v-1017q0 -51 17 -97.5t49 -82t78 -57t103 -21.5q109 0 177.5 68.5t68.5 189.5v1017h172v-1011q0 -98 -30.5 -177t-86 -134.5t-132 -85t-169.5 -29.5q-98 0 -174.5 31.5t-131 88t-83 135.5t-28.5 171zM287 1532v172h162v-172h-162zM629 1532v172h159 v-172h-159z" />
<glyph unicode="&#xdd;" horiz-adv-x="905" d="M14 1425h181q37 -92 75.5 -184t75.5 -184q25 -61 50.5 -133t47.5 -133h13l104 274l148 360h178l-352 -831v-594h-166v594zM293 1569l297 241l110 -120l-340 -201z" />
<glyph unicode="&#xde;" horiz-adv-x="991" d="M133 0v1487h170l-4 -328h236q199 0 307 -105.5t108 -322.5q0 -82 -22.5 -158.5t-70.5 -135t-126 -94.5t-188 -36h-244l4 -307h-170zM299 467h233q72 0 119 22.5t76 59.5t40 85t11 99q0 123 -57 194.5t-191 71.5h-231v-532z" />
<glyph unicode="&#xdf;" horiz-adv-x="913" d="M109 0v1098q0 180 85 286.5t259 106.5q166 0 247.5 -95.5t81.5 -250.5q0 -92 -28.5 -170t-106.5 -113q63 -27 97 -69.5t50.5 -96t19.5 -115t3 -122.5q0 -90 -12 -174t-48 -149.5t-101.5 -105.5t-174.5 -40h-59v137h41q74 0 111.5 37t53 93t16.5 121.5t1 125.5 q0 51 -7 101t-25.5 90t-50.5 63.5t-81 23.5h-49v144h39q45 0 73.5 18.5t44 48t21.5 66.5t6 71q0 94 -37.5 152.5t-132.5 58.5q-57 0 -90.5 -20.5t-52 -54t-25 -75.5t-6.5 -85v-1106h-163z" />
<glyph unicode="&#xe0;" horiz-adv-x="872" d="M94 285q0 135 84 224t268 89h187v125q0 70 -46 108.5t-136 38.5q-59 0 -111.5 -21.5t-75.5 -74.5q-33 18 -64.5 37.5t-64.5 40.5q41 84 126 129t190 45q72 0 135 -15.5t111 -50t76 -93t28 -146.5v-721h-168v74l-8 4q-35 -45 -97.5 -67.5t-142.5 -22.5q-74 0 -129 23.5 t-91 64.5t-53.5 95t-17.5 114zM236 1475l155 51l144 -355l-99 -38zM252 295q0 -68 45 -110t137 -42q86 0 142.5 39t56.5 135v140h-199q-80 0 -131 -38t-51 -124z" />
<glyph unicode="&#xe1;" horiz-adv-x="872" d="M94 285q0 135 84 224t268 89h187v125q0 70 -46 108.5t-136 38.5q-59 0 -111.5 -21.5t-75.5 -74.5q-33 18 -64.5 37.5t-64.5 40.5q41 84 126 129t190 45q72 0 135 -15.5t111 -50t76 -93t28 -146.5v-721h-168v74l-8 4q-35 -45 -97.5 -67.5t-142.5 -22.5q-74 0 -129 23.5 t-91 64.5t-53.5 95t-17.5 114zM252 295q0 -68 45 -110t137 -42q86 0 142.5 39t56.5 135v140h-199q-80 0 -131 -38t-51 -124zM426 1171l143 355l156 -51l-201 -342z" />
<glyph unicode="&#xe2;" horiz-adv-x="872" d="M94 285q0 135 84 224t268 89h187v125q0 70 -46 108.5t-136 38.5q-59 0 -111.5 -21.5t-75.5 -74.5q-33 18 -64.5 37.5t-64.5 40.5q41 84 126 129t190 45q72 0 135 -15.5t111 -50t76 -93t28 -146.5v-721h-168v74l-8 4q-35 -45 -97.5 -67.5t-142.5 -22.5q-74 0 -129 23.5 t-91 64.5t-53.5 95t-17.5 114zM115 1198l288 299h103l272 -295l-76 -69l-256 204l-256 -207zM252 295q0 -68 45 -110t137 -42q86 0 142.5 39t56.5 135v140h-199q-80 0 -131 -38t-51 -124z" />
<glyph unicode="&#xe3;" horiz-adv-x="872" d="M94 285q0 135 84 224t268 89h187v125q0 70 -46 108.5t-136 38.5q-59 0 -111.5 -21.5t-75.5 -74.5q-33 18 -64.5 37.5t-64.5 40.5q41 84 126 129t190 45q72 0 135 -15.5t111 -50t76 -93t28 -146.5v-721h-168v74l-8 4q-35 -45 -97.5 -67.5t-142.5 -22.5q-74 0 -129 23.5 t-91 64.5t-53.5 95t-17.5 114zM131 1243q35 70 88.5 119t112.5 49q33 0 65.5 -13.5t63.5 -29.5t61.5 -29.5t59.5 -13.5q55 0 116 86l93 -57q-41 -84 -93.5 -126t-107.5 -42q-35 0 -68 13t-64.5 28.5t-61 29t-56.5 13.5q-31 0 -58.5 -18.5t-60.5 -59.5zM252 295 q0 -68 45 -110t137 -42q86 0 142.5 39t56.5 135v140h-199q-80 0 -131 -38t-51 -124z" />
<glyph unicode="&#xe4;" horiz-adv-x="872" d="M94 285q0 135 84 224t268 89h187v125q0 70 -46 108.5t-136 38.5q-59 0 -111.5 -21.5t-75.5 -74.5q-33 18 -64.5 37.5t-64.5 40.5q41 84 126 129t190 45q72 0 135 -15.5t111 -50t76 -93t28 -146.5v-721h-168v74l-8 4q-35 -45 -97.5 -67.5t-142.5 -22.5q-74 0 -129 23.5 t-91 64.5t-53.5 95t-17.5 114zM197 1214v172h161v-172h-161zM252 295q0 -68 45 -110t137 -42q86 0 142.5 39t56.5 135v140h-199q-80 0 -131 -38t-51 -124zM539 1214v172h159v-172h-159z" />
<glyph unicode="&#xe5;" horiz-adv-x="872" d="M94 285q0 135 84 224t268 89h187v125q0 70 -46 108.5t-136 38.5q-59 0 -111.5 -21.5t-75.5 -74.5q-33 18 -64.5 37.5t-64.5 40.5q41 84 126 129t190 45q72 0 135 -15.5t111 -50t76 -93t28 -146.5v-721h-168v74l-8 4q-35 -45 -97.5 -67.5t-142.5 -22.5q-74 0 -129 23.5 t-91 64.5t-53.5 95t-17.5 114zM252 295q0 -68 45 -110t137 -42q86 0 142.5 39t56.5 135v140h-199q-80 0 -131 -38t-51 -124zM268 1300q0 37 14.5 69t39 55.5t57.5 38t72 14.5q35 0 66.5 -14.5t55 -38t38 -55.5t14.5 -69q0 -72 -51 -122t-123 -50q-78 0 -130.5 50.5 t-52.5 121.5zM354 1300q0 -37 28 -62.5t69 -25.5q37 0 63.5 26t26.5 62q0 39 -26.5 66t-63.5 27q-41 0 -69 -27t-28 -66z" />
<glyph unicode="&#xe6;" horiz-adv-x="1413" d="M74 285q0 135 84 224t268 89h186v125q0 70 -46 108.5t-136 38.5q-59 0 -111.5 -21.5t-74.5 -74.5q-33 18 -65 37.5t-64 40.5q41 84 126 129t189 45q92 0 170 -25.5t125 -87.5q41 53 102.5 83t151.5 30q172 0 263 -109.5t91 -302.5v-157h-547q0 -68 8.5 -126.5t31 -101.5 t63.5 -67.5t106 -24.5q55 0 102.5 28t76.5 75l131 -72q-41 -90 -121 -135t-183 -45q-113 0 -187.5 33.5t-121.5 109.5q-45 -49 -90 -77.5t-87 -43t-81 -18.5t-69 -4q-74 0 -129.5 23.5t-91 64.5t-53 95t-17.5 114zM231 295q0 -68 45.5 -110t137.5 -42q86 0 142 39t56 135 v140h-198q-80 0 -131.5 -38t-51.5 -124zM791 590h378q0 139 -48 209.5t-140 70.5q-106 0 -146 -75.5t-44 -204.5z" />
<glyph unicode="&#xe7;" horiz-adv-x="788" d="M63 528q0 227 92.5 362.5t288.5 135.5q111 0 190 -50t120 -136l-136 -84q-23 53 -67.5 82.5t-104.5 29.5q-68 0 -110.5 -26.5t-66 -72.5t-32 -108.5t-8.5 -136.5t8.5 -142.5t32 -121.5t65.5 -85t109 -32q61 0 105 32t67 73q35 -20 70 -37.5t70 -38.5q-39 -82 -114 -131 t-179 -53l-25 -84q53 -4 88 -20.5t56.5 -41t30 -51.5t8.5 -51q0 -25 -10.5 -53.5t-33 -52t-59.5 -39t-88 -15.5h-28.5t-46 3t-54.5 10.5t-53 19.5l28 76q39 -18 75 -22.5t65 -4.5q35 0 62.5 20.5t27.5 55.5q0 41 -32 65.5t-99 20.5l-37 31l41 137q-94 10 -154.5 53 t-96.5 113.5t-50.5 164t-14.5 205.5z" />
<glyph unicode="&#xe8;" horiz-adv-x="868" d="M76 506q0 96 15 189t55 167t110 119t178 45q172 0 263 -109.5t91 -302.5v-157h-546q0 -68 8 -126.5t30.5 -101.5t63.5 -67.5t107 -24.5q55 0 101 35t75 82l135 -72q-41 -90 -122 -142t-183 -52t-174 28.5t-118 91t-67.5 161t-21.5 237.5zM223 1475l156 51l143 -355 l-98 -38zM246 590h379q0 139 -48.5 209.5t-140.5 70.5q-106 0 -146 -75.5t-44 -204.5z" />
<glyph unicode="&#xe9;" horiz-adv-x="868" d="M76 506q0 96 15 189t55 167t110 119t178 45q172 0 263 -109.5t91 -302.5v-157h-546q0 -68 8 -126.5t30.5 -101.5t63.5 -67.5t107 -24.5q55 0 101 35t75 82l135 -72q-41 -90 -122 -142t-183 -52t-174 28.5t-118 91t-67.5 161t-21.5 237.5zM246 590h379q0 139 -48.5 209.5 t-140.5 70.5q-106 0 -146 -75.5t-44 -204.5zM356 1171l144 355l155 -51l-200 -342z" />
<glyph unicode="&#xea;" horiz-adv-x="868" d="M76 506q0 96 15 189t55 167t110 119t178 45q172 0 263 -109.5t91 -302.5v-157h-546q0 -68 8 -126.5t30.5 -101.5t63.5 -67.5t107 -24.5q55 0 101 35t75 82l135 -72q-41 -90 -122 -142t-183 -52t-174 28.5t-118 91t-67.5 161t-21.5 237.5zM106 1198l289 299h103l272 -295 l-76 -69l-256 204l-256 -207zM246 590h379q0 139 -48.5 209.5t-140.5 70.5q-106 0 -146 -75.5t-44 -204.5z" />
<glyph unicode="&#xeb;" horiz-adv-x="868" d="M76 506q0 96 15 189t55 167t110 119t178 45q172 0 263 -109.5t91 -302.5v-157h-546q0 -68 8 -126.5t30.5 -101.5t63.5 -67.5t107 -24.5q55 0 101 35t75 82l135 -72q-41 -90 -122 -142t-183 -52t-174 28.5t-118 91t-67.5 161t-21.5 237.5zM190 1214v172h162v-172h-162z M246 590h379q0 139 -48.5 209.5t-140.5 70.5q-106 0 -146 -75.5t-44 -204.5zM532 1214v172h160v-172h-160z" />
<glyph unicode="&#xec;" horiz-adv-x="409" d="M-43 1475l156 51l143 -355l-98 -38zM119 0v1014h166v-1014h-166z" />
<glyph unicode="&#xed;" horiz-adv-x="409" d="M119 0v1014h166v-1014h-166zM121 1171l143 355l156 -51l-201 -342z" />
<glyph unicode="&#xee;" horiz-adv-x="561" d="M-51 1198l289 299h102l272 -295l-75 -69l-256 204l-256 -207zM197 0v1014h165v-1014h-165z" />
<glyph unicode="&#xef;" horiz-adv-x="419" d="M-41 1214v172h162v-172h-162zM127 0v1014h166v-1014h-166zM301 1214v172h160v-172h-160z" />
<glyph unicode="&#xf0;" horiz-adv-x="901" d="M72 463q0 102 15 196.5t55 165t109 112.5t175 42q18 0 47 -4t60.5 -16.5t61.5 -34t52 -56.5h6q-2 72 -11 154t-42 137l-129 -92l-49 70l129 94q-35 47 -103.5 79.5t-158.5 49.5l22 133q78 -8 136.5 -24.5t101.5 -39t74.5 -49t54.5 -51.5q35 27 69.5 51.5t69.5 51.5 l55 -70l-143 -105q49 -78 66.5 -231.5t17.5 -386.5q0 -127 -10 -245t-48 -208t-115 -144t-210 -54q-100 0 -168.5 31.5t-110.5 92t-60.5 148.5t-18.5 203zM236 475q0 -162 40.5 -251t155.5 -89q45 0 83 17.5t65.5 59.5t42 110.5t14.5 173.5q0 182 -50.5 258.5t-148.5 76.5 q-41 0 -75.5 -13t-62.5 -52t-45 -108.5t-19 -182.5z" />
<glyph unicode="&#xf1;" horiz-adv-x="892" d="M94 0v1014h166v-113h6q43 59 106.5 91t137.5 32q61 0 113.5 -21.5t90.5 -61.5t60.5 -96.5t22.5 -127.5v-717h-166v662q0 92 -47 144t-140 52q-84 0 -135 -54t-51 -147v-657h-164zM96 1243q35 70 88.5 119t112.5 49q33 0 65.5 -13.5t63.5 -29.5t61.5 -29.5t59.5 -13.5 q55 0 117 86l92 -57q-41 -84 -93.5 -126t-107.5 -42q-35 0 -67.5 13t-64.5 28.5t-61.5 29t-56.5 13.5q-31 0 -58.5 -18.5t-60.5 -59.5z" />
<glyph unicode="&#xf2;" horiz-adv-x="897" d="M82 500q0 96 9 184t32 143q41 92 125 145.5t207 53.5q121 0 190.5 -48t110.5 -120q14 -25 24.5 -64.5t16.5 -88t9 -100.5t3 -99q0 -29 -2 -70t-7 -86t-11.5 -86t-14.5 -65q-18 -59 -54 -100.5t-82 -66t-98.5 -35.5t-107.5 -11q-117 0 -191.5 49t-111.5 127 q-27 55 -37 146t-10 192zM211 1475l156 51l143 -355l-98 -38zM246 481q0 -68 3 -127t19 -100q23 -55 66 -86t108 -31q63 0 111.5 31t71.5 98q10 29 14 97.5t4 152.5q0 72 -4 136.5t-16 101.5q-23 61 -68 92t-104 31t-106.5 -29t-70.5 -86q-14 -39 -21 -111.5t-7 -169.5z" />
<glyph unicode="&#xf3;" horiz-adv-x="897" d="M82 500q0 96 9 184t32 143q41 92 125 145.5t207 53.5q121 0 190.5 -48t110.5 -120q14 -25 24.5 -64.5t16.5 -88t9 -100.5t3 -99q0 -29 -2 -70t-7 -86t-11.5 -86t-14.5 -65q-18 -59 -54 -100.5t-82 -66t-98.5 -35.5t-107.5 -11q-117 0 -191.5 49t-111.5 127 q-27 55 -37 146t-10 192zM246 481q0 -68 3 -127t19 -100q23 -55 66 -86t108 -31q63 0 111.5 31t71.5 98q10 29 14 97.5t4 152.5q0 72 -4 136.5t-16 101.5q-23 61 -68 92t-104 31t-106.5 -29t-70.5 -86q-14 -39 -21 -111.5t-7 -169.5zM352 1171l144 355l155 -51l-200 -342z " />
<glyph unicode="&#xf4;" horiz-adv-x="897" d="M82 500q0 96 9 184t32 143q41 92 125 145.5t207 53.5q121 0 190.5 -48t110.5 -120q14 -25 24.5 -64.5t16.5 -88t9 -100.5t3 -99q0 -29 -2 -70t-7 -86t-11.5 -86t-14.5 -65q-18 -59 -54 -100.5t-82 -66t-98.5 -35.5t-107.5 -11q-117 0 -191.5 49t-111.5 127 q-27 55 -37 146t-10 192zM109 1198l288 299h103l272 -295l-76 -69l-256 204l-256 -207zM246 481q0 -68 3 -127t19 -100q23 -55 66 -86t108 -31q63 0 111.5 31t71.5 98q10 29 14 97.5t4 152.5q0 72 -4 136.5t-16 101.5q-23 61 -68 92t-104 31t-106.5 -29t-70.5 -86 q-14 -39 -21 -111.5t-7 -169.5z" />
<glyph unicode="&#xf5;" horiz-adv-x="897" d="M82 500q0 96 9 184t32 143q41 92 125 145.5t207 53.5q121 0 190.5 -48t110.5 -120q14 -25 24.5 -64.5t16.5 -88t9 -100.5t3 -99q0 -29 -2 -70t-7 -86t-11.5 -86t-14.5 -65q-18 -59 -54 -100.5t-82 -66t-98.5 -35.5t-107.5 -11q-117 0 -191.5 49t-111.5 127 q-27 55 -37 146t-10 192zM115 1243q35 70 88 119t112 49q33 0 66 -13.5t63.5 -29.5t61.5 -29.5t59 -13.5q55 0 117 86l92 -57q-41 -84 -93 -126t-108 -42q-35 0 -67.5 13t-64 28.5t-61.5 29t-56 13.5q-31 0 -58.5 -18.5t-60.5 -59.5zM246 481q0 -68 3 -127t19 -100 q23 -55 66 -86t108 -31q63 0 111.5 31t71.5 98q10 29 14 97.5t4 152.5q0 72 -4 136.5t-16 101.5q-23 61 -68 92t-104 31t-106.5 -29t-70.5 -86q-14 -39 -21 -111.5t-7 -169.5z" />
<glyph unicode="&#xf6;" horiz-adv-x="897" d="M82 500q0 96 9 184t32 143q41 92 125 145.5t207 53.5q121 0 190.5 -48t110.5 -120q14 -25 24.5 -64.5t16.5 -88t9 -100.5t3 -99q0 -29 -2 -70t-7 -86t-11.5 -86t-14.5 -65q-18 -59 -54 -100.5t-82 -66t-98.5 -35.5t-107.5 -11q-117 0 -191.5 49t-111.5 127 q-27 55 -37 146t-10 192zM190 1214v172h162v-172h-162zM246 481q0 -68 3 -127t19 -100q23 -55 66 -86t108 -31q63 0 111.5 31t71.5 98q10 29 14 97.5t4 152.5q0 72 -4 136.5t-16 101.5q-23 61 -68 92t-104 31t-106.5 -29t-70.5 -86q-14 -39 -21 -111.5t-7 -169.5zM532 1214 v172h160v-172h-160z" />
<glyph unicode="&#xf7;" horiz-adv-x="901" d="M39 539v127h831v-127h-831zM344 256q0 47 33 79t80 32q45 0 77.5 -32t32.5 -79t-32.5 -80t-77.5 -33q-47 0 -80 33t-33 80zM344 948q0 47 33 80t80 33q45 0 77.5 -33t32.5 -80t-32.5 -79.5t-77.5 -32.5q-47 0 -80 32.5t-33 79.5z" />
<glyph unicode="&#xf8;" horiz-adv-x="897" d="M82 51l59 88l-12 23q-27 55 -37 146t-10 192q0 96 9 184t32 143q41 92 125 145.5t207 53.5q74 0 131 -21.5t98 -56.5l57 84l72 -53l-68 -100l13 -21q14 -27 24.5 -66.5t16.5 -88t8 -99.5t2 -98q0 -29 -2 -70t-7 -86t-11.5 -86t-14.5 -65q-18 -59 -54 -100.5t-82 -66 t-98.5 -35.5t-107.5 -11q-78 0 -136 21.5t-99 60.5l-47 -70zM246 481q0 -47 1 -92t7 -82l338 504q-25 33 -61.5 49.5t-79.5 16.5q-59 0 -105.5 -29t-71.5 -86q-16 -37 -22 -110.5t-6 -170.5zM291 209q49 -72 151 -72q63 0 111.5 31t71.5 98q10 29 14 97.5t4 152.5 q0 53 -2 104.5t-8 90.5z" />
<glyph unicode="&#xf9;" horiz-adv-x="905" d="M94 295v717h166v-662q0 -92 50 -146t136 -54q84 0 135.5 55t51.5 149v658h164v-1012h-164v109h-6q-43 -61 -107.5 -91t-136.5 -30q-61 0 -114.5 21.5t-91.5 61.5t-60.5 96t-22.5 128zM233 1475l156 51l143 -355l-98 -38z" />
<glyph unicode="&#xfa;" horiz-adv-x="905" d="M94 295v717h166v-662q0 -92 50 -146t136 -54q84 0 135.5 55t51.5 149v658h164v-1012h-164v109h-6q-43 -61 -107.5 -91t-136.5 -30q-61 0 -114.5 21.5t-91.5 61.5t-60.5 96t-22.5 128zM362 1171l144 355l156 -51l-201 -342z" />
<glyph unicode="&#xfb;" horiz-adv-x="905" d="M94 295v717h166v-662q0 -92 50 -146t136 -54q84 0 135.5 55t51.5 149v658h164v-1012h-164v109h-6q-43 -61 -107.5 -91t-136.5 -30q-61 0 -114.5 21.5t-91.5 61.5t-60.5 96t-22.5 128zM109 1198l288 299h103l272 -295l-76 -69l-256 204l-256 -207z" />
<glyph unicode="&#xfc;" horiz-adv-x="905" d="M94 295v717h166v-662q0 -92 50 -146t136 -54q84 0 135.5 55t51.5 149v658h164v-1012h-164v109h-6q-43 -61 -107.5 -91t-136.5 -30q-61 0 -114.5 21.5t-91.5 61.5t-60.5 96t-22.5 128zM184 1214v172h162v-172h-162zM526 1214v172h160v-172h-160z" />
<glyph unicode="&#xfd;" horiz-adv-x="786" d="M2 1014h176l125 -406l96 -342h7l90 342l118 406h172l-364 -1217q-33 -109 -100.5 -160t-163.5 -51h-54v144h50q96 0 131 145l43 150zM342 1171l143 355l156 -51l-201 -342z" />
<glyph unicode="&#xfe;" horiz-adv-x="884" d="M90 -410v1846h166v-516q2 0 2 -1t2 -1q45 57 102.5 82.5t129.5 25.5q100 0 159.5 -42t92 -112.5t43 -165t10.5 -196.5q0 -96 -11.5 -189.5t-46 -167t-98 -118.5t-166.5 -45q-127 0 -215 100h-4v-500h-166zM254 481q0 -55 5 -112.5t23.5 -105.5t55.5 -78.5t100 -30.5 t100 28.5t57.5 76.5t27 111.5t6.5 135.5q0 74 -6.5 139.5t-25.5 114.5t-56 78.5t-101 29.5q-74 0 -112.5 -37.5t-55 -95t-17.5 -126t-1 -128.5z" />
<glyph unicode="&#xff;" horiz-adv-x="786" d="M2 1014h176l125 -406l96 -342h7l90 342l118 406h172l-364 -1217q-33 -109 -100.5 -160t-163.5 -51h-54v144h50q96 0 131 145l43 150zM150 1214v172h161v-172h-161zM492 1214v172h159v-172h-159z" />
<glyph unicode="&#x100;" horiz-adv-x="1017" d="M18 0l414 1425h154l415 -1425h-176l-90 324h-454l-88 -324h-175zM252 1563v153h508v-153h-508zM319 477h377l-104 369l-80 315h-8l-80 -313z" />
<glyph unicode="&#x101;" horiz-adv-x="872" d="M94 285q0 135 84 224t268 89h187v125q0 70 -46 108.5t-136 38.5q-59 0 -111.5 -21.5t-75.5 -74.5q-33 18 -64.5 37.5t-64.5 40.5q41 84 126 129t190 45q72 0 135 -15.5t111 -50t76 -93t28 -146.5v-721h-168v74l-8 4q-35 -45 -97.5 -67.5t-142.5 -22.5q-74 0 -129 23.5 t-91 64.5t-53.5 95t-17.5 114zM205 1204v154h508v-154h-508zM252 295q0 -68 45 -110t137 -42q86 0 142.5 39t56.5 135v140h-199q-80 0 -131 -38t-51 -124z" />
<glyph unicode="&#x102;" horiz-adv-x="1017" d="M18 0l414 1425h154l415 -1425h-176l-90 324h-454l-88 -324h-175zM225 1794h142q2 -20 12 -42.5t28.5 -42t44 -32t56.5 -12.5q35 0 61.5 12.5t45 32t27.5 42t9 42.5h137q-4 -41 -19 -86t-47 -83t-84 -63.5t-130 -25.5q-80 0 -133 25.5t-86 63.5t-48.5 83t-15.5 86z M319 477h377l-104 369l-80 315h-8l-80 -313z" />
<glyph unicode="&#x103;" horiz-adv-x="872" d="M94 285q0 135 84 224t268 89h187v125q0 70 -46 108.5t-136 38.5q-59 0 -111.5 -21.5t-75.5 -74.5q-33 18 -64.5 37.5t-64.5 40.5q41 84 126 129t190 45q72 0 135 -15.5t111 -50t76 -93t28 -146.5v-721h-168v74l-8 4q-35 -45 -97.5 -67.5t-142.5 -22.5q-74 0 -129 23.5 t-91 64.5t-53.5 95t-17.5 114zM156 1432h141q2 -20 12 -43t28.5 -42.5t44.5 -31.5t56 -12q35 0 61.5 12t45 31.5t28 42t9.5 43.5h137q-4 -41 -19.5 -86.5t-47 -83t-84 -63t-130.5 -25.5q-80 0 -133 25.5t-86 63t-48 83t-15 86.5zM252 295q0 -68 45 -110t137 -42 q86 0 142.5 39t56.5 135v140h-199q-80 0 -131 -38t-51 -124z" />
<glyph unicode="&#x104;" horiz-adv-x="1017" d="M18 0l414 1425h154l415 -1425h-55q-63 -90 -63 -158q0 -43 25.5 -66.5t72.5 -23.5q45 0 117 33l41 -102q-41 -23 -90.5 -37.5t-100.5 -14.5q-88 0 -143 53.5t-55 127.5q0 41 17 87t58 103l-90 322h-454l-88 -324h-175zM319 477h377l-104 369l-80 315h-8l-80 -313z" />
<glyph unicode="&#x105;" horiz-adv-x="872" d="M94 285q0 135 84 224t268 89h187v125q0 70 -46 108.5t-136 38.5q-59 0 -111.5 -21.5t-75.5 -74.5q-33 18 -64.5 37.5t-64.5 40.5q41 84 126 129t190 45q72 0 135 -15.5t111 -50t76 -93t28 -146.5v-721h-68q-63 -88 -63 -156q0 -43 25.5 -66.5t72.5 -23.5q45 0 117 33 l41 -102q-41 -23 -90.5 -37.5t-100.5 -14.5q-88 0 -143 53.5t-55 127.5q0 41 18 89t61 107h17v64l-8 4q-35 -45 -97.5 -67.5t-142.5 -22.5q-74 0 -129 23.5t-91 64.5t-53.5 95t-17.5 114zM252 295q0 -68 45 -110t137 -42q86 0 142.5 39t56.5 135v140h-199q-80 0 -131 -38 t-51 -124z" />
<glyph unicode="&#x106;" horiz-adv-x="960" d="M102 414v598q0 90 28 167.5t81 134t131 89.5t176 33q145 0 250.5 -72t144.5 -201l-161 -63q-20 78 -79 125t-155 47q-59 0 -105 -21.5t-77 -56.5t-47.5 -82t-16.5 -96v-606q0 -51 16.5 -98.5t47.5 -83t77 -57t105 -21.5q92 0 152.5 47t81.5 127l161 -60 q-37 -135 -142 -205.5t-253 -70.5q-96 0 -174 31.5t-131 88t-82 134t-29 172.5zM367 1569l297 241l110 -120l-340 -201z" />
<glyph unicode="&#x107;" horiz-adv-x="788" d="M63 528q0 227 92.5 362.5t288.5 135.5q111 0 190 -50t120 -136l-136 -84q-23 53 -67.5 82.5t-104.5 29.5q-68 0 -110.5 -26.5t-66 -72.5t-32 -108.5t-8.5 -136.5t8.5 -142.5t32 -121.5t65.5 -85t109 -32q61 0 105 32t67 73q35 -20 70 -37.5t70 -38.5q-41 -86 -121 -135 t-191 -49q-115 0 -188.5 39t-116.5 109.5t-59.5 171t-16.5 220.5zM338 1171l143 355l156 -51l-201 -342z" />
<glyph unicode="&#x108;" horiz-adv-x="960" d="M102 414v598q0 90 28 167.5t81 134t131 89.5t176 33q145 0 250.5 -72t144.5 -201l-161 -63q-20 78 -79 125t-155 47q-59 0 -105 -21.5t-77 -56.5t-47.5 -82t-16.5 -96v-606q0 -51 16.5 -98.5t47.5 -83t77 -57t105 -21.5q92 0 152.5 47t81.5 127l161 -60 q-37 -135 -142 -205.5t-253 -70.5q-96 0 -174 31.5t-131 88t-82 134t-29 172.5zM182 1569l287 252h102l273 -248l-66 -72l-266 164l-266 -164z" />
<glyph unicode="&#x109;" horiz-adv-x="788" d="M63 528q0 227 92.5 362.5t288.5 135.5q111 0 190 -50t120 -136l-136 -84q-23 53 -67.5 82.5t-104.5 29.5q-68 0 -110.5 -26.5t-66 -72.5t-32 -108.5t-8.5 -136.5t8.5 -142.5t32 -121.5t65.5 -85t109 -32q61 0 105 32t67 73q35 -20 70 -37.5t70 -38.5q-41 -86 -121 -135 t-191 -49q-115 0 -188.5 39t-116.5 109.5t-59.5 171t-16.5 220.5zM109 1198l288 299h103l272 -295l-76 -69l-256 204l-256 -207z" />
<glyph unicode="&#x10a;" horiz-adv-x="960" d="M102 414v598q0 90 28 167.5t81 134t131 89.5t176 33q145 0 250.5 -72t144.5 -201l-161 -63q-20 78 -79 125t-155 47q-59 0 -105 -21.5t-77 -56.5t-47.5 -82t-16.5 -96v-606q0 -51 16.5 -98.5t47.5 -83t77 -57t105 -21.5q92 0 152.5 47t81.5 127l161 -60 q-37 -135 -142 -205.5t-253 -70.5q-96 0 -174 31.5t-131 88t-82 134t-29 172.5zM442 1563v172h160v-172h-160z" />
<glyph unicode="&#x10b;" horiz-adv-x="788" d="M63 528q0 227 92.5 362.5t288.5 135.5q111 0 190 -50t120 -136l-136 -84q-23 53 -67.5 82.5t-104.5 29.5q-68 0 -110.5 -26.5t-66 -72.5t-32 -108.5t-8.5 -136.5t8.5 -142.5t32 -121.5t65.5 -85t109 -32q61 0 105 32t67 73q35 -20 70 -37.5t70 -38.5q-41 -86 -121 -135 t-191 -49q-115 0 -188.5 39t-116.5 109.5t-59.5 171t-16.5 220.5zM354 1219v172h160v-172h-160z" />
<glyph unicode="&#x10c;" horiz-adv-x="960" d="M102 414v598q0 90 28 167.5t81 134t131 89.5t176 33q145 0 250.5 -72t144.5 -201l-161 -63q-20 78 -79 125t-155 47q-59 0 -105 -21.5t-77 -56.5t-47.5 -82t-16.5 -96v-606q0 -51 16.5 -98.5t47.5 -83t77 -57t105 -21.5q92 0 152.5 47t81.5 127l161 -60 q-37 -135 -142 -205.5t-253 -70.5q-96 0 -174 31.5t-131 88t-82 134t-29 172.5zM195 1759l63 68l266 -166l267 164l65 -70l-272 -250h-103z" />
<glyph unicode="&#x10d;" horiz-adv-x="788" d="M63 528q0 227 92.5 362.5t288.5 135.5q111 0 190 -50t120 -136l-136 -84q-23 53 -67.5 82.5t-104.5 29.5q-68 0 -110.5 -26.5t-66 -72.5t-32 -108.5t-8.5 -136.5t8.5 -142.5t32 -121.5t65.5 -85t109 -32q61 0 105 32t67 73q35 -20 70 -37.5t70 -38.5q-41 -86 -121 -135 t-191 -49q-115 0 -188.5 39t-116.5 109.5t-59.5 171t-16.5 220.5zM111 1436l75 67l256 -205l256 205l76 -71l-272 -295h-103z" />
<glyph unicode="&#x10e;" horiz-adv-x="1067" d="M131 0v1425h399q143 0 246 -52t152 -175q31 -82 34 -199.5t3 -273.5q0 -162 -2 -278.5t-33 -200.5q-29 -72 -72 -119t-98 -74.5t-121 -40t-135 -12.5h-373zM168 1759l63 68l267 -166l266 164l65 -70l-272 -250h-102zM303 160h211q152 0 215.5 81t63.5 224v491 q0 166 -72 239t-207 73h-211v-1108z" />
<glyph unicode="&#x10f;" horiz-adv-x="1060" d="M80 504q0 94 11 187t45 167t97.5 120t167.5 46q61 0 115.5 -22.5t99.5 -73.5h5v559h165v-1487h-165v94q-2 0 -2.5 1t-2.5 1q-45 -57 -102 -82.5t-129 -25.5q-100 0 -160.5 42t-92.5 112.5t-42 164.5t-10 197zM248 508q0 -74 6 -139.5t26.5 -114.5t57.5 -79t98 -30 q74 0 113 41t55.5 101.5t17.5 127t1 117.5q0 63 -6.5 122t-25 105t-55.5 73.5t-98 27.5q-63 0 -101 -28.5t-57.5 -76.5t-25.5 -112.5t-6 -134.5zM887 1081l63 183h-57v211h194v-207l-104 -187h-96z" />
<glyph unicode="&#x110;" horiz-adv-x="1067" d="M25 672v129h106v624h399q143 0 246 -52t152 -175q31 -82 34 -199.5t3 -273.5q0 -162 -2 -278.5t-33 -200.5q-29 -72 -72 -119t-98 -74.5t-121 -40t-135 -12.5h-373v672h-106zM303 160h211q152 0 215.5 81t63.5 224v491q0 166 -72 239t-207 73h-211v-467h158v-129h-158 v-512z" />
<glyph unicode="&#x111;" horiz-adv-x="886" d="M80 504q0 94 11 187t45 167t97.5 120t167.5 46q61 0 115.5 -22.5t99.5 -73.5h5v233h-232v117h232v209h165v-209h99v-117h-99v-1161h-165v94q-2 0 -2.5 1t-2.5 1q-45 -57 -102 -82.5t-129 -25.5q-100 0 -160.5 42t-92.5 112.5t-42 164.5t-10 197zM248 508q0 -74 6 -139.5 t26.5 -114.5t57.5 -79t98 -30q74 0 113 41t55.5 101.5t17.5 127t1 117.5q0 63 -6.5 122t-25 105t-55.5 73.5t-98 27.5q-63 0 -101 -28.5t-57.5 -76.5t-25.5 -112.5t-6 -134.5z" />
<glyph unicode="&#x112;" horiz-adv-x="931" d="M133 0v1425h756v-159h-586v-467h502v-154h-502v-479h586v-166h-756zM246 1563v153h508v-153h-508z" />
<glyph unicode="&#x113;" horiz-adv-x="868" d="M76 506q0 96 15 189t55 167t110 119t178 45q172 0 263 -109.5t91 -302.5v-157h-546q0 -68 8 -126.5t30.5 -101.5t63.5 -67.5t107 -24.5q55 0 101 35t75 82l135 -72q-41 -90 -122 -142t-183 -52t-174 28.5t-118 91t-67.5 161t-21.5 237.5zM205 1204v154h508v-154h-508z M246 590h379q0 139 -48.5 209.5t-140.5 70.5q-106 0 -146 -75.5t-44 -204.5z" />
<glyph unicode="&#x114;" horiz-adv-x="931" d="M133 0v1425h756v-159h-586v-467h502v-154h-502v-479h586v-166h-756zM219 1794h141q2 -20 12.5 -42.5t29 -42t44 -32t56.5 -12.5q35 0 61.5 12.5t45 32t27.5 42t9 42.5h137q-4 -41 -19 -86t-47 -83t-84 -63.5t-130 -25.5q-80 0 -133.5 25.5t-86 63.5t-48 83t-15.5 86z" />
<glyph unicode="&#x115;" horiz-adv-x="868" d="M76 506q0 96 15 189t55 167t110 119t178 45q172 0 263 -109.5t91 -302.5v-157h-546q0 -68 8 -126.5t30.5 -101.5t63.5 -67.5t107 -24.5q55 0 101 35t75 82l135 -72q-41 -90 -122 -142t-183 -52t-174 28.5t-118 91t-67.5 161t-21.5 237.5zM162 1432h141q2 -20 12.5 -43 t28.5 -42.5t44 -31.5t56 -12q35 0 61.5 12t45 31.5t28 42t9.5 43.5h137q-4 -41 -19.5 -86.5t-47 -83t-84 -63t-130.5 -25.5q-80 0 -133 25.5t-85.5 63t-48 83t-15.5 86.5zM246 590h379q0 139 -48.5 209.5t-140.5 70.5q-106 0 -146 -75.5t-44 -204.5z" />
<glyph unicode="&#x116;" horiz-adv-x="931" d="M133 0v1425h756v-159h-586v-467h502v-154h-502v-479h586v-166h-756zM406 1563v172h159v-172h-159z" />
<glyph unicode="&#x117;" horiz-adv-x="868" d="M76 506q0 96 15 189t55 167t110 119t178 45q172 0 263 -109.5t91 -302.5v-157h-546q0 -68 8 -126.5t30.5 -101.5t63.5 -67.5t107 -24.5q55 0 101 35t75 82l135 -72q-41 -90 -122 -142t-183 -52t-174 28.5t-118 91t-67.5 161t-21.5 237.5zM246 590h379q0 139 -48.5 209.5 t-140.5 70.5q-106 0 -146 -75.5t-44 -204.5zM358 1214v172h160v-172h-160z" />
<glyph unicode="&#x118;" horiz-adv-x="931" d="M133 0v1425h756v-159h-586v-467h502v-154h-502v-479h586v-166q-63 -90 -64 -158q0 -43 26 -66.5t73 -23.5q45 0 116 33l41 -102q-41 -23 -90 -37.5t-100 -14.5q-88 0 -143.5 53.5t-55.5 127.5q0 41 16.5 86t57.5 102h-633z" />
<glyph unicode="&#x119;" horiz-adv-x="868" d="M76 506q0 96 15 189t55 167t110 119t178 45q172 0 263 -109.5t91 -302.5v-157h-546q0 -68 8 -126.5t30.5 -101.5t63.5 -67.5t107 -24.5q55 0 101 35t75 82l135 -72q-20 -45 -57 -86q-47 -74 -48 -133q0 -43 26 -66.5t73 -23.5q45 0 116 33l41 -103q-41 -23 -90 -37 t-100 -14q-88 0 -143.5 53t-55.5 127q0 16 2 33t9 33q-41 -10 -78 -10q-102 0 -174 28.5t-118 91t-67.5 161t-21.5 237.5zM246 590h379q0 139 -48.5 209.5t-140.5 70.5q-106 0 -146 -75.5t-44 -204.5z" />
<glyph unicode="&#x11a;" horiz-adv-x="931" d="M133 0v1425h756v-159h-586v-467h502v-154h-502v-479h586v-166h-756zM160 1759l63 68l266 -166l267 164l65 -70l-272 -250h-103z" />
<glyph unicode="&#x11b;" horiz-adv-x="868" d="M76 506q0 96 15 189t55 167t110 119t178 45q172 0 263 -109.5t91 -302.5v-157h-546q0 -68 8 -126.5t30.5 -101.5t63.5 -67.5t107 -24.5q55 0 101 35t75 82l135 -72q-41 -90 -122 -142t-183 -52t-174 28.5t-118 91t-67.5 161t-21.5 237.5zM117 1432l76 67l256 -205 l256 205l75 -72l-272 -294h-102zM246 590h379q0 139 -48.5 209.5t-140.5 70.5q-106 0 -146 -75.5t-44 -204.5z" />
<glyph unicode="&#x11c;" horiz-adv-x="1036" d="M100 414v598q0 90 28 167.5t82 134t132 89.5t176 33q145 0 250.5 -72t144.5 -205l-163 -55q-20 76 -80 122t-152 46q-59 0 -105 -21.5t-78 -56.5t-48.5 -82t-16.5 -96v-613q0 -51 16.5 -98t48.5 -83t78 -57.5t105 -21.5q55 0 100.5 19.5t77 52.5t50 78t18.5 96v225h-234 v152h406v-367q0 -94 -32 -170.5t-87 -130t-132 -83t-167 -29.5q-98 0 -176 31.5t-131 88t-82 135t-29 173.5zM178 1569l287 252h102l273 -248l-66 -72l-266 164l-266 -164z" />
<glyph unicode="&#x11d;" horiz-adv-x="903" d="M80 498q0 98 9 193t40 170t92.5 120t165.5 45q72 0 129 -25.5t102 -82.5q2 0 2.5 1t2.5 1v94h165v-1022q0 -188 -89 -302t-281 -114q-98 0 -178 47t-121 133l137 80q23 -41 66 -72.5t102 -31.5q104 0 151.5 61.5t47.5 171.5v141h-5q-47 -63 -108 -89.5t-123 -26.5 q-104 0 -165.5 44t-92.5 114.5t-40 161.5t-9 188zM129 1198l289 299h102l273 -295l-76 -69l-256 204l-256 -207zM250 506q0 -82 6 -147.5t26.5 -110.5t55.5 -69.5t94 -24.5q61 0 99 27.5t58.5 73.5t28 104.5t7.5 121.5q0 59 -1 127t-17.5 125.5t-55.5 95t-113 37.5 q-66 0 -103.5 -28.5t-56 -77.5t-23.5 -114.5t-5 -139.5z" />
<glyph unicode="&#x11e;" horiz-adv-x="1036" d="M100 414v598q0 90 28 167.5t82 134t132 89.5t176 33q145 0 250.5 -72t144.5 -205l-163 -55q-20 76 -80 122t-152 46q-59 0 -105 -21.5t-78 -56.5t-48.5 -82t-16.5 -96v-613q0 -51 16.5 -98t48.5 -83t78 -57.5t105 -21.5q55 0 100.5 19.5t77 52.5t50 78t18.5 96v225h-234 v152h406v-367q0 -94 -32 -170.5t-87 -130t-132 -83t-167 -29.5q-98 0 -176 31.5t-131 88t-82 135t-29 173.5zM219 1794h141q2 -20 12.5 -42.5t29 -42t44 -32t56.5 -12.5q35 0 61.5 12.5t45 32t27.5 42t9 42.5h137q-4 -41 -19 -86t-47 -83t-84 -63.5t-130 -25.5 q-80 0 -133.5 25.5t-86 63.5t-48 83t-15.5 86z" />
<glyph unicode="&#x11f;" horiz-adv-x="903" d="M80 498q0 98 9 193t40 170t92.5 120t165.5 45q72 0 129 -25.5t102 -82.5q2 0 2.5 1t2.5 1v94h165v-1022q0 -188 -89 -302t-281 -114q-98 0 -178 47t-121 133l137 80q23 -41 66 -72.5t102 -31.5q104 0 151.5 61.5t47.5 171.5v141h-5q-47 -63 -108 -89.5t-123 -26.5 q-104 0 -165.5 44t-92.5 114.5t-40 161.5t-9 188zM176 1432h141q2 -20 12.5 -43t29 -42.5t44 -31.5t56.5 -12q35 0 61.5 12t45 31.5t27.5 42t9 43.5h137q-4 -41 -19 -86.5t-47 -83t-84 -63t-130 -25.5q-80 0 -133.5 25.5t-86 63t-48 83t-15.5 86.5zM250 506q0 -82 6 -147.5 t26.5 -110.5t55.5 -69.5t94 -24.5q61 0 99 27.5t58.5 73.5t28 104.5t7.5 121.5q0 59 -1 127t-17.5 125.5t-55.5 95t-113 37.5q-66 0 -103.5 -28.5t-56 -77.5t-23.5 -114.5t-5 -139.5z" />
<glyph unicode="&#x120;" horiz-adv-x="1036" d="M100 414v598q0 90 28 167.5t82 134t132 89.5t176 33q145 0 250.5 -72t144.5 -205l-163 -55q-20 76 -80 122t-152 46q-59 0 -105 -21.5t-78 -56.5t-48.5 -82t-16.5 -96v-613q0 -51 16.5 -98t48.5 -83t78 -57.5t105 -21.5q55 0 100.5 19.5t77 52.5t50 78t18.5 96v225h-234 v152h406v-367q0 -94 -32 -170.5t-87 -130t-132 -83t-167 -29.5q-98 0 -176 31.5t-131 88t-82 135t-29 173.5zM440 1563v172h160v-172h-160z" />
<glyph unicode="&#x121;" horiz-adv-x="903" d="M80 498q0 98 9 193t40 170t92.5 120t165.5 45q72 0 129 -25.5t102 -82.5q2 0 2.5 1t2.5 1v94h165v-1022q0 -188 -89 -302t-281 -114q-98 0 -178 47t-121 133l137 80q23 -41 66 -72.5t102 -31.5q104 0 151.5 61.5t47.5 171.5v141h-5q-47 -63 -108 -89.5t-123 -26.5 q-104 0 -165.5 44t-92.5 114.5t-40 161.5t-9 188zM250 506q0 -82 6 -147.5t26.5 -110.5t55.5 -69.5t94 -24.5q61 0 99 27.5t58.5 73.5t28 104.5t7.5 121.5q0 59 -1 127t-17.5 125.5t-55.5 95t-113 37.5q-66 0 -103.5 -28.5t-56 -77.5t-23.5 -114.5t-5 -139.5zM344 1214v172 h160v-172h-160z" />
<glyph unicode="&#x122;" horiz-adv-x="1036" d="M100 414v598q0 90 28 167.5t82 134t132 89.5t176 33q145 0 250.5 -72t144.5 -205l-163 -55q-20 76 -80 122t-152 46q-59 0 -105 -21.5t-78 -56.5t-48.5 -82t-16.5 -96v-613q0 -51 16.5 -98t48.5 -83t78 -57.5t105 -21.5q55 0 100.5 19.5t77 52.5t50 78t18.5 96v225h-234 v152h406v-367q0 -94 -32 -170.5t-87 -130t-132 -83t-167 -29.5q-98 0 -176 31.5t-131 88t-82 135t-29 173.5zM416 -520l63 182h-57v211h194v-207l-104 -186h-96z" />
<glyph unicode="&#x123;" horiz-adv-x="903" d="M80 498q0 98 9 193t40 170t92.5 120t165.5 45q72 0 129 -25.5t102 -82.5q2 0 2.5 1t2.5 1v94h165v-1022q0 -188 -89 -302t-281 -114q-98 0 -178 47t-121 133l137 80q23 -41 66 -72.5t102 -31.5q104 0 151.5 61.5t47.5 171.5v141h-5q-47 -63 -108 -89.5t-123 -26.5 q-104 0 -165.5 44t-92.5 114.5t-40 161.5t-9 188zM250 506q0 -82 6 -147.5t26.5 -110.5t55.5 -69.5t94 -24.5q61 0 99 27.5t58.5 73.5t28 104.5t7.5 121.5q0 59 -1 127t-17.5 125.5t-55.5 95t-113 37.5q-66 0 -103.5 -28.5t-56 -77.5t-23.5 -114.5t-5 -139.5zM334 1176v208 l92 168h96l-45 -163h51v-213h-194z" />
<glyph unicode="&#x124;" horiz-adv-x="1089" d="M133 0v1425h170v-626h481v626h172v-1425h-172v649h-481v-649h-170zM203 1569l286 252h103l272 -248l-65 -72l-267 164l-266 -164z" />
<glyph unicode="&#x125;" horiz-adv-x="897" d="M-152 1569l287 252h103l272 -248l-66 -72l-266 164l-266 -164zM96 0v1487h166v-588h6q43 59 106.5 92t137.5 33q61 0 113.5 -20.5t90.5 -60.5t60.5 -96t22.5 -130v-717h-166v662q0 92 -46 145t-138 53q-86 0 -137.5 -53t-51.5 -150v-657h-164z" />
<glyph unicode="&#x126;" horiz-adv-x="1089" d="M33 1096v123h100v206h170v-206h481v206h172v-206h101v-123h-101v-1096h-172v649h-481v-649h-170v1096h-100zM303 799h481v297h-481v-297z" />
<glyph unicode="&#x127;" horiz-adv-x="897" d="M0 1194v127h96v166h166v-166h373v-127h-373v-295h6q43 59 106.5 92t137.5 33q61 0 113.5 -20.5t90.5 -60.5t60.5 -96t22.5 -130v-717h-166v662q0 92 -46 145t-138 53q-86 0 -137.5 -53t-51.5 -150v-657h-164v1194h-96z" />
<glyph unicode="&#x128;" horiz-adv-x="577" d="M-41 1591q35 70 88.5 119t112.5 49q33 0 65.5 -13t63 -29.5t61.5 -30t60 -13.5q55 0 116 86l92 -57q-41 -84 -93 -126t-107 -42q-35 0 -68 13.5t-64.5 28.5t-61 28.5t-56.5 13.5q-31 0 -58.5 -18.5t-60.5 -59.5zM203 0v1425h172v-1425h-172z" />
<glyph unicode="&#x129;" horiz-adv-x="577" d="M-41 1243q35 70 88.5 119t112.5 49q33 0 65.5 -13.5t63 -29.5t61.5 -29.5t60 -13.5q55 0 116 86l92 -57q-41 -84 -93 -126t-107 -42q-35 0 -68 13t-64.5 28.5t-61 29t-56.5 13.5q-31 0 -58.5 -18.5t-60.5 -59.5zM209 0v1014h166v-1014h-166z" />
<glyph unicode="&#x12a;" horiz-adv-x="444" d="M-27 1563v153h508v-153h-508zM135 0v1425h172v-1425h-172z" />
<glyph unicode="&#x12b;" horiz-adv-x="425" d="M-41 1204v154h508v-154h-508zM133 0v1014h166v-1014h-166z" />
<glyph unicode="&#x12c;" horiz-adv-x="606" d="M20 1804h142q2 -20 12 -42.5t28.5 -42t44 -32t56.5 -12.5q35 0 61.5 12.5t45 32t27.5 42t9 42.5h138q-4 -41 -19.5 -86t-47.5 -83t-84 -63.5t-130 -25.5q-80 0 -133 25.5t-86 63.5t-48.5 83t-15.5 86zM219 0v1425h172v-1425h-172z" />
<glyph unicode="&#x12d;" horiz-adv-x="481" d="M-41 1444h141q2 -20 12.5 -43t29 -42.5t44 -31.5t56.5 -12q35 0 61.5 12t45 31.5t27.5 42t9 43.5h137q-4 -41 -19.5 -86t-47 -83t-84 -63.5t-129.5 -25.5q-80 0 -133.5 25.5t-86 63.5t-48 83t-15.5 86zM168 0v1014h166v-1014h-166z" />
<glyph unicode="&#x12e;" horiz-adv-x="444" d="M80 -188q0 41 16.5 86t57.5 102h-19v1425h172v-1425h-31q-63 -90 -63 -158q0 -43 25.5 -66.5t72.5 -23.5q45 0 117 33l41 -102q-41 -23 -90 -37.5t-100 -14.5q-88 0 -143.5 53.5t-55.5 127.5z" />
<glyph unicode="&#x12f;" horiz-adv-x="403" d="M72 -186q0 41 16 86t55 100h-24v1014h166v-1014h-17q-63 -88 -63 -156q0 -43 25.5 -66.5t72.5 -23.5q45 0 117 33l41 -102q-41 -23 -90 -37.5t-101 -14.5q-88 0 -143 53.5t-55 127.5zM119 1260v165h166v-165h-166z" />
<glyph unicode="&#x130;" horiz-adv-x="444" d="M135 0v1425h172v-1425h-172zM143 1563v172h160v-172h-160z" />
<glyph unicode="&#x131;" horiz-adv-x="403" d="M119 0v1014h166v-1014h-166z" />
<glyph unicode="&#x132;" horiz-adv-x="1253" d="M131 0v1425h172v-1425h-172zM418 131l133 102q29 -35 74 -59t96 -24q94 0 158.5 51t64.5 174v1050h172v-1052q0 -104 -30.5 -177t-85 -119t-125 -67.5t-150.5 -21.5q-98 0 -177 37.5t-130 105.5z" />
<glyph unicode="&#x133;" horiz-adv-x="868" d="M119 0v1014h166v-1014h-166zM119 1260v165h166v-165h-166zM414 -266q4 0 20.5 -1t18.5 1q63 2 90.5 42t27.5 111v1127h166v-1164q0 -57 -16 -106t-50 -86t-84 -57.5t-118 -20.5h-55v154zM571 1260v165h166v-165h-166z" />
<glyph unicode="&#x134;" horiz-adv-x="831" d="M-4 133l133 103q29 -35 74 -59.5t96 -24.5q94 0 158.5 51t64.5 174v1050h172v-1052q0 -104 -30.5 -177t-85 -119t-125 -67.5t-150.5 -21.5q-98 0 -177 38t-130 105zM274 1573l287 252h103l272 -248l-66 -72l-266 164l-266 -164z" />
<glyph unicode="&#x135;" horiz-adv-x="581" d="M-41 1198l289 299h102l273 -295l-76 -69l-256 204l-256 -207zM51 -266q4 0 20.5 -1t18.5 1q63 2 91 42t28 111v1127h166v-1164q0 -57 -16.5 -106t-50.5 -86t-84 -57.5t-118 -20.5h-55v154z" />
<glyph unicode="&#x136;" horiz-adv-x="1056" d="M131 0v1425h172v-747q2 0 3 1t3 1q121 190 244 373.5t246 371.5h186q-92 -141 -183 -277t-184 -278l420 -870h-188l-340 707q-53 -76 -103.5 -153t-103.5 -151v-403h-172zM434 -479l64 182h-58v211h195v-207l-105 -186h-96z" />
<glyph unicode="&#x137;" horiz-adv-x="901" d="M113 0v1487h166v-963h4l360 490h191l-289 -387l346 -627h-184l-269 494l-159 -222v-272h-166zM373 -520l63 182h-57v211h194v-207l-104 -186h-96z" />
<glyph unicode="&#x138;" horiz-adv-x="890" d="M113 0v1014h166v-490h4l358 490h193l-289 -389l340 -625h-185l-262 494l-159 -226v-268h-166z" />
<glyph unicode="&#x139;" horiz-adv-x="905" d="M133 0v1425h170v-1259h569v-166h-739zM145 1569l297 241l111 -120l-340 -201z" />
<glyph unicode="&#x13a;" horiz-adv-x="464" d="M121 236v1251h166v-1225q0 -57 22.5 -86t79.5 -29h35v-153h-45q-121 0 -190.5 51t-67.5 191zM121 1589l297 242l110 -121l-340 -201z" />
<glyph unicode="&#x13b;" horiz-adv-x="905" d="M133 0v1425h170v-1259h569v-166h-739zM373 -520l63 182h-57v211h194v-207l-104 -186h-96z" />
<glyph unicode="&#x13c;" horiz-adv-x="464" d="M121 236v1251h166v-1225q0 -57 22.5 -86t79.5 -29h35v-153h-45q-121 0 -190.5 51t-67.5 191zM139 -504l64 182h-58v211h195v-206l-104 -187h-97z" />
<glyph unicode="&#x13d;" horiz-adv-x="905" d="M133 0v1425h170v-1259h569v-166h-739zM526 1024l64 182h-58v211h195v-207l-104 -186h-97z" />
<glyph unicode="&#x13e;" horiz-adv-x="569" d="M121 236v1251h166v-1225q0 -57 22.5 -86t79.5 -29h35v-153h-45q-121 0 -190.5 51t-67.5 191zM385 1083l64 183h-58v211h195v-207l-105 -187h-96z" />
<glyph unicode="&#x13f;" horiz-adv-x="905" d="M133 0v1425h170v-1259h569v-166h-739zM604 629v172h160v-172h-160z" />
<glyph unicode="&#x140;" horiz-adv-x="550" d="M121 236v1251h166v-1225q0 -57 22.5 -86t79.5 -29h35v-153h-45q-121 0 -190.5 51t-67.5 191zM410 684v172h159v-172h-159z" />
<glyph unicode="&#x141;" horiz-adv-x="935" d="M0 539l164 94v792h170v-694l233 135l58 -102l-291 -168v-430h569v-166h-739v498l-105 -60z" />
<glyph unicode="&#x142;" horiz-adv-x="542" d="M18 600l168 98v789h166v-692l133 77l58 -102l-191 -111v-397q0 -57 22.5 -86t80.5 -29h34v-153h-45q-121 0 -190.5 51t-67.5 191v327l-108 -63z" />
<glyph unicode="&#x143;" horiz-adv-x="1150" d="M129 0v1425h166l399 -739l152 -293l8 2v1030h170v-1425h-164l-407 750l-146 284h-6v-1034h-172zM473 1569l297 241l111 -120l-340 -201z" />
<glyph unicode="&#x144;" horiz-adv-x="892" d="M94 0v1014h166v-113h6q43 59 106.5 91t137.5 32q61 0 113.5 -21.5t90.5 -61.5t60.5 -96.5t22.5 -127.5v-717h-166v662q0 92 -47 144t-140 52q-84 0 -135 -54t-51 -147v-657h-164zM317 1171l144 355l155 -51l-200 -342z" />
<glyph unicode="&#x145;" horiz-adv-x="1150" d="M129 0v1425h166l399 -739l152 -293l8 2v1030h170v-1425h-164l-407 750l-146 284h-6v-1034h-172zM455 -479l63 182h-57v211h194v-207l-104 -186h-96z" />
<glyph unicode="&#x146;" horiz-adv-x="892" d="M94 0v1014h166v-113h6q43 59 106.5 91t137.5 32q61 0 113.5 -21.5t90.5 -61.5t60.5 -96.5t22.5 -127.5v-717h-166v662q0 92 -47 144t-140 52q-84 0 -135 -54t-51 -147v-657h-164zM342 -520l64 182h-58v211h195v-207l-105 -186h-96z" />
<glyph unicode="&#x147;" horiz-adv-x="1150" d="M129 0v1425h166l399 -739l152 -293l8 2v1030h170v-1425h-164l-407 750l-146 284h-6v-1034h-172zM256 1759l63 68l267 -166l266 164l66 -70l-273 -250h-102z" />
<glyph unicode="&#x148;" horiz-adv-x="892" d="M90 1432l76 67l256 -205l256 205l76 -72l-273 -294h-102zM94 0v1014h166v-113h6q43 59 106.5 91t137.5 32q61 0 113.5 -21.5t90.5 -61.5t60.5 -96.5t22.5 -127.5v-717h-166v662q0 92 -47 144t-140 52q-84 0 -135 -54t-51 -147v-657h-164z" />
<glyph unicode="&#x149;" horiz-adv-x="976" d="M-20 969l63 182h-57v211h194v-207l-104 -186h-96zM178 0v1014h166v-113h6q43 59 106.5 91t137.5 32q61 0 113.5 -21.5t90.5 -61.5t60.5 -96.5t22.5 -127.5v-717h-166v662q0 92 -47 144t-140 52q-84 0 -135 -54t-51 -147v-657h-164z" />
<glyph unicode="&#x14a;" horiz-adv-x="1150" d="M129 0v1425h166l399 -749l152 -301l8 2v1048h170v-1556q0 -117 -54.5 -166t-142.5 -49q-37 0 -72.5 7t-80.5 28l39 116q23 -6 44 -10t38 -4q31 0 47 17.5t16 64.5v135l-405 752l-146 284h-6v-1044h-172z" />
<glyph unicode="&#x14b;" horiz-adv-x="892" d="M94 0v1014h166v-113h6q43 59 108.5 91t139.5 32q127 0 205 -82t78 -225v-848q0 -117 -54.5 -166t-142.5 -49q-37 0 -72.5 7t-81.5 28l39 116q23 -6 44.5 -10t37.5 -4q31 0 47.5 17.5t16.5 64.5v789q0 92 -42 144t-140 52q-84 0 -137.5 -56.5t-53.5 -148.5v-653h-164z" />
<glyph unicode="&#x14c;" horiz-adv-x="1017" d="M90 440v572q0 72 22.5 147.5t71.5 137t129 100.5t195 39q109 0 187.5 -37t130 -97.5t76 -136t24.5 -153.5v-596q0 -98 -31 -177t-86 -135.5t-132 -86t-169 -29.5q-113 0 -192.5 36.5t-130 99t-73 144.5t-22.5 172zM250 1563v153h508v-153h-508zM258 1006l2 -564 q0 -61 13.5 -115.5t44 -94t78.5 -63.5t116 -24q49 0 93 17.5t76 50.5t51.5 80t19.5 106v611q0 33 -11.5 78t-39 85.5t-74.5 70.5t-121 30t-121 -27.5t-75.5 -67.5t-40 -87.5t-11.5 -85.5z" />
<glyph unicode="&#x14d;" horiz-adv-x="897" d="M82 500q0 96 9 184t32 143q41 92 125 145.5t207 53.5q121 0 190.5 -48t110.5 -120q14 -25 24.5 -64.5t16.5 -88t9 -100.5t3 -99q0 -29 -2 -70t-7 -86t-11.5 -86t-14.5 -65q-18 -59 -54 -100.5t-82 -66t-98.5 -35.5t-107.5 -11q-117 0 -191.5 49t-111.5 127 q-27 55 -37 146t-10 192zM205 1204v154h508v-154h-508zM246 481q0 -68 3 -127t19 -100q23 -55 66 -86t108 -31q63 0 111.5 31t71.5 98q10 29 14 97.5t4 152.5q0 72 -4 136.5t-16 101.5q-23 61 -68 92t-104 31t-106.5 -29t-70.5 -86q-14 -39 -21 -111.5t-7 -169.5z" />
<glyph unicode="&#x14e;" horiz-adv-x="1017" d="M90 440v572q0 72 22.5 147.5t71.5 137t129 100.5t195 39q109 0 187.5 -37t130 -97.5t76 -136t24.5 -153.5v-596q0 -98 -31 -177t-86 -135.5t-132 -86t-169 -29.5q-113 0 -192.5 36.5t-130 99t-73 144.5t-22.5 172zM229 1794h142q2 -20 12 -42.5t28.5 -42t44 -32 t56.5 -12.5q35 0 61.5 12.5t45 32t27.5 42t9 42.5h138q-4 -41 -19.5 -86t-47.5 -83t-84 -63.5t-130 -25.5q-80 0 -133 25.5t-86 63.5t-48.5 83t-15.5 86zM258 1006l2 -564q0 -61 13.5 -115.5t44 -94t78.5 -63.5t116 -24q49 0 93 17.5t76 50.5t51.5 80t19.5 106v611 q0 33 -11.5 78t-39 85.5t-74.5 70.5t-121 30t-121 -27.5t-75.5 -67.5t-40 -87.5t-11.5 -85.5z" />
<glyph unicode="&#x14f;" horiz-adv-x="897" d="M82 500q0 96 9 184t32 143q41 92 125 145.5t207 53.5q121 0 190.5 -48t110.5 -120q14 -25 24.5 -64.5t16.5 -88t9 -100.5t3 -99q0 -29 -2 -70t-7 -86t-11.5 -86t-14.5 -65q-18 -59 -54 -100.5t-82 -66t-98.5 -35.5t-107.5 -11q-117 0 -191.5 49t-111.5 127 q-27 55 -37 146t-10 192zM164 1432h141q2 -20 12.5 -43t29 -42.5t44 -31.5t55.5 -12q35 0 62 12t45 31.5t27.5 42t9.5 43.5h137q-4 -41 -19.5 -86.5t-47 -83t-84 -63t-130.5 -25.5q-80 0 -133 25.5t-85.5 63t-48 83t-15.5 86.5zM246 481q0 -68 3 -127t19 -100q23 -55 66 -86 t108 -31q63 0 111.5 31t71.5 98q10 29 14 97.5t4 152.5q0 72 -4 136.5t-16 101.5q-23 61 -68 92t-104 31t-106.5 -29t-70.5 -86q-14 -39 -21 -111.5t-7 -169.5z" />
<glyph unicode="&#x150;" horiz-adv-x="1017" d="M90 440v572q0 72 22.5 147.5t71.5 137t129 100.5t195 39q109 0 187.5 -37t130 -97.5t76 -136t24.5 -153.5v-596q0 -98 -31 -177t-86 -135.5t-132 -86t-169 -29.5q-113 0 -192.5 36.5t-130 99t-73 144.5t-22.5 172zM215 1571l297 239l111 -120l-340 -199zM258 1006l2 -564 q0 -61 13.5 -115.5t44 -94t78.5 -63.5t116 -24q49 0 93 17.5t76 50.5t51.5 80t19.5 106v611q0 33 -11.5 78t-39 85.5t-74.5 70.5t-121 30t-121 -27.5t-75.5 -67.5t-40 -87.5t-11.5 -85.5zM567 1571l297 239l111 -120l-340 -199z" />
<glyph unicode="&#x151;" horiz-adv-x="897" d="M82 500q0 96 9 184t32 143q41 92 125 145.5t207 53.5q121 0 190.5 -48t110.5 -120q14 -25 24.5 -64.5t16.5 -88t9 -100.5t3 -99q0 -29 -2 -70t-7 -86t-11.5 -86t-14.5 -65q-18 -59 -54 -100.5t-82 -66t-98.5 -35.5t-107.5 -11q-117 0 -191.5 49t-111.5 127 q-27 55 -37 146t-10 192zM246 481q0 -68 3 -127t19 -100q23 -55 66 -86t108 -31q63 0 111.5 31t71.5 98q10 29 14 97.5t4 152.5q0 72 -4 136.5t-16 101.5q-23 61 -68 92t-104 31t-106.5 -29t-70.5 -86q-14 -39 -21 -111.5t-7 -169.5zM268 1171l144 355l155 -51l-200 -342z M532 1171l144 355l155 -51l-200 -342z" />
<glyph unicode="&#x152;" horiz-adv-x="1462" d="M90 436v580q0 72 22.5 146.5t71.5 135t129 99.5t195 39q29 0 54.5 -3t49.5 -8h756v-159h-586v-467h502v-154h-502v-479h586v-166h-747q-53 -12 -113 -12q-113 0 -192.5 36.5t-130 98t-73 142.5t-22.5 171zM260 438q0 -61 13.5 -114.5t42 -92t76.5 -61.5t116 -23 q53 0 104 23v1083q-47 20 -104 21q-70 0 -117 -24.5t-76.5 -62.5t-42 -83t-12.5 -84v-582z" />
<glyph unicode="&#x153;" horiz-adv-x="1437" d="M82 500q0 96 9 184t32 143q41 92 125 145.5t207 53.5q98 0 166.5 -36t113.5 -95q41 59 105.5 95t163.5 36q172 0 263 -109.5t91 -302.5v-157h-547q0 -68 8 -126.5t30.5 -101.5t63.5 -67.5t107 -24.5q55 0 101 35t75 82l135 -72q-41 -90 -122 -142t-183 -52 q-106 0 -180 30.5t-121 98.5q-51 -72 -129 -101.5t-164 -29.5q-117 0 -191.5 49t-111.5 127q-27 55 -37 146t-10 192zM246 481q0 -68 3 -127t19 -100q23 -55 66 -86t108 -31q63 0 111.5 35t71.5 102q10 29 14 93.5t4 148.5q0 72 -4 136.5t-16 101.5q-23 61 -68 92t-104 31 t-105.5 -29t-71.5 -86q-16 -37 -22 -110.5t-6 -170.5zM815 590h379q0 139 -48 209.5t-140 70.5q-106 0 -146.5 -75.5t-44.5 -204.5z" />
<glyph unicode="&#x154;" horiz-adv-x="1036" d="M133 0v1425h447q174 0 274 -103t100 -294q0 -135 -60 -232.5t-185 -144.5l258 -651h-187l-237 627h-240v-627h-170zM303 776h250q115 0 172 67.5t57 184.5q0 119 -56 180.5t-177 61.5h-246v-494zM338 1569l297 241l110 -120l-339 -201z" />
<glyph unicode="&#x155;" horiz-adv-x="636" d="M121 0v1012h164v-121h6q47 80 106.5 107.5t141.5 27.5q59 -4 92 -22l-37 -179q-49 23 -100 23q-94 0 -151.5 -52.5t-57.5 -166.5v-629h-164zM272 1171l144 355l155 -51l-200 -342z" />
<glyph unicode="&#x156;" horiz-adv-x="1036" d="M133 0v1425h447q174 0 274 -103t100 -294q0 -135 -60 -232.5t-185 -144.5l258 -651h-187l-237 627h-240v-627h-170zM303 776h250q115 0 172 67.5t57 184.5q0 119 -56 180.5t-177 61.5h-246v-494zM414 -479l63 182h-57v211h194v-207l-104 -186h-96z" />
<glyph unicode="&#x157;" horiz-adv-x="636" d="M94 -520l64 182h-58v211h195v-207l-105 -186h-96zM121 0v1012h164v-121h6q47 80 106.5 107.5t141.5 27.5q59 -4 92 -22l-37 -179q-49 23 -100 23q-94 0 -151.5 -52.5t-57.5 -166.5v-629h-164z" />
<glyph unicode="&#x158;" horiz-adv-x="1036" d="M133 0v1425h447q174 0 274 -103t100 -294q0 -135 -60 -232.5t-185 -144.5l258 -651h-187l-237 627h-240v-627h-170zM156 1759l63 68l266 -166l267 164l65 -70l-272 -250h-103zM303 776h250q115 0 172 67.5t57 184.5q0 119 -56 180.5t-177 61.5h-246v-494z" />
<glyph unicode="&#x159;" horiz-adv-x="636" d="M-12 1432l75 67l256 -205l256 205l76 -72l-272 -294h-103zM121 0v1012h164v-121h6q47 80 106.5 107.5t141.5 27.5q59 -4 92 -22l-37 -179q-49 23 -100 23q-94 0 -151.5 -52.5t-57.5 -166.5v-629h-164z" />
<glyph unicode="&#x15a;" horiz-adv-x="978" d="M45 238l152 88q41 -72 110.5 -123t179.5 -51q131 0 188.5 67.5t57.5 169.5q0 57 -17.5 97t-50 69t-79.5 50.5t-105 39.5q-106 33 -181 69t-122 83t-68.5 107.5t-21.5 142.5q0 86 28.5 157.5t83 123.5t130.5 81t170 29q158 0 254 -56.5t143 -142.5l-145 -100 q-41 72 -102.5 103.5t-157.5 31.5q-119 0 -174.5 -65.5t-55.5 -161.5q0 -55 24.5 -94.5t67.5 -67t100.5 -49t125.5 -41.5q92 -29 155.5 -66t101 -86t55 -111.5t17.5 -142.5q0 -186 -111.5 -294.5t-312.5 -108.5q-166 0 -276.5 67.5t-163.5 184.5zM387 1569l297 241l111 -120 l-340 -201z" />
<glyph unicode="&#x15b;" horiz-adv-x="829" d="M55 201l135 78q33 -66 87.5 -103t136.5 -37q86 0 134 36t48 116q0 39 -14.5 63.5t-40 41t-60.5 27.5t-75 23q-74 18 -133.5 42t-102.5 58t-65.5 80t-22.5 111q0 135 88 212t242 77q137 0 213.5 -51t111.5 -144l-129 -79q-59 123 -198 122q-92 0 -128 -41.5t-36 -95.5 q0 -35 18.5 -57.5t50 -37.5t73.5 -27.5t87 -24.5q72 -16 125 -40t89 -59.5t53.5 -85t17.5 -118.5q0 -137 -92.5 -219t-257.5 -82q-131 0 -219.5 55t-135.5 160zM307 1171l144 355l155 -51l-200 -342z" />
<glyph unicode="&#x15c;" horiz-adv-x="978" d="M45 238l152 88q41 -72 110.5 -123t179.5 -51q131 0 188.5 67.5t57.5 169.5q0 57 -17.5 97t-50 69t-79.5 50.5t-105 39.5q-106 33 -181 69t-122 83t-68.5 107.5t-21.5 142.5q0 86 28.5 157.5t83 123.5t130.5 81t170 29q158 0 254 -56.5t143 -142.5l-145 -100 q-41 72 -102.5 103.5t-157.5 31.5q-119 0 -174.5 -65.5t-55.5 -161.5q0 -55 24.5 -94.5t67.5 -67t100.5 -49t125.5 -41.5q92 -29 155.5 -66t101 -86t55 -111.5t17.5 -142.5q0 -186 -111.5 -294.5t-312.5 -108.5q-166 0 -276.5 67.5t-163.5 184.5zM162 1569l287 252h102 l272 -248l-65 -72l-266 164l-267 -164z" />
<glyph unicode="&#x15d;" horiz-adv-x="829" d="M55 201l135 78q33 -66 87.5 -103t136.5 -37q86 0 134 36t48 116q0 39 -14.5 63.5t-40 41t-60.5 27.5t-75 23q-74 18 -133.5 42t-102.5 58t-65.5 80t-22.5 111q0 135 88 212t242 77q137 0 213.5 -51t111.5 -144l-129 -79q-59 123 -198 122q-92 0 -128 -41.5t-36 -95.5 q0 -35 18.5 -57.5t50 -37.5t73.5 -27.5t87 -24.5q72 -16 125 -40t89 -59.5t53.5 -85t17.5 -118.5q0 -137 -92.5 -219t-257.5 -82q-131 0 -219.5 55t-135.5 160zM86 1198l289 299h102l273 -295l-76 -69l-256 204l-256 -207z" />
<glyph unicode="&#x15e;" horiz-adv-x="978" d="M45 238l152 88q41 -72 110.5 -123t179.5 -51q131 0 188.5 67.5t57.5 169.5q0 57 -17.5 97t-50 69t-79.5 50.5t-105 39.5q-106 33 -181 69t-122 83t-68.5 107.5t-21.5 142.5q0 86 28.5 157.5t83 123.5t130.5 81t170 29q158 0 254 -56.5t143 -142.5l-145 -100 q-41 72 -102.5 103.5t-157.5 31.5q-119 0 -174.5 -65.5t-55.5 -161.5q0 -55 24.5 -94.5t67.5 -67t100.5 -49t125.5 -41.5q92 -29 155.5 -66t101 -86t55 -111.5t17.5 -142.5q0 -174 -98 -280.5t-276 -120.5l-25 -84q53 -4 88 -20.5t56.5 -41t29.5 -51.5t8 -51 q0 -25 -10 -53.5t-32.5 -52t-59.5 -39t-88 -15.5h-28.5t-46.5 3t-54.5 10.5t-53.5 19.5l29 76q39 -18 75 -22.5t64 -4.5q35 0 63 20.5t28 55.5q0 41 -32 65.5t-100 20.5l-36 31l39 133q-150 8 -251.5 73.5t-152.5 176.5z" />
<glyph unicode="&#x15f;" horiz-adv-x="829" d="M55 201l135 78q33 -66 87.5 -103t136.5 -37q86 0 134 36t48 116q0 39 -14.5 63.5t-40 41t-60.5 27.5t-75 23q-74 18 -133.5 42t-102.5 58t-65.5 80t-22.5 111q0 135 88 212t242 77q137 0 213.5 -51t111.5 -144l-129 -79q-59 123 -198 122q-92 0 -128 -41.5t-36 -95.5 q0 -35 18.5 -57.5t50 -37.5t73.5 -27.5t87 -24.5q72 -16 125 -40t89 -59.5t53.5 -85t17.5 -118.5q0 -129 -83 -209t-231 -90l-24 -84q53 -4 88 -20.5t56.5 -41t29.5 -51.5t8 -51q0 -25 -10 -53.5t-32.5 -52t-59.5 -39t-88 -15.5h-28.5t-46.5 3t-54.5 10.5t-53.5 19.5l29 76 q39 -18 75 -22.5t64 -4.5q35 0 62.5 20.5t27.5 55.5q0 41 -31.5 65.5t-99.5 20.5l-36 31l38 133q-217 18 -305 213z" />
<glyph unicode="&#x160;" horiz-adv-x="978" d="M45 238l152 88q41 -72 110.5 -123t179.5 -51q131 0 188.5 67.5t57.5 169.5q0 57 -17.5 97t-50 69t-79.5 50.5t-105 39.5q-106 33 -181 69t-122 83t-68.5 107.5t-21.5 142.5q0 86 28.5 157.5t83 123.5t130.5 81t170 29q158 0 254 -56.5t143 -142.5l-145 -100 q-41 72 -102.5 103.5t-157.5 31.5q-119 0 -174.5 -65.5t-55.5 -161.5q0 -55 24.5 -94.5t67.5 -67t100.5 -49t125.5 -41.5q92 -29 155.5 -66t101 -86t55 -111.5t17.5 -142.5q0 -186 -111.5 -294.5t-312.5 -108.5q-166 0 -276.5 67.5t-163.5 184.5zM133 1759l64 68l266 -166 l266 164l66 -70l-273 -250h-102z" />
<glyph unicode="&#x161;" horiz-adv-x="829" d="M55 201l135 78q33 -66 87.5 -103t136.5 -37q86 0 134 36t48 116q0 39 -14.5 63.5t-40 41t-60.5 27.5t-75 23q-74 18 -133.5 42t-102.5 58t-65.5 80t-22.5 111q0 135 88 212t242 77q137 0 213.5 -51t111.5 -144l-129 -79q-59 123 -198 122q-92 0 -128 -41.5t-36 -95.5 q0 -35 18.5 -57.5t50 -37.5t73.5 -27.5t87 -24.5q72 -16 125 -40t89 -59.5t53.5 -85t17.5 -118.5q0 -137 -92.5 -219t-257.5 -82q-131 0 -219.5 55t-135.5 160zM61 1432l76 67l256 -205l256 205l76 -72l-272 -294h-103z" />
<glyph unicode="&#x162;" horiz-adv-x="825" d="M2 1270v155h821v-155h-325v-1270h-170v1270h-326zM315 -520l64 182h-57v211h194v-207l-104 -186h-97z" />
<glyph unicode="&#x163;" horiz-adv-x="509" d="M33 879v135h112v260h166v-260h144v-135h-144v-600q0 -63 24.5 -95t80.5 -32h55v-152h-92q-117 0 -175.5 66.5t-58.5 164.5v648h-112zM158 -520l63 182h-57v211h194v-207l-104 -186h-96z" />
<glyph unicode="&#x164;" horiz-adv-x="825" d="M2 1270v155h821v-155h-325v-1270h-170v1270h-326zM86 1759l64 68l266 -166l266 164l66 -70l-273 -250h-102z" />
<glyph unicode="&#x165;" horiz-adv-x="606" d="M33 879v135h112v260h166v-260h144v-135h-144v-600q0 -63 24.5 -95t80.5 -32h55v-152h-92q-117 0 -175.5 66.5t-58.5 164.5v648h-112zM422 1137l63 182h-57v211h195v-207l-105 -186h-96z" />
<glyph unicode="&#x166;" horiz-adv-x="825" d="M2 1270v155h821v-155h-325v-467h252v-144h-252v-659h-170v659h-250v144h250v467h-326z" />
<glyph unicode="&#x167;" horiz-adv-x="509" d="M33 551v129h112v199h-112v135h112v260h166v-260h144v-135h-144v-199h144v-129h-144v-272q0 -63 24.5 -95t80.5 -32h55v-152h-92q-117 0 -175.5 66.5t-58.5 164.5v320h-112z" />
<glyph unicode="&#x168;" horiz-adv-x="1062" d="M115 414v1011h170v-1017q0 -51 17 -97.5t49 -82t78 -57t103 -21.5q109 0 177.5 68.5t68.5 189.5v1017h172v-1011q0 -98 -30.5 -177t-86 -134.5t-132 -85t-169.5 -29.5q-98 0 -174.5 31.5t-131 88t-83 135.5t-28.5 171zM197 1591q35 70 88 119t112 49q33 0 66 -13 t63.5 -29.5t61 -30t59.5 -13.5q55 0 117 86l92 -57q-41 -84 -93 -126t-108 -42q-35 0 -67.5 13.5t-64 28.5t-61.5 28.5t-56 13.5q-31 0 -59 -18.5t-60 -59.5z" />
<glyph unicode="&#x169;" horiz-adv-x="905" d="M94 295v717h166v-662q0 -92 50 -146t136 -54q84 0 135.5 55t51.5 149v658h164v-1012h-164v109h-6q-43 -61 -107.5 -91t-136.5 -30q-61 0 -114.5 21.5t-91.5 61.5t-60.5 96t-22.5 128zM104 1243q35 70 88.5 119t112.5 49q33 0 65.5 -13.5t63.5 -29.5t61.5 -29.5 t59.5 -13.5q55 0 117 86l92 -57q-41 -84 -93.5 -126t-107.5 -42q-35 0 -67.5 13t-64.5 28.5t-61.5 29t-56.5 13.5q-31 0 -58.5 -18.5t-59.5 -59.5z" />
<glyph unicode="&#x16a;" horiz-adv-x="1062" d="M115 414v1011h170v-1017q0 -51 17 -97.5t49 -82t78 -57t103 -21.5q109 0 177.5 68.5t68.5 189.5v1017h172v-1011q0 -98 -30.5 -177t-86 -134.5t-132 -85t-169.5 -29.5q-98 0 -174.5 31.5t-131 88t-83 135.5t-28.5 171zM287 1563v153h508v-153h-508z" />
<glyph unicode="&#x16b;" horiz-adv-x="905" d="M94 295v717h166v-662q0 -92 50 -146t136 -54q84 0 135.5 55t51.5 149v658h164v-1012h-164v109h-6q-43 -61 -107.5 -91t-136.5 -30q-61 0 -114.5 21.5t-91.5 61.5t-60.5 96t-22.5 128zM199 1204v154h508v-154h-508z" />
<glyph unicode="&#x16c;" horiz-adv-x="1062" d="M115 414v1011h170v-1017q0 -51 17 -97.5t49 -82t78 -57t103 -21.5q109 0 177.5 68.5t68.5 189.5v1017h172v-1011q0 -98 -30.5 -177t-86 -134.5t-132 -85t-169.5 -29.5q-98 0 -174.5 31.5t-131 88t-83 135.5t-28.5 171zM262 1739h141q2 -20 12.5 -43t29 -42.5t44 -31.5 t56.5 -12q35 0 61.5 12t45 31.5t27.5 42t9 43.5h137q-4 -41 -19 -86t-47 -83t-84 -63.5t-130 -25.5q-80 0 -133.5 25.5t-86 63.5t-48 83t-15.5 86z" />
<glyph unicode="&#x16d;" horiz-adv-x="905" d="M94 295v717h166v-662q0 -92 50 -146t136 -54q84 0 135.5 55t51.5 149v658h164v-1012h-164v109h-6q-43 -61 -107.5 -91t-136.5 -30q-61 0 -114.5 21.5t-91.5 61.5t-60.5 96t-22.5 128zM180 1432h142q2 -20 12 -43t28.5 -42.5t44 -31.5t56.5 -12q35 0 61.5 12t45 31.5 t27.5 42t9 43.5h137q-4 -41 -19 -86.5t-47 -83t-84 -63t-130 -25.5q-80 0 -133.5 25.5t-86 63t-48 83t-15.5 86.5z" />
<glyph unicode="&#x16e;" horiz-adv-x="1062" d="M115 414v1011h170v-1017q0 -51 17 -97.5t49 -82t78 -57t103 -21.5q109 0 177.5 68.5t68.5 189.5v1017h172v-1011q0 -98 -30.5 -177t-86 -134.5t-132 -85t-169.5 -29.5q-98 0 -174.5 31.5t-131 88t-83 135.5t-28.5 171zM354 1632q0 37 14.5 69t39 55.5t57.5 37.5t72 14 q35 0 66.5 -14t55 -37.5t38 -55.5t14.5 -69q0 -72 -51 -122t-123 -50q-78 0 -130.5 50.5t-52.5 121.5zM440 1632q0 -37 28 -62.5t69 -25.5q37 0 63.5 25.5t26.5 62.5q0 39 -26.5 65.5t-63.5 26.5q-41 0 -69 -26.5t-28 -65.5z" />
<glyph unicode="&#x16f;" horiz-adv-x="905" d="M94 295v717h166v-662q0 -92 50 -146t136 -54q84 0 135.5 55t51.5 149v658h164v-1012h-164v109h-6q-43 -61 -107.5 -91t-136.5 -30q-61 0 -114.5 21.5t-91.5 61.5t-60.5 96t-22.5 128zM281 1300q0 37 14 69t38.5 55.5t57.5 38t72 14.5q35 0 66.5 -14.5t55 -38t38 -55.5 t14.5 -69q0 -72 -51 -122t-123 -50q-78 0 -130 50.5t-52 121.5zM367 1300q0 -37 27.5 -62.5t68.5 -25.5q37 0 63.5 26t26.5 62q0 39 -26.5 66t-63.5 27q-41 0 -68.5 -27t-27.5 -66z" />
<glyph unicode="&#x170;" horiz-adv-x="1062" d="M115 414v1011h170v-1017q0 -51 17 -97.5t49 -82t78 -57t103 -21.5q109 0 177.5 68.5t68.5 189.5v1017h172v-1011q0 -98 -30.5 -177t-86 -134.5t-132 -85t-169.5 -29.5q-98 0 -174.5 31.5t-131 88t-83 135.5t-28.5 171zM258 1571l297 239l111 -120l-340 -199zM610 1571 l297 239l111 -120l-340 -199z" />
<glyph unicode="&#x171;" horiz-adv-x="905" d="M94 295v717h166v-662q0 -92 50 -146t136 -54q84 0 135.5 55t51.5 149v658h164v-1012h-164v109h-6q-43 -61 -107.5 -91t-136.5 -30q-61 0 -114.5 21.5t-91.5 61.5t-60.5 96t-22.5 128zM254 1171l143 355l156 -51l-201 -342zM518 1171l144 355l155 -51l-201 -342z" />
<glyph unicode="&#x172;" horiz-adv-x="1062" d="M115 414v1011h170v-1017q0 -51 17 -97.5t49 -82t78 -57t103 -21.5q109 0 177.5 68.5t68.5 189.5v1017h172v-1011q0 -90 -25.5 -165t-73.5 -129t-114.5 -87t-146.5 -41q-55 -84 -55 -146q0 -43 25.5 -66.5t72.5 -23.5q45 0 117 33l41 -102q-41 -23 -90.5 -37.5 t-100.5 -14.5q-88 0 -143.5 53.5t-55.5 127.5q0 39 15.5 81t50.5 95q-166 20 -259 135t-93 287z" />
<glyph unicode="&#x173;" horiz-adv-x="905" d="M94 295v717h166v-662q0 -92 50 -146t136 -54q84 0 135.5 55t51.5 149v658h164v-1012h-43q-61 -90 -62 -154q0 -43 25.5 -66.5t73.5 -23.5q45 0 116 33l41 -102q-41 -23 -90 -37.5t-100 -14.5q-88 0 -143.5 53.5t-55.5 127.5q0 41 16.5 86t57.5 100v107h-6 q-43 -61 -107.5 -91t-136.5 -30q-61 0 -114.5 21.5t-91.5 61.5t-60.5 96t-22.5 128z" />
<glyph unicode="&#x174;" horiz-adv-x="1437" d="M39 1425h178l119 -653l65 -405h7l86 399l153 659h146l153 -661l86 -397h6l64 397l117 661h180l-283 -1425h-151l-160 692l-84 391h-6l-82 -383l-160 -700h-151zM385 1569l287 252h102l273 -248l-66 -72l-266 164l-266 -164z" />
<glyph unicode="&#x175;" horiz-adv-x="1300" d="M16 1014h177q35 -135 66.5 -268.5t64.5 -268.5l49 -209h8l51 207q33 133 68 267.5t69 271.5h162q35 -131 66.5 -262t64.5 -263l56 -231h8l51 221q33 135 62.5 267.5t62.5 267.5h178l-276 -1014h-162q-33 123 -67 245t-64 247l-64 235h-4q-16 -66 -32.5 -132.5 t-32.5 -129.5l-123 -465h-164zM315 1198l289 299h103l272 -295l-76 -69l-256 204l-256 -207z" />
<glyph unicode="&#x176;" horiz-adv-x="905" d="M14 1425h181q37 -92 75.5 -184t75.5 -184q25 -61 50.5 -133t47.5 -133h13l104 274l148 360h178l-352 -831v-594h-166v594zM117 1569l286 252h103l272 -248l-65 -72l-267 164l-266 -164z" />
<glyph unicode="&#x177;" horiz-adv-x="786" d="M2 1014h176l125 -406l96 -342h7l90 342l118 406h172l-364 -1217q-33 -109 -100.5 -160t-163.5 -51h-54v144h50q96 0 131 145l43 150zM55 1198l289 299h102l273 -295l-76 -69l-256 204l-256 -207z" />
<glyph unicode="&#x178;" horiz-adv-x="905" d="M14 1425h181q37 -92 75.5 -184t75.5 -184q25 -61 50.5 -133t47.5 -133h13l104 274l148 360h178l-352 -831v-594h-166v594zM201 1532v172h161v-172h-161zM543 1532v172h159v-172h-159z" />
<glyph unicode="&#x179;" horiz-adv-x="845" d="M55 0v158l555 1112h-532v155h717v-147l-555 -1116h553v-162h-738zM317 1569l297 241l111 -120l-340 -201z" />
<glyph unicode="&#x17a;" horiz-adv-x="757" d="M59 0v145l455 721h-426v146h612v-142l-452 -714h452v-156h-641zM317 1171l144 355l155 -51l-200 -342z" />
<glyph unicode="&#x17b;" horiz-adv-x="845" d="M55 0v158l555 1112h-532v155h717v-147l-555 -1116h553v-162h-738zM377 1563v172h160v-172h-160z" />
<glyph unicode="&#x17c;" horiz-adv-x="757" d="M59 0v145l455 721h-426v146h612v-142l-452 -714h452v-156h-641zM336 1214v172h160v-172h-160z" />
<glyph unicode="&#x17d;" horiz-adv-x="845" d="M55 0v158l555 1112h-532v155h717v-147l-555 -1116h553v-162h-738zM104 1759l64 68l266 -166l266 164l66 -70l-272 -250h-103z" />
<glyph unicode="&#x17e;" horiz-adv-x="757" d="M55 1432l76 67l256 -205l256 205l76 -72l-273 -294h-102zM59 0v145l455 721h-426v146h612v-142l-452 -714h452v-156h-641z" />
<glyph unicode="&#x192;" horiz-adv-x="901" d="M-2 -147q12 41 22.5 66.5t24.5 64.5q31 -12 58.5 -17.5t50.5 -5.5q78 0 111.5 70.5t49.5 199.5l64 486h-160v141h180l23 166q8 70 28.5 142.5t58.5 131t99.5 95.5t151.5 37q41 0 79 -7.5t66 -19.5q-10 -41 -18 -75t-17 -75q-27 10 -59.5 15.5t-58.5 5.5q-41 0 -71 -19.5 t-49.5 -51.5t-30.5 -76t-17 -93l-25 -176h193v-141h-211l-64 -484q-12 -98 -32.5 -174.5t-56.5 -131t-88 -83t-128 -28.5q-39 0 -87 10t-87 27z" />
<glyph unicode="&#x1a0;" horiz-adv-x="1060" d="M90 440v572q0 72 22.5 147.5t71.5 137t129 100.5t195 39q94 0 164.5 -29t122.5 -76q66 6 90 46t24 141v69h150v-76q0 -129 -41 -204.5t-133 -102.5q41 -94 41 -192v-596q0 -98 -31 -177t-86 -135.5t-132 -86t-169 -29.5q-113 0 -192.5 36.5t-130 99t-73 144.5t-22.5 172z M258 1006l2 -564q0 -61 13.5 -115.5t44 -94t78.5 -63.5t116 -24q49 0 93 17.5t76 50.5t51.5 80t19.5 106v611q0 33 -11.5 78t-39 85.5t-74.5 70.5t-121 30t-121 -27.5t-75.5 -67.5t-40 -87.5t-11.5 -85.5z" />
<glyph unicode="&#x1a1;" horiz-adv-x="970" d="M82 500q0 96 9 184t32 143q41 92 125 145.5t207 53.5q88 0 147.5 -26.5t99.5 -69.5q70 4 96.5 44t26.5 142v68h150v-74q0 -137 -46 -215t-151 -100q16 -59 23.5 -138t7.5 -151q0 -29 -2 -70t-7 -86t-11.5 -86t-14.5 -65q-18 -59 -54 -100.5t-82 -66t-98.5 -35.5 t-107.5 -11q-117 0 -191.5 49t-111.5 127q-27 55 -37 146t-10 192zM246 481q0 -68 3 -127t19 -100q23 -55 66 -86t108 -31q63 0 111.5 31t71.5 98q10 29 14 97.5t4 152.5q0 72 -4 136.5t-16 101.5q-23 61 -68 92t-104 31t-106.5 -29t-70.5 -86q-14 -39 -21 -111.5t-7 -169.5 z" />
<glyph unicode="&#x1af;" horiz-adv-x="1155" d="M115 414v1011h170v-1017q0 -51 17 -97.5t49 -82t78 -57t103 -21.5q109 0 177.5 68.5t68.5 189.5v1017h172v-92q59 6 83 47t24 140v67h149v-76q0 -154 -59.5 -232.5t-196.5 -88.5v-776q0 -98 -30.5 -177t-86 -134.5t-132 -85t-169.5 -29.5q-98 0 -174.5 31.5t-131 88 t-83 135.5t-28.5 171z" />
<glyph unicode="&#x1b0;" horiz-adv-x="1036" d="M94 295v717h166v-662q0 -92 50 -146t136 -54q84 0 135.5 55t51.5 149v658h164v-80q59 6 83.5 46t24.5 138v68h150v-74q0 -156 -59.5 -235.5t-198.5 -88.5v-786h-164v109h-6q-43 -61 -107.5 -91t-136.5 -30q-61 0 -114.5 21.5t-91.5 61.5t-60.5 96t-22.5 128z" />
<glyph unicode="&#x1fc;" horiz-adv-x="1640" d="M14 0q178 358 354.5 712.5t356.5 712.5h842v-159h-586v-467h502v-154h-502v-481h586v-164h-758v395h-422l-197 -395h-176zM463 549h346v715h-2zM971 1569l297 241l110 -120l-340 -201z" />
<glyph unicode="&#x1fd;" horiz-adv-x="1413" d="M74 285q0 135 84 224t268 89h186v125q0 70 -46 108.5t-136 38.5q-59 0 -111.5 -21.5t-74.5 -74.5q-33 18 -65 37.5t-64 40.5q41 84 126 129t189 45q92 0 170 -25.5t125 -87.5q41 53 102.5 83t151.5 30q172 0 263 -109.5t91 -302.5v-157h-547q0 -68 8.5 -126.5t31 -101.5 t63.5 -67.5t106 -24.5q55 0 102.5 28t76.5 75l131 -72q-41 -90 -121 -135t-183 -45q-113 0 -187.5 33.5t-121.5 109.5q-45 -49 -90 -77.5t-87 -43t-81 -18.5t-69 -4q-74 0 -129.5 23.5t-91 64.5t-53 95t-17.5 114zM231 295q0 -68 45.5 -110t137.5 -42q86 0 142 39t56 135 v140h-198q-80 0 -131.5 -38t-51.5 -124zM645 1171l143 355l156 -51l-201 -342zM791 590h378q0 139 -48 209.5t-140 70.5q-106 0 -146 -75.5t-44 -204.5z" />
<glyph unicode="&#x1fe;" horiz-adv-x="1017" d="M80 43l72 131q-33 57 -47.5 125t-14.5 141v572q0 72 22.5 147.5t71.5 137t129 100.5t195 39q94 0 164.5 -29t122.5 -76l57 105l80 -50l-74 -131q35 -55 51.5 -117.5t16.5 -125.5v-596q0 -98 -31 -177t-86 -135.5t-132 -86t-169 -29.5q-98 0 -172 28.5t-123 77.5l-57 -102 zM258 1006l2 -564v-34.5t4 -32.5l441 794q-29 43 -76 74t-123 31q-74 0 -121 -27.5t-75.5 -67.5t-40 -87.5t-11.5 -85.5zM301 254q29 -51 81 -80t130 -29q49 0 93 17.5t76 50.5t51.5 80t19.5 106v611q0 10 -1 21t-3 24zM358 1569l297 241l111 -120l-340 -201z" />
<glyph unicode="&#x1ff;" horiz-adv-x="897" d="M82 51l59 88l-12 23q-27 55 -37 146t-10 192q0 96 9 184t32 143q41 92 125 145.5t207 53.5q78 0 133 -21.5t96 -58.5l57 86l72 -53l-70 -102l13 -19q14 -25 24.5 -64.5t16.5 -88t9 -100.5t3 -99q0 -29 -2 -70t-7 -86t-11.5 -86t-14.5 -65q-18 -59 -54 -100.5t-82 -66 t-98.5 -35.5t-107.5 -11q-78 0 -136 21.5t-99 60.5l-47 -70zM246 481q0 -47 1 -92t7 -82l338 504q-25 33 -61.5 49.5t-79.5 16.5q-59 0 -106.5 -29t-70.5 -86q-14 -39 -21 -111.5t-7 -169.5zM291 209q49 -72 151 -72q63 0 111.5 31t71.5 98q10 29 14 97.5t4 152.5 q0 53 -2 104.5t-8 90.5zM358 1171l144 355l155 -51l-200 -342z" />
<glyph unicode="&#x218;" horiz-adv-x="976" d="M45 238l152 88q41 -72 110.5 -123t179.5 -51q131 0 188.5 67.5t57.5 169.5q0 57 -17.5 97t-50 69t-79.5 50.5t-105 39.5q-106 33 -181 69t-122 83t-68.5 107.5t-21.5 142.5q0 86 28.5 157.5t83 123.5t130.5 81t170 29q158 0 254 -56.5t143 -142.5l-145 -100 q-41 72 -102.5 103.5t-157.5 31.5q-119 0 -174.5 -65.5t-55.5 -161.5q0 -55 24.5 -94.5t67.5 -67t100.5 -49t125.5 -41.5q92 -29 155.5 -66t101 -86t55 -111.5t17.5 -142.5q0 -186 -111.5 -294.5t-312.5 -108.5q-166 0 -276.5 67.5t-163.5 184.5zM365 -520l63 182h-57v211 h194v-207l-104 -186h-96z" />
<glyph unicode="&#x219;" horiz-adv-x="829" d="M55 201l135 78q33 -66 87.5 -103t136.5 -37q86 0 134 36t48 116q0 39 -14.5 63.5t-40 41t-60.5 27.5t-75 23q-74 18 -133.5 42t-102.5 58t-65.5 80t-22.5 111q0 135 88 212t242 77q137 0 213.5 -51t111.5 -144l-129 -79q-59 123 -198 122q-92 0 -128 -41.5t-36 -95.5 q0 -35 18.5 -57.5t50 -37.5t73.5 -27.5t87 -24.5q72 -16 125 -40t89 -59.5t53.5 -85t17.5 -118.5q0 -137 -92.5 -219t-257.5 -82q-131 0 -219.5 55t-135.5 160zM285 -520l63 182h-57v211h194v-207l-104 -186h-96z" />
<glyph unicode="&#x259;" horiz-adv-x="858" d="M68 401v158h546q0 68 -8 126t-30.5 101t-63.5 68t-106 25q-55 0 -101.5 -35t-75.5 -82l-135 72q41 90 128 142t190 52q193 0 280.5 -120t87.5 -398q0 -96 -15 -189.5t-55 -167t-110 -118.5t-178 -45q-172 0 -263 109.5t-91 301.5zM231 426q0 -139 48.5 -210t140.5 -71 q106 0 146 76t44 205h-379z" />
<glyph unicode="&#x2b9;" horiz-adv-x="512" d="M96 864l203 557l190 -49l-282 -545z" />
<glyph unicode="&#x2c6;" horiz-adv-x="1005" d="M180 1198l289 299h102l273 -295l-76 -69l-256 204l-256 -207z" />
<glyph unicode="&#x2c7;" horiz-adv-x="872" d="M117 1432l76 67l256 -205l256 205l75 -72l-272 -294h-102z" />
<glyph unicode="&#x2d8;" horiz-adv-x="872" d="M176 1432h141q2 -20 12.5 -43t29 -42.5t44 -31.5t56.5 -12q35 0 61.5 12t45 31.5t27.5 42t9 43.5h137q-4 -41 -19 -86.5t-47 -83t-84 -63t-130 -25.5q-80 0 -133.5 25.5t-86 63t-48 83t-15.5 86.5z" />
<glyph unicode="&#x2d9;" horiz-adv-x="872" d="M387 1214v172h160v-172h-160z" />
<glyph unicode="&#x2da;" horiz-adv-x="872" d="M289 1300q0 37 14 69t39 55.5t57.5 38t71.5 14.5q35 0 66.5 -14.5t55 -38t38 -55.5t14.5 -69q0 -72 -51 -122t-123 -50q-78 0 -130 50.5t-52 121.5zM375 1300q0 -37 27.5 -62.5t68.5 -25.5q37 0 63.5 26t26.5 62q0 39 -26.5 66t-63.5 27q-41 0 -68.5 -27t-27.5 -66z" />
<glyph unicode="&#x2db;" horiz-adv-x="575" d="M121 -188q0 41 18.5 89t61.5 107h118l3 -4q-68 -96 -68 -162q0 -43 25.5 -66.5t72.5 -23.5q45 0 117 33l41 -102q-41 -23 -90 -37.5t-101 -14.5q-88 0 -143 53.5t-55 127.5z" />
<glyph unicode="&#x2dc;" horiz-adv-x="874" d="M109 1243q35 70 88 119t112 49q33 0 66 -13.5t63.5 -29.5t61 -29.5t59.5 -13.5q55 0 117 86l92 -57q-41 -84 -93 -126t-108 -42q-35 0 -67.5 13t-64.5 28.5t-61.5 29t-56.5 13.5q-31 0 -58.5 -18.5t-59.5 -59.5z" />
<glyph unicode="&#x2dd;" horiz-adv-x="872" d="M266 1171l144 355l155 -51l-200 -342zM530 1171l144 355l155 -51l-200 -342z" />
<glyph unicode="&#x384;" horiz-adv-x="872" d="M414 1171l143 355l156 -51l-201 -342z" />
<glyph unicode="&#x385;" horiz-adv-x="872" d="M127 1206v174h160v-174h-160zM305 1171l144 355l155 -51l-201 -342zM580 1206v174h159v-174h-159z" />
<glyph unicode="&#x386;" horiz-adv-x="1017" d="M-43 1130l143 355l156 -51l-201 -342zM18 0l414 1425h154l415 -1425h-176l-90 324h-454l-88 -324h-175zM319 477h377l-104 369l-80 315h-8l-80 -313z" />
<glyph unicode="&#x387;" horiz-adv-x="442" d="M119 598v209h194v-209h-194z" />
<glyph unicode="&#x388;" horiz-adv-x="931" d="M-221 1130l143 355l156 -51l-201 -342zM133 0v1425h756v-159h-586v-467h502v-154h-502v-479h586v-166h-756z" />
<glyph unicode="&#x389;" horiz-adv-x="1089" d="M-227 1130l143 355l156 -51l-201 -342zM133 0v1425h170v-626h481v626h172v-1425h-172v649h-481v-649h-170z" />
<glyph unicode="&#x38a;" horiz-adv-x="444" d="M-231 1130l143 355l156 -51l-201 -342zM135 0v1425h172v-1425h-172z" />
<glyph unicode="&#x38c;" horiz-adv-x="1017" d="M-184 1130l143 355l156 -51l-201 -342zM90 440v572q0 72 22.5 147.5t71.5 137t129 100.5t195 39q109 0 187.5 -37t130 -97.5t76 -136t24.5 -153.5v-596q0 -98 -31 -177t-86 -135.5t-132 -86t-169 -29.5q-113 0 -192.5 36.5t-130 99t-73 144.5t-22.5 172zM258 1006l2 -564 q0 -61 13.5 -115.5t44 -94t78.5 -63.5t116 -24q49 0 93 17.5t76 50.5t51.5 80t19.5 106v611q0 33 -11.5 78t-39 85.5t-74.5 70.5t-121 30t-121 -27.5t-75.5 -67.5t-40 -87.5t-11.5 -85.5z" />
<glyph unicode="&#x38e;" horiz-adv-x="905" d="M-301 1130l143 355l156 -51l-201 -342zM14 1425h181q37 -92 75.5 -184t75.5 -184q25 -61 50.5 -133t47.5 -133h13l104 274l148 360h178l-352 -831v-594h-166v594z" />
<glyph unicode="&#x38f;" horiz-adv-x="1017" d="M-201 1130l144 355l155 -51l-200 -342zM68 0v160h145q-70 45 -96.5 131t-26.5 178v537q0 94 30 172.5t85 136t132 90.5t171 33q88 0 165 -31t133 -87t88 -136t32 -178v-537q0 -98 -28 -178t-95 -131h145v-160h-352v190q76 27 117 94.5t41 166.5v553q0 119 -65.5 193.5 t-180.5 74.5q-121 0 -184.5 -78t-63.5 -190v-553q0 -90 42 -161t120 -100l-2 -190h-352z" />
<glyph unicode="&#x390;" horiz-adv-x="444" d="M-104 1206v174h159v-174h-159zM74 1171l143 355l156 -51l-201 -342zM119 213v799h166v-776q0 -59 16 -76t64 -17l-5 -145q-66 -6 -111.5 2t-74.5 32.5t-42 68.5t-13 112zM348 1206v174h160v-174h-160z" />
<glyph unicode="&#x391;" horiz-adv-x="1017" d="M18 0l414 1425h154l415 -1425h-176l-90 324h-454l-88 -324h-175zM319 477h377l-104 369l-80 315h-8l-80 -313z" />
<glyph unicode="&#x392;" horiz-adv-x="1036" d="M133 0v1425h410q197 0 292 -101t95 -273q0 -98 -37 -174t-145 -129v-7q55 -14 94 -46.5t63.5 -77t35.5 -98.5t11 -111q0 -201 -103.5 -304.5t-279.5 -103.5h-436zM303 166h248q68 0 113 20.5t71.5 55t37.5 81t11 99.5q0 106 -54 175t-183 69h-244v-500zM303 813h223 q123 0 179.5 63.5t56.5 167.5q0 102 -56.5 164t-179.5 62h-223v-457z" />
<glyph unicode="&#x393;" horiz-adv-x="903" d="M133 0v1425h739v-159h-569v-1266h-170z" />
<glyph unicode="&#x395;" horiz-adv-x="931" d="M133 0v1425h756v-159h-586v-467h502v-154h-502v-479h586v-166h-756z" />
<glyph unicode="&#x396;" horiz-adv-x="845" d="M55 0v158l555 1112h-532v155h717v-147l-555 -1116h553v-162h-738z" />
<glyph unicode="&#x397;" horiz-adv-x="1089" d="M133 0v1425h170v-626h481v626h172v-1425h-172v649h-481v-649h-170z" />
<glyph unicode="&#x398;" horiz-adv-x="1017" d="M90 442v572q0 72 22.5 146.5t71.5 136t129 100.5t195 39q109 0 187.5 -37t130 -96.5t76 -135t24.5 -153.5v-596q0 -98 -31 -178t-86 -135.5t-132 -86t-169 -30.5q-113 0 -192.5 36.5t-130 100t-73 145.5t-22.5 172zM258 1012l2 -568q0 -61 13.5 -116.5t44 -95t78.5 -63.5 t116 -24q49 0 93 17.5t76 51.5t51.5 81t19.5 106v611q0 33 -10.5 78t-38 86t-74.5 69.5t-121 28.5q-70 0 -118 -26.5t-76.5 -65.5t-42 -85t-13.5 -85zM319 649v152h379v-152h-379z" />
<glyph unicode="&#x399;" horiz-adv-x="444" d="M135 0v1425h172v-1425h-172z" />
<glyph unicode="&#x39a;" horiz-adv-x="1056" d="M131 0v1425h172v-747q2 0 3 1t3 1q121 190 244 373.5t246 371.5h186q-92 -141 -183 -277t-184 -278l420 -870h-188l-340 707q-53 -76 -103.5 -153t-103.5 -151v-403h-172z" />
<glyph unicode="&#x39b;" horiz-adv-x="1017" d="M18 0l414 1425h154l413 -1425h-174l-94 338q-12 43 -28.5 101.5t-42 149.5t-62.5 223t-88 321h-4q-29 -111 -49.5 -179.5t-34.5 -117.5q-29 -111 -50.5 -191t-38 -140.5t-28.5 -102.5t-20 -74l-95 -328h-172z" />
<glyph unicode="&#x39c;" horiz-adv-x="1343" d="M133 0v1425h172l236 -538l135 -330h6l139 334l232 534h170v-1425h-170v995l-9 -2l-112 -274l-197 -440h-117l-198 448l-109 268l-8 -2v-993h-170z" />
<glyph unicode="&#x39d;" horiz-adv-x="1150" d="M129 0v1425h166l399 -739l152 -293l8 2v1030h170v-1425h-164l-407 750l-146 284h-6v-1034h-172z" />
<glyph unicode="&#x39e;" horiz-adv-x="948" d="M96 0v166h758v-166h-758zM96 1266v159h758v-159h-758zM178 645v154h594v-154h-594z" />
<glyph unicode="&#x39f;" horiz-adv-x="1017" d="M90 440v572q0 72 22.5 147.5t71.5 137t129 100.5t195 39q109 0 187.5 -37t130 -97.5t76 -136t24.5 -153.5v-596q0 -98 -31 -177t-86 -135.5t-132 -86t-169 -29.5q-113 0 -192.5 36.5t-130 99t-73 144.5t-22.5 172zM258 1006l2 -564q0 -61 13.5 -115.5t44 -94t78.5 -63.5 t116 -24q49 0 93 17.5t76 50.5t51.5 80t19.5 106v611q0 33 -11.5 78t-39 85.5t-74.5 70.5t-121 30t-121 -27.5t-75.5 -67.5t-40 -87.5t-11.5 -85.5z" />
<glyph unicode="&#x3a0;" horiz-adv-x="1075" d="M133 0v1425h811v-1425h-172v1276h-469v-1276h-170z" />
<glyph unicode="&#x3a1;" horiz-adv-x="991" d="M133 0v1425h406q199 0 307 -105.5t108 -322.5q0 -82 -22.5 -158.5t-70.5 -135t-126 -94.5t-188 -36h-244v-573h-170zM303 733h234q72 0 118.5 22.5t75.5 59.5t40 85t11 99q0 123 -57 195t-190 72h-232v-533z" />
<glyph unicode="&#x3a3;" horiz-adv-x="835" d="M49 1284v141h719v-155h-532l278 -537l-276 -575h555v-158h-742v147l275 586z" />
<glyph unicode="&#x3a4;" horiz-adv-x="825" d="M2 1270v155h821v-155h-325v-1270h-170v1270h-326z" />
<glyph unicode="&#x3a5;" horiz-adv-x="905" d="M14 1425h181q37 -92 75.5 -184t75.5 -184q25 -61 50.5 -133t47.5 -133h13l104 274l148 360h178l-352 -831v-594h-166v594z" />
<glyph unicode="&#x3a6;" horiz-adv-x="1255" d="M88 739q0 287 108.5 440.5t344.5 174.5h2v71h170v-71h8q240 -20 346.5 -174t106.5 -441q0 -154 -25 -264t-79 -185t-140 -117t-209 -58h-8v-115h-170v115h-2q-125 8 -211 50t-140.5 118.5t-78 189.5t-23.5 266zM252 741q0 -139 20.5 -229t57.5 -144.5t90 -78t121 -27.5 v948q-147 -6 -218 -119.5t-71 -349.5zM717 262q68 4 122 26.5t93 76t60.5 144.5t21.5 232q0 240 -76 351.5t-221 117.5v-948z" />
<glyph unicode="&#x3a7;" horiz-adv-x="921" d="M8 0l363 739l-338 686h186l242 -530l241 530h187l-340 -686l364 -739h-184l-268 578l-266 -578h-187z" />
<glyph unicode="&#x3a8;" horiz-adv-x="1245" d="M111 700v725h172v-702q0 -125 69.5 -196.5t186.5 -75.5v974h170v-974q117 2 187.5 69.5t70.5 192.5v712h170v-735q0 -88 -32 -161.5t-89.5 -127t-136 -84t-170.5 -32.5v-285h-170v285q-94 2 -173 32.5t-135.5 86t-88 131t-31.5 165.5z" />
<glyph unicode="&#x3a9;" horiz-adv-x="1017" d="M68 0v160h145q-70 45 -96.5 131t-26.5 178v537q0 94 30 172.5t85 136t132 90.5t171 33q88 0 165 -31t133 -87t88 -136t32 -178v-537q0 -98 -28 -178t-95 -131h145v-160h-352v190q76 27 117 94.5t41 166.5v553q0 119 -65.5 193.5t-180.5 74.5q-121 0 -184.5 -78 t-63.5 -190v-553q0 -90 42 -161t120 -100l-2 -190h-352z" />
<glyph unicode="&#x3aa;" horiz-adv-x="444" d="M-29 1532v172h162v-172h-162zM135 0v1425h172v-1425h-172zM313 1532v172h160v-172h-160z" />
<glyph unicode="&#x3ab;" horiz-adv-x="905" d="M14 1425h181q37 -92 75.5 -184t75.5 -184q25 -61 50.5 -133t47.5 -133h13l104 274l148 360h178l-352 -831v-594h-166v594zM199 1532v172h161v-172h-161zM541 1532v172h159v-172h-159z" />
<glyph unicode="&#x3ac;" horiz-adv-x="911" d="M88 469q0 98 11.5 197.5t45 179.5t95 130t163.5 50q138 1 226 -108q2 0 2 1t2 1v94h166v-1014h-166v104q-2 0 -2 1t-2 1q-47 -63 -107.5 -89.5t-122.5 -26.5q-98 0 -159.5 40t-95 107.5t-45 153.5t-11.5 178zM260 483q-2 -156 38 -243.5t142 -87.5q55 0 92 24.5 t59.5 68.5t33 105.5t10.5 134.5q0 78 -5 147.5t-23.5 123t-56.5 84t-101 30.5q-68 0 -105 -39.5t-55.5 -98t-23.5 -126t-5 -123.5zM371 1171l143 355l156 -51l-201 -342z" />
<glyph unicode="&#x3ad;" horiz-adv-x="778" d="M90 297q0 31 8 64.5t25.5 65.5t46.5 57.5t70 41.5v2q-43 14 -71 38t-43 51.5t-21.5 59.5t-6.5 62q0 57 21.5 109.5t63.5 92.5t104.5 62.5t144.5 22.5q125 0 205 -50t119 -136q-35 -20 -68 -41t-67 -43q-23 47 -71 78.5t-112 31.5q-86 0 -131 -36.5t-45 -96.5 q0 -61 46 -95t118 -34h131v-143h-141q-31 0 -59.5 -10.5t-51 -31t-37 -51t-14.5 -69.5q0 -66 48 -110t138 -44q63 0 109.5 31t68.5 78l140 -80q-39 -86 -120 -135t-198 -49q-166 0 -258 78.5t-92 228.5zM334 1171l143 355l156 -51l-201 -342z" />
<glyph unicode="&#x3ae;" horiz-adv-x="911" d="M102 0v1014h166v-113h6q43 59 106.5 91t137.5 32q61 0 113.5 -21.5t91.5 -61.5t60.5 -96.5t21.5 -127.5v-717h-166v662q0 92 -47 144t-137 52q-86 0 -136.5 -54t-50.5 -147v-657h-166zM319 1171l144 355l155 -51l-200 -342z" />
<glyph unicode="&#x3af;" horiz-adv-x="444" d="M119 213v799h166v-776q0 -59 16 -76t64 -17l-5 -145q-66 -6 -111.5 2t-74.5 32.5t-42 68.5t-13 112zM137 1171l144 355l155 -51l-200 -342z" />
<glyph unicode="&#x3b0;" horiz-adv-x="913" d="M102 367v647h164v-582q0 -35 1 -66.5t5 -48.5q8 -82 58.5 -129t128.5 -47q72 0 122 48.5t58 125.5q2 12 4 36t4 53.5t2 61.5v60v488h162v-520q0 -68 -2 -113t-5 -73.5t-6 -47t-7 -35.5q-16 -66 -50 -110.5t-79.5 -73.5t-100.5 -41t-112 -12q-131 0 -211 58t-113 147 q-10 35 -15.5 80.5t-7.5 93.5zM147 1206v174h160v-174h-160zM326 1171l143 355l156 -51l-201 -342zM600 1206v174h160v-174h-160z" />
<glyph unicode="&#x3b1;" horiz-adv-x="911" d="M88 469q0 98 11.5 197.5t45 179.5t95 130t163.5 50q138 1 226 -108q2 0 2 1t2 1v94h166v-1014h-166v104q-2 0 -2 1t-2 1q-47 -63 -107.5 -89.5t-122.5 -26.5q-98 0 -159.5 40t-95 107.5t-45 153.5t-11.5 178zM260 483q-2 -156 38 -243.5t142 -87.5q55 0 92 24.5 t59.5 68.5t33 105.5t10.5 134.5q0 78 -5 147.5t-23.5 123t-56.5 84t-101 30.5q-68 0 -105 -39.5t-55.5 -98t-23.5 -126t-5 -123.5z" />
<glyph unicode="&#x3b2;" horiz-adv-x="907" d="M109 -297v1368q0 35 2 69t6 66q16 129 102 206t230 77q88 0 151.5 -28.5t102 -78t57 -115t18.5 -139.5q0 -111 -31.5 -177t-103.5 -107v-2q111 -31 143.5 -123t32.5 -246q0 -98 -11 -187t-45 -154.5t-95.5 -104.5t-159.5 -39q-72 0 -128 24.5t-104 81.5q-2 0 -2 -1t-2 -1 v-389h-163zM272 489q0 -45 2 -92t11 -92q10 -70 52 -116t122 -46q63 0 101 27t57.5 73t24.5 107.5t5 128.5q0 61 -7 113.5t-26.5 90.5t-52.5 59.5t-86 21.5h-110v143h88q47 0 77.5 17.5t48 46t24.5 66.5t7 79q0 45 -8 86t-27.5 72t-52.5 48t-80 17t-79.5 -17t-53 -45 t-29 -61.5t-8.5 -68.5v-658z" />
<glyph unicode="&#x3b3;" horiz-adv-x="811" d="M8 1008q27 10 52.5 13t45.5 3q66 0 100 -39t56 -104q18 -55 37.5 -125t40 -143.5t39 -146.5t35.5 -134h12l82 299q29 98 57.5 193.5t59.5 189.5h172q-78 -242 -152 -476.5t-147 -488.5v-450h-164v430q-27 102 -52.5 195t-51 184.5t-53 181.5t-58.5 186q-10 31 -18.5 49.5 t-17.5 26.5t-21.5 10t-32.5 2h-9z" />
<glyph unicode="&#x3b4;" horiz-adv-x="874" d="M72 496q0 74 9 150.5t38 141.5q25 55 64.5 100.5t113.5 74.5q-72 47 -108.5 105t-36.5 140q0 74 26.5 127.5t74.5 87t111.5 50t137.5 16.5q57 0 119.5 -10.5t123.5 -34.5l-45 -139q-51 16 -97 26t-93 10q-190 0 -191 -129q0 -47 49.5 -93t143.5 -93q68 -35 125 -75 t92 -89q47 -63 58.5 -151t11.5 -211q0 -68 -4 -126.5t-15 -117.5q-12 -68 -46 -119t-82 -84t-106.5 -49t-119.5 -16q-207 0 -289 131q-43 68 -54 164t-11 213zM238 477q0 -66 3 -120t17 -95q43 -125 180 -125q141 0 183 150q10 39 12 86t2 108v67t-2 66q-4 94 -48.5 164.5 t-142.5 95.5q-152 -31 -184 -159q-12 -43 -16 -102.5t-4 -135.5z" />
<glyph unicode="&#x3b5;" horiz-adv-x="778" d="M90 297q0 31 8 64.5t25.5 65.5t46.5 57.5t70 41.5v2q-43 14 -71 38t-43 51.5t-21.5 59.5t-6.5 62q0 57 21.5 109.5t63.5 92.5t104.5 62.5t144.5 22.5q125 0 205 -50t119 -136q-35 -20 -68 -41t-67 -43q-23 47 -71 78.5t-112 31.5q-86 0 -131 -36.5t-45 -96.5 q0 -61 46 -95t118 -34h131v-143h-141q-31 0 -59.5 -10.5t-51 -31t-37 -51t-14.5 -69.5q0 -66 48 -110t138 -44q63 0 109.5 31t68.5 78l140 -80q-39 -86 -120 -135t-198 -49q-166 0 -258 78.5t-92 228.5z" />
<glyph unicode="&#x3b6;" horiz-adv-x="733" d="M66 385q0 86 33.5 193.5t100 224.5t165 239.5t227.5 239.5h-461v156h682v-148q-287 -252 -430 -484.5t-143 -418.5q0 -78 41 -123t122 -80q102 -45 169 -74.5t105 -54t52 -52.5t14 -69q0 -57 -46 -137t-113 -166l-119 78q39 55 65.5 110.5t26.5 80.5q0 27 -22.5 44 t-69.5 36q-84 33 -158 64.5t-127 75.5t-83.5 106.5t-30.5 158.5z" />
<glyph unicode="&#x3b7;" horiz-adv-x="911" d="M102 0v1014h166v-113h6q43 59 106.5 91t137.5 32q61 0 113.5 -21.5t91.5 -61.5t60.5 -96.5t21.5 -127.5v-717h-166v662q0 92 -47 144t-137 52q-86 0 -136.5 -54t-50.5 -147v-657h-166z" />
<glyph unicode="&#x3b8;" horiz-adv-x="872" d="M82 498v469q0 96 8 185t31 142q39 94 120 146.5t203 52.5q113 0 187 -45t114 -121q35 -70 44.5 -170t9.5 -205v-469q0 -78 -4 -147.5t-25 -128.5q-18 -66 -55 -109t-83 -67.5t-98.5 -34.5t-103.5 -10q-117 0 -190.5 49t-108.5 125q-29 57 -39 149t-10 189zM246 479 q0 -68 4 -126t20 -99q23 -55 65 -86t107 -31q61 0 106.5 34t67.5 101q10 29 14.5 92.5t4.5 135.5v209h-389v-230zM246 844h389v125q0 78 -5 145.5t-20 108.5q-43 121 -168 120q-121 0 -170 -112q-16 -43 -20 -115t-6 -168v-104z" />
<glyph unicode="&#x3b9;" horiz-adv-x="444" d="M119 213v799h166v-776q0 -59 16 -76t64 -17l-5 -145q-66 -6 -111.5 2t-74.5 32.5t-42 68.5t-13 112z" />
<glyph unicode="&#x3ba;" horiz-adv-x="890" d="M113 0v1014h166v-490h4l358 490h193l-289 -389l340 -625h-185l-262 494l-159 -226v-268h-166z" />
<glyph unicode="&#x3bb;" horiz-adv-x="821" d="M10 0l326 981l-62 248q-14 53 -35.5 79.5t-80.5 26.5h-18.5t-20.5 -2l-8 146q27 6 52 9t46 3q88 0 138 -48t79 -153l293 -1048q8 -33 15 -53.5t17.5 -33t25 -16.5t38.5 -4l6 -137q-23 -4 -43 -6t-37 -2q-63 0 -99 28.5t-56 98.5l-99 338q-18 66 -34.5 131t-36.5 131h-6 q-23 -82 -48.5 -163t-48.5 -163l-129 -391h-174z" />
<glyph unicode="&#x3bd;" horiz-adv-x="802" d="M10 1014h174l121 -422l94 -352h7l96 356l114 418h177l-310 -1014h-164z" />
<glyph unicode="&#x3be;" horiz-adv-x="743" d="M70 426q0 53 9 107.5t31.5 104.5t60.5 92t93 71q-55 20 -89 56t-52.5 79t-25.5 88t-7 86q0 82 22.5 152.5t68.5 121t114 79t158 28.5q43 0 91 -9t92 -30.5t81 -55.5t61 -81l-119 -94q-57 66 -110 87t-109 21q-86 0 -133 -62.5t-47 -158.5q0 -45 14.5 -87t43 -75 t71.5 -52.5t103 -19.5h174v-143h-199q-61 0 -104.5 -27.5t-71 -70.5t-39.5 -96.5t-12 -104.5q0 -113 43 -169t123 -91l122 -49q61 -25 104.5 -46.5t70 -45t38 -49t11.5 -58.5q0 -53 -33 -124.5t-105 -168.5l-127 70q41 72 60.5 112t19.5 62q0 20 -17.5 36.5t-45.5 31.5 q-45 23 -98.5 42t-104.5 42q-119 49 -175 144t-56 255z" />
<glyph unicode="&#x3bf;" horiz-adv-x="897" d="M82 500q0 96 9 184t32 143q41 92 125 145.5t207 53.5q121 0 190.5 -48t110.5 -120q14 -25 24.5 -64.5t16.5 -88t9 -100.5t3 -99q0 -29 -2 -70t-7 -86t-11.5 -86t-14.5 -65q-18 -59 -54 -100.5t-82 -66t-98.5 -35.5t-107.5 -11q-117 0 -191.5 49t-111.5 127 q-27 55 -37 146t-10 192zM246 481q0 -68 3 -127t19 -100q23 -55 66 -86t108 -31q63 0 111.5 31t71.5 98q10 29 14 97.5t4 152.5q0 72 -4 136.5t-16 101.5q-23 61 -68 92t-104 31t-106.5 -29t-70.5 -86q-14 -39 -21 -111.5t-7 -169.5z" />
<glyph unicode="&#x3c0;" horiz-adv-x="937" d="M119 0v1014h702v-1014h-166v866h-370v-866h-166z" />
<glyph unicode="&#x3c1;" horiz-adv-x="897" d="M92 -401v901q0 96 10.5 188t28.5 139q39 92 121 145.5t205 53.5q113 0 188.5 -46t116.5 -120q35 -70 43 -171t8 -206q0 -78 -7 -141t-26 -117q-33 -104 -110.5 -170.5t-196.5 -66.5q-125 0 -211 104l-4 -2v-491h-166zM254 481q0 -68 3 -127t19 -100q23 -55 65 -86 t108 -31q61 0 109 35t71 102q10 29 15 91.5t5 134.5q0 78 -4 146.5t-18 107.5q-23 61 -69 92t-105 31q-117 0 -170 -115q-16 -41 -21.5 -112.5t-7.5 -168.5z" />
<glyph unicode="&#x3c2;" horiz-adv-x="778" d="M92 438q0 45 1 99.5t7 111t17.5 108.5t32.5 91q47 92 131 135t194 43q111 0 198 -51t118 -156l-138 -76q-27 63 -80 94t-108 31q-96 0 -143 -59q-33 -41 -47.5 -123t-14.5 -199q0 -59 5 -102t20.5 -77t44 -60.5t76.5 -52.5q39 -18 79.5 -37t85.5 -39q86 -39 122 -83 t36 -99q0 -66 -43 -142t-96 -141l-127 74q39 59 58.5 97t19.5 73q0 29 -21.5 47t-70.5 41q-96 37 -164 72.5t-111 85t-62.5 120t-19.5 174.5z" />
<glyph unicode="&#x3c3;" horiz-adv-x="905" d="M80 498q0 111 17.5 206t52.5 154q41 78 118.5 117t175.5 39h424v-144h-157q-2 -2 -2 -8q37 -29 57 -73t27 -99q6 -47 7 -100t1 -107q0 -59 -4 -114.5t-15 -108.5q-14 -78 -48 -129t-81 -84t-103 -46t-118 -13q-147 0 -225 68.5t-107 176.5q-12 47 -16 121t-4 144z M244 481q0 -76 8 -139t31 -104q45 -96 159 -97q102 0 152 90q23 35 33 108t10 159t-9.5 153.5t-31.5 108.5q-48 92 -154 92q-51 0 -91 -21.5t-64 -68.5q-23 -43 -32 -111.5t-11 -169.5z" />
<glyph unicode="&#x3c4;" horiz-adv-x="610" d="M23 866v148h557v-148h-211v-587q0 -63 24.5 -93t79.5 -30h70v-156h-107q-117 0 -175 66.5t-58 164.5v635h-180z" />
<glyph unicode="&#x3c5;" horiz-adv-x="911" d="M102 367v647h164v-582q0 -35 1 -66.5t5 -48.5q8 -82 58.5 -129t128.5 -47q72 0 122 48.5t58 125.5q2 12 4 36t4 53.5t2 61.5v60v488h162v-520q0 -68 -2 -113t-5 -73.5t-6 -47t-7 -35.5q-16 -66 -50 -110.5t-79.5 -73.5t-100.5 -41t-112 -12q-131 0 -211 58t-113 147 q-10 35 -15.5 80.5t-7.5 93.5z" />
<glyph unicode="&#x3c6;" horiz-adv-x="1087" d="M80 500q0 104 12 202.5t47 159.5q29 51 73 88t110 58l49 -146q-45 -16 -71 -51t-38 -85t-15 -112.5t-3 -132.5q0 -57 4 -107t14 -91q41 -139 199 -146v889h174q119 0 203 -48t123 -124q35 -68 44 -165t9 -202q0 -88 -8.5 -168.5t-44.5 -154.5q-45 -88 -134.5 -130 t-199.5 -46v-389h-166v389q-145 6 -230.5 59t-124.5 168q-16 51 -21 129t-5 156zM627 139q86 6 142 46t71 120q8 39 9 90t1 109q0 78 -4 143.5t-19 104.5q-23 61 -79 90.5t-121 31.5v-735z" />
<glyph unicode="&#x3c7;" horiz-adv-x="806" d="M18 0l297 520l-282 494h186l187 -371l184 371h186l-282 -496l297 -518h-187l-198 389l-201 -389h-187z" />
<glyph unicode="&#x3c8;" horiz-adv-x="1120" d="M106 322v690h164v-670q0 -86 56.5 -141.5t150.5 -59.5v891h166v-891q92 8 151.5 60.5t59.5 140.5v670h166v-686q0 -78 -29.5 -139.5t-81 -104.5t-120 -67.5t-146.5 -26.5v-402h-166v402q-78 2 -145.5 26.5t-117.5 67.5t-79 103.5t-29 136.5z" />
<glyph unicode="&#x3c9;" horiz-adv-x="1325" d="M76 500q0 123 14 218t51 160.5t99.5 102.5t158.5 43q4 -39 6.5 -77t4.5 -77q-45 -4 -77 -25.5t-52.5 -67.5t-29.5 -117.5t-9 -178.5q0 -160 34.5 -248t139.5 -88q53 0 84.5 19.5t48 52.5t21.5 77t5 91v354h164v-354q0 -47 7.5 -92t27 -79t52 -54.5t85.5 -20.5 q57 0 92 23.5t54.5 68.5t27 107.5t7.5 142.5q0 102 -8.5 174t-27 117t-50 68.5t-80.5 29.5l14 154q96 -6 157.5 -43t97.5 -102.5t50.5 -160.5t14.5 -218q0 -109 -13.5 -203t-51.5 -162.5t-106.5 -107.5t-177.5 -39q-61 0 -132.5 28.5t-114.5 98.5h-7q-47 -66 -108.5 -96.5 t-134.5 -30.5q-106 0 -173 39t-104 106.5t-49 161.5t-12 205z" />
<glyph unicode="&#x3ca;" horiz-adv-x="444" d="M-47 1214v172h162v-172h-162zM119 213v799h166v-776q0 -59 16 -76t64 -17l-5 -145q-66 -6 -111.5 2t-74.5 32.5t-42 68.5t-13 112zM295 1214v172h160v-172h-160z" />
<glyph unicode="&#x3cb;" horiz-adv-x="913" d="M102 367v647h164v-582q0 -35 1 -66.5t5 -48.5q8 -82 58.5 -129t128.5 -47q72 0 122 48.5t58 125.5q2 12 4 36t4 53.5t2 61.5v60v488h162v-520q0 -68 -2 -113t-5 -73.5t-6 -47t-7 -35.5q-16 -66 -50 -110.5t-79.5 -73.5t-100.5 -41t-112 -12q-131 0 -211 58t-113 147 q-10 35 -15.5 80.5t-7.5 93.5zM201 1214v172h161v-172h-161zM543 1214v172h159v-172h-159z" />
<glyph unicode="&#x3cc;" horiz-adv-x="897" d="M82 500q0 96 9 184t32 143q41 92 125 145.5t207 53.5q121 0 190.5 -48t110.5 -120q14 -25 24.5 -64.5t16.5 -88t9 -100.5t3 -99q0 -29 -2 -70t-7 -86t-11.5 -86t-14.5 -65q-18 -59 -54 -100.5t-82 -66t-98.5 -35.5t-107.5 -11q-117 0 -191.5 49t-111.5 127 q-27 55 -37 146t-10 192zM246 481q0 -68 3 -127t19 -100q23 -55 66 -86t108 -31q63 0 111.5 31t71.5 98q10 29 14 97.5t4 152.5q0 72 -4 136.5t-16 101.5q-23 61 -68 92t-104 31t-106.5 -29t-70.5 -86q-14 -39 -21 -111.5t-7 -169.5zM360 1171l144 355l155 -51l-200 -342z " />
<glyph unicode="&#x3cd;" horiz-adv-x="913" d="M102 367v647h164v-582q0 -35 1 -66.5t5 -48.5q8 -82 58.5 -129t128.5 -47q72 0 122 48.5t58 125.5q2 12 4 36t4 53.5t2 61.5v60v488h162v-520q0 -68 -2 -113t-5 -73.5t-6 -47t-7 -35.5q-16 -66 -50 -110.5t-79.5 -73.5t-100.5 -41t-112 -12q-131 0 -211 58t-113 147 q-10 35 -15.5 80.5t-7.5 93.5zM373 1171l143 355l156 -51l-201 -342z" />
<glyph unicode="&#x3ce;" horiz-adv-x="1325" d="M76 500q0 123 14 218t51 160.5t99.5 102.5t158.5 43q4 -39 6.5 -77t4.5 -77q-45 -4 -77 -25.5t-52.5 -67.5t-29.5 -117.5t-9 -178.5q0 -160 34.5 -248t139.5 -88q53 0 84.5 19.5t48 52.5t21.5 77t5 91v354h164v-354q0 -47 7.5 -92t27 -79t52 -54.5t85.5 -20.5 q57 0 92 23.5t54.5 68.5t27 107.5t7.5 142.5q0 102 -8.5 174t-27 117t-50 68.5t-80.5 29.5l14 154q96 -6 157.5 -43t97.5 -102.5t50.5 -160.5t14.5 -218q0 -109 -13.5 -203t-51.5 -162.5t-106.5 -107.5t-177.5 -39q-61 0 -132.5 28.5t-114.5 98.5h-7q-47 -66 -108.5 -96.5 t-134.5 -30.5q-106 0 -173 39t-104 106.5t-49 161.5t-12 205zM575 1171l144 355l155 -51l-200 -342z" />
<glyph unicode="&#x401;" horiz-adv-x="931" d="M133 0v1425h756v-159h-586v-467h502v-154h-502v-479h586v-166h-756zM254 1532v172h162v-172h-162zM596 1532v172h160v-172h-160z" />
<glyph unicode="&#x402;" horiz-adv-x="1226" d="M10 1272v151h901v-151h-413v-426h6q72 57 150.5 87t148.5 30q176 0 255 -116t79 -368q0 -109 -16.5 -202t-58.5 -160.5t-113.5 -105.5t-180.5 -38h-35.5t-38.5 4v142h31q76 0 123 25.5t72.5 71.5t35 111.5t9.5 143.5q0 74 -7.5 134.5t-29 104.5t-61.5 67.5t-103 23.5 q-80 0 -149.5 -35t-116.5 -88v-678h-172v1272h-316z" />
<glyph unicode="&#x403;" horiz-adv-x="903" d="M133 0v1425h739v-159h-569v-1266h-170zM340 1569l297 241l111 -120l-340 -201z" />
<glyph unicode="&#x404;" horiz-adv-x="960" d="M102 414v598q0 90 28 167.5t81 134t131 89.5t176 33q145 0 250.5 -72t144.5 -201l-161 -63q-20 78 -79 125t-155 47q-59 0 -105 -21.5t-77 -56.5t-47.5 -82t-16.5 -96v-217h463v-158h-463v-231q0 -51 16.5 -98.5t47.5 -83t77 -57t105 -21.5q92 0 152.5 47t81.5 127 l161 -60q-37 -135 -142 -205.5t-253 -70.5q-96 0 -174 31.5t-131 88t-82 134t-29 172.5z" />
<glyph unicode="&#x405;" horiz-adv-x="978" d="M45 238l152 88q41 -72 110.5 -123t179.5 -51q131 0 188.5 67.5t57.5 169.5q0 57 -17.5 97t-50 69t-79.5 50.5t-105 39.5q-106 33 -181 69t-122 83t-68.5 107.5t-21.5 142.5q0 86 28.5 157.5t83 123.5t130.5 81t170 29q158 0 254 -56.5t143 -142.5l-145 -100 q-41 72 -102.5 103.5t-157.5 31.5q-119 0 -174.5 -65.5t-55.5 -161.5q0 -55 24.5 -94.5t67.5 -67t100.5 -49t125.5 -41.5q92 -29 155.5 -66t101 -86t55 -111.5t17.5 -142.5q0 -186 -111.5 -294.5t-312.5 -108.5q-166 0 -276.5 67.5t-163.5 184.5z" />
<glyph unicode="&#x406;" horiz-adv-x="444" d="M135 0v1425h172v-1425h-172z" />
<glyph unicode="&#x407;" horiz-adv-x="444" d="M-27 1581v172h162v-172h-162zM135 0v1425h172v-1425h-172zM315 1581v172h160v-172h-160z" />
<glyph unicode="&#x408;" horiz-adv-x="831" d="M-4 131l133 102q29 -35 74 -59t96 -24q94 0 158.5 51t64.5 174v1050h172v-1052q0 -104 -30.5 -177t-85 -119t-125 -67.5t-150.5 -21.5q-98 0 -177 37.5t-130 105.5z" />
<glyph unicode="&#x409;" horiz-adv-x="1581" d="M8 100q53 27 97.5 56.5t75 81t48 135.5t17.5 223v829h641v-596h243q111 0 189 -31.5t126 -87t70.5 -128t22.5 -154.5q0 -209 -108.5 -318.5t-307.5 -109.5h-407v1270h-309v-619q0 -182 -23 -302t-66 -195.5t-106.5 -117.5t-142.5 -69zM887 160h229q133 0 190.5 72.5 t57.5 189.5q0 49 -11.5 95t-40 82t-75.5 56.5t-119 20.5h-231v-516z" />
<glyph unicode="&#x40a;" horiz-adv-x="1607" d="M131 0v1425h172v-610h438v610h172v-610h232q111 0 190.5 -28.5t130 -80t75 -124t24.5 -160.5q0 -211 -107.5 -316.5t-306.5 -105.5h-410v657h-438v-657h-172zM913 158h230q133 0 190.5 68.5t57.5 189.5q0 49 -12.5 93t-41 76.5t-77 52t-119.5 19.5h-228v-499z" />
<glyph unicode="&#x40b;" horiz-adv-x="1247" d="M8 1274v151h910v-151h-420v-416l6 -4q78 66 151.5 87.5t139.5 21.5q160 0 245.5 -90.5t85.5 -249.5l2 -623h-172v535q0 55 -7 104t-28.5 85t-61.5 56.5t-103 20.5q-80 0 -145.5 -35t-112.5 -88v-678h-172v1274h-318z" />
<glyph unicode="&#x40c;" horiz-adv-x="1026" d="M127 0v1423h172v-620h152q33 0 67.5 6t68.5 27.5t62.5 63.5t48.5 112l115 411h162l-111 -417q-29 -104 -76 -175t-112 -94q86 -29 131 -101.5t72 -178.5l120 -457h-178l-108 428q-18 72 -46 116t-61 67.5t-69.5 30.5t-75.5 7h-162v-649h-172zM401 1569l297 241l111 -120 l-340 -201z" />
<glyph unicode="&#x40e;" horiz-adv-x="929" d="M27 1423h176l153 -483l115 -367h8l25.5 85t45 151t55.5 184.5t55.5 186.5t45 154.5t27.5 88.5h172q-90 -276 -177 -550.5t-175 -550.5q-33 -111 -67.5 -175.5t-73.5 -98.5t-80 -44t-86 -12h-117v147h96q43 0 79 30t65 107l18 66q-90 272 -180 540.5t-180 540.5zM199 1712 h141q2 -20 12 -42.5t28.5 -42t44.5 -32t56 -12.5q35 0 61.5 12.5t45 32t28 42t9.5 42.5h137q-4 -41 -19.5 -86t-47 -83t-84 -63.5t-130.5 -25.5q-80 0 -133 25.5t-86 63.5t-48 83t-15 86z" />
<glyph unicode="&#x40f;" horiz-adv-x="1085" d="M133 0v1425h170v-1265h479v1265h172v-1425h-319v-317h-174v317h-328z" />
<glyph unicode="&#x410;" horiz-adv-x="1017" d="M18 0l414 1425h154l415 -1425h-176l-90 324h-454l-88 -324h-175zM319 477h377l-104 369l-80 315h-8l-80 -313z" />
<glyph unicode="&#x411;" horiz-adv-x="1013" d="M129 0v1425h709v-157h-537v-437h231q111 0 191 -30.5t130 -83.5t74.5 -128t24.5 -163q0 -211 -107.5 -318.5t-305.5 -107.5h-410zM301 160h229q133 0 190.5 69.5t57.5 190.5q0 49 -12 95t-41 81t-77 55.5t-120 20.5h-227v-512z" />
<glyph unicode="&#x412;" horiz-adv-x="1036" d="M133 0v1425h410q197 0 292 -101t95 -273q0 -98 -37 -174t-145 -129v-7q55 -14 94 -46.5t63.5 -77t35.5 -98.5t11 -111q0 -201 -103.5 -304.5t-279.5 -103.5h-436zM303 166h248q68 0 113 20.5t71.5 55t37.5 81t11 99.5q0 106 -54 175t-183 69h-244v-500zM303 813h223 q123 0 179.5 63.5t56.5 167.5q0 102 -56.5 164t-179.5 62h-223v-457z" />
<glyph unicode="&#x413;" horiz-adv-x="903" d="M133 0v1425h739v-159h-569v-1266h-170z" />
<glyph unicode="&#x414;" horiz-adv-x="1183" d="M27 133l86 17q47 31 75.5 80t45 128.5t23.5 196.5t11 285l17 585h757q0 -322 1 -639t1 -639h101v-436h-160v289h-799v-289h-159v422zM322 147h550v1129h-432l-16 -490q-8 -238 -23.5 -393t-78.5 -246z" />
<glyph unicode="&#x415;" horiz-adv-x="931" d="M133 0v1425h756v-159h-586v-467h502v-154h-502v-479h586v-166h-756z" />
<glyph unicode="&#x416;" horiz-adv-x="1603" d="M37 0l121 457q27 106 71.5 179t130.5 101q-76 23 -117.5 93.5t-70.5 175.5l-111 417h162l115 -411q18 -72 48 -113t63.5 -62.5t68.5 -27.5t68 -6h131v624h172v-624h131q31 0 66.5 6t69.5 27.5t62.5 62.5t47.5 113l114 411h164l-112 -417q-27 -104 -75 -175t-114 -94 q86 -29 131 -101.5t74 -178.5l119 -457h-178l-109 428q-18 72 -45 115t-59.5 66.5t-70.5 31.5t-77 8h-139v-649h-172v649h-142q-39 0 -75.5 -8t-69.5 -31.5t-60.5 -66.5t-45.5 -115l-109 -428h-178z" />
<glyph unicode="&#x417;" horiz-adv-x="956" d="M25 299l161 57q18 -106 88 -159.5t166 -53.5q104 0 173 62.5t69 208.5q0 113 -52 185.5t-167 72.5h-121v149h121q104 0 157.5 67.5t53.5 172.5q0 115 -62.5 165t-160.5 50t-161 -57.5t-85 -147.5l-164 55q31 145 140.5 227.5t269.5 82.5q195 0 295 -90.5t100 -276.5 q0 -39 -8.5 -85t-27.5 -91t-51 -82t-77 -57v-9q57 -25 92 -63.5t53.5 -84.5t24.5 -94t6 -91q0 -193 -107.5 -308.5t-314.5 -115.5q-80 0 -150.5 19.5t-125 59t-89 97t-46.5 135.5z" />
<glyph unicode="&#x418;" horiz-adv-x="1150" d="M131 0v1425h170v-1081l8 -2l213 426l338 657h166v-1425h-172v1085h-6l-199 -395l-354 -690h-164z" />
<glyph unicode="&#x419;" horiz-adv-x="1150" d="M131 0v1425h170v-1081l8 -2l213 426l338 657h166v-1425h-172v1085h-6l-199 -395l-354 -690h-164zM293 1769h141q2 -20 12.5 -42.5t29 -42t44 -32t55.5 -12.5q35 0 62 12.5t45 32t27.5 42t9.5 42.5h137q-4 -41 -19.5 -86t-47 -82.5t-84 -63.5t-130.5 -26q-80 0 -133 26 t-85.5 63.5t-48 83t-15.5 85.5z" />
<glyph unicode="&#x41a;" horiz-adv-x="1026" d="M127 0v1423h172v-620h152q33 0 67.5 6t68.5 27.5t62.5 63.5t48.5 112l115 411h162l-111 -417q-29 -104 -76 -175t-112 -94q86 -29 131 -101.5t72 -178.5l120 -457h-178l-108 428q-18 72 -46 116t-61 67.5t-69.5 30.5t-75.5 7h-162v-649h-172z" />
<glyph unicode="&#x41b;" horiz-adv-x="1112" d="M0 100q53 27 97 56.5t75 81t48.5 135.5t17.5 221v831h737v-1425h-170v1270h-408v-619q0 -184 -21.5 -304t-63.5 -195.5t-105.5 -116.5t-147.5 -68q-16 33 -29.5 66t-29.5 67z" />
<glyph unicode="&#x41c;" horiz-adv-x="1343" d="M133 0v1425h172l236 -538l135 -330h6l139 334l232 534h170v-1425h-170v995l-9 -2l-112 -274l-197 -440h-117l-198 448l-109 268l-8 -2v-993h-170z" />
<glyph unicode="&#x41d;" horiz-adv-x="1089" d="M133 0v1425h170v-626h481v626h172v-1425h-172v649h-481v-649h-170z" />
<glyph unicode="&#x41e;" horiz-adv-x="1017" d="M90 440v572q0 72 22.5 147.5t71.5 137t129 100.5t195 39q109 0 187.5 -37t130 -97.5t76 -136t24.5 -153.5v-596q0 -98 -31 -177t-86 -135.5t-132 -86t-169 -29.5q-113 0 -192.5 36.5t-130 99t-73 144.5t-22.5 172zM258 1006l2 -564q0 -61 13.5 -115.5t44 -94t78.5 -63.5 t116 -24q49 0 93 17.5t76 50.5t51.5 80t19.5 106v611q0 33 -11.5 78t-39 85.5t-74.5 70.5t-121 30t-121 -27.5t-75.5 -67.5t-40 -87.5t-11.5 -85.5z" />
<glyph unicode="&#x41f;" horiz-adv-x="1075" d="M133 0v1425h811v-1425h-172v1276h-469v-1276h-170z" />
<glyph unicode="&#x420;" horiz-adv-x="991" d="M133 0v1425h406q199 0 307 -105.5t108 -322.5q0 -82 -22.5 -158.5t-70.5 -135t-126 -94.5t-188 -36h-244v-573h-170zM303 733h234q72 0 118.5 22.5t75.5 59.5t40 85t11 99q0 123 -57 195t-190 72h-232v-533z" />
<glyph unicode="&#x421;" horiz-adv-x="960" d="M102 414v598q0 90 28 167.5t81 134t131 89.5t176 33q145 0 250.5 -72t144.5 -201l-161 -63q-20 78 -79 125t-155 47q-59 0 -105 -21.5t-77 -56.5t-47.5 -82t-16.5 -96v-606q0 -51 16.5 -98.5t47.5 -83t77 -57t105 -21.5q92 0 152.5 47t81.5 127l161 -60 q-37 -135 -142 -205.5t-253 -70.5q-96 0 -174 31.5t-131 88t-82 134t-29 172.5z" />
<glyph unicode="&#x422;" horiz-adv-x="825" d="M2 1270v155h821v-155h-325v-1270h-170v1270h-326z" />
<glyph unicode="&#x423;" horiz-adv-x="929" d="M27 1423h176l153 -483l115 -367h8l25.5 85t45 151t55.5 184.5t55.5 186.5t45 154.5t27.5 88.5h172q-90 -276 -177 -550.5t-175 -550.5q-33 -111 -67.5 -175.5t-73.5 -98.5t-80 -44t-86 -12h-117v147h96q43 0 79 30t65 107l18 66q-90 272 -180 540.5t-180 540.5z" />
<glyph unicode="&#x424;" horiz-adv-x="1255" d="M88 739q0 287 108.5 440.5t344.5 174.5h2v71h170v-71h8q240 -20 346.5 -174t106.5 -441q0 -154 -25 -264t-79 -185t-140 -117t-209 -58h-8v-115h-170v115h-2q-125 8 -211 50t-140.5 118.5t-78 189.5t-23.5 266zM252 741q0 -139 20.5 -229t57.5 -144.5t90 -78t121 -27.5 v948q-147 -6 -218 -119.5t-71 -349.5zM717 262q68 4 122 26.5t93 76t60.5 144.5t21.5 232q0 240 -76 351.5t-221 117.5v-948z" />
<glyph unicode="&#x425;" horiz-adv-x="921" d="M8 0l363 739l-338 686h186l242 -530l241 530h187l-340 -686l364 -739h-184l-268 578l-266 -578h-187z" />
<glyph unicode="&#x426;" horiz-adv-x="1110" d="M133 0v1425h170v-1265h477v1265h170v-1267h113v-445h-160v287h-770z" />
<glyph unicode="&#x427;" horiz-adv-x="1046" d="M96 997v428h168v-417q0 -84 11.5 -140.5t39 -91.5t73.5 -49t116 -14q47 0 113.5 16t123.5 57v639h172v-1425h-172v639q-63 -35 -136 -52.5t-140 -17.5q-182 0 -275.5 100.5t-93.5 327.5z" />
<glyph unicode="&#x428;" horiz-adv-x="1552" d="M127 0v1425h170v-1263h393v1263h170v-1263h395v1263h172v-1425h-1300z" />
<glyph unicode="&#x429;" horiz-adv-x="1591" d="M125 0v1425h170v-1265h393v1265h170v-1265h395v1265h172v-1267h113v-445h-160v287h-1253z" />
<glyph unicode="&#x42a;" horiz-adv-x="1247" d="M25 1268v157h534v-594h234q111 0 189.5 -30.5t129.5 -83.5t74.5 -128t23.5 -163q0 -211 -107.5 -318.5t-305.5 -107.5h-408v1268h-364zM559 160h232q133 0 190 69.5t57 190.5q0 49 -12 95t-41 81t-77 55.5t-120 20.5h-229v-512z" />
<glyph unicode="&#x42b;" horiz-adv-x="1386" d="M139 0v1425h170v-596h234q111 0 189.5 -29.5t129.5 -83.5t75 -128t24 -162q0 -211 -108 -318.5t-306 -107.5h-408zM309 160h232q133 0 190 69.5t57 190.5q0 49 -12 94t-40.5 81t-77 56.5t-119.5 20.5h-230v-512zM1087 0v1425h173v-1425h-173z" />
<glyph unicode="&#x42c;" horiz-adv-x="989" d="M129 0v1425h172v-594h231q111 0 191 -30.5t130 -83.5t74.5 -128t24.5 -163q0 -211 -107.5 -318.5t-305.5 -107.5h-410zM301 160h229q133 0 190.5 69.5t57.5 190.5q0 49 -12 95t-41 81t-77 55.5t-120 20.5h-227v-512z" />
<glyph unicode="&#x42d;" horiz-adv-x="964" d="M43 279l168 57q18 -92 75.5 -141.5t149.5 -49.5q72 0 119 26t74.5 68t39 93t11.5 102v219h-412v158h412v178q0 57 -12.5 109.5t-40 91.5t-72.5 62.5t-113 23.5q-92 0 -151.5 -53.5t-81.5 -139.5l-164 58q35 135 138.5 216t265.5 81q121 0 198.5 -39t122.5 -102.5 t62.5 -145.5t17.5 -168v-561q0 -94 -25.5 -174t-78 -138.5t-129 -91t-181.5 -32.5q-160 0 -259 76.5t-134 216.5z" />
<glyph unicode="&#x42e;" horiz-adv-x="1347" d="M117 0v1425h170v-626h174v231q0 72 20.5 144.5t67.5 131t123 94.5t186 36q109 0 184.5 -34t122.5 -91.5t68.5 -130t21.5 -150.5v-635q0 -98 -28.5 -174t-80.5 -128t-126 -78.5t-162 -26.5q-111 0 -186.5 33.5t-122.5 92t-67.5 137.5t-20.5 169v229h-174v-649h-170z M629 1028l2 -606q0 -125 52 -201t179 -76q92 0 155.5 57.5t63.5 176.5v649q0 33 -8 75t-32.5 80t-68.5 64.5t-114 26.5q-68 0 -112 -23.5t-69.5 -60.5t-36.5 -80t-11 -82z" />
<glyph unicode="&#x42f;" horiz-adv-x="1054" d="M57 0l103 428q23 92 58.5 154.5t107.5 97.5q-63 16 -104.5 51t-66 79t-33.5 95t-9 103q0 94 25.5 170.5t74.5 132t121 85t166 29.5h426v-1425h-170v633h-170q-35 0 -72 -9.5t-71.5 -34t-63.5 -69.5t-47 -117l-94 -403h-181zM285 1008q0 -117 66.5 -171.5t176.5 -54.5h228 v488h-230q-125 0 -183 -71.5t-58 -190.5z" />
<glyph unicode="&#x430;" horiz-adv-x="872" d="M74 285q0 135 84 224t268 89h186v125q0 70 -46 108.5t-136 38.5q-59 0 -111.5 -21.5t-74.5 -74.5q-33 18 -65 37.5t-64 40.5q41 84 126 129t189 45q72 0 135.5 -15.5t111.5 -50t75.5 -93t27.5 -146.5v-721h-168v74l-8 4q-35 -45 -97.5 -67.5t-141.5 -22.5 q-74 0 -129.5 23.5t-91 64.5t-53 95t-17.5 114zM231 295q0 -68 45.5 -110t137.5 -42q86 0 142 39t56 135v140h-198q-80 0 -131.5 -38t-51.5 -124z" />
<glyph unicode="&#x431;" horiz-adv-x="897" d="M86 549q0 33 2 75t3 79.5t3 65.5t4 36q8 123 30 213t58.5 156.5t92 112.5t131.5 79q68 31 138 56.5t175 66.5l55 -121q-51 -25 -88 -41t-67.5 -28.5t-59 -23.5t-63.5 -28q-125 -59 -181.5 -144t-64.5 -220q4 0 4 -2q47 57 109.5 81.5t115.5 24.5q106 0 172 -41t105 -115 q33 -61 43 -160.5t10 -203.5q0 -80 -6 -137.5t-27 -116.5q-20 -66 -57 -109t-82 -69.5t-97 -37.5t-104 -11q-117 0 -191.5 49t-111.5 125q-27 55 -40 148t-11 241zM252 463q0 -68 3 -119t19 -92q23 -55 65 -85t114 -30q63 0 110 35t70 102q10 29 13 83.5t3 125.5q0 31 -1 65 t-4 66.5t-7 58t-8 42.5q-23 57 -61.5 90t-112.5 33q-119 0 -166 -99q-23 -45 -30 -115.5t-7 -160.5z" />
<glyph unicode="&#x432;" horiz-adv-x="872" d="M106 0v1014h349q170 0 251.5 -77t81.5 -202q0 -66 -27.5 -118t-92.5 -87h2q76 -29 106.5 -90t30.5 -137q0 -84 -27.5 -141.5t-77 -93t-115 -52t-141.5 -16.5h-340zM274 154h172q92 0 143.5 38.5t51.5 116.5q0 66 -41 108t-141 42h-185v-305zM274 592h166q92 0 137.5 27.5 t45.5 113.5q0 63 -43 99t-138 36h-168v-276z" />
<glyph unicode="&#x433;" horiz-adv-x="761" d="M106 0v1014h631v-146h-465v-868h-166z" />
<glyph unicode="&#x434;" horiz-adv-x="1009" d="M35 127l80 18q33 25 52 54.5t30.5 77t17.5 120t16 183.5l19 434h629v-869h90v-409h-158v264h-618v-264h-158v391zM315 145h398v723h-312l-14 -293q-6 -78 -10 -142t-11.5 -116.5t-18.5 -94.5t-32 -77z" />
<glyph unicode="&#x435;" horiz-adv-x="868" d="M76 506q0 96 15 189t55 167t110 119t178 45q172 0 263 -109.5t91 -302.5v-157h-546q0 -68 8 -126.5t30.5 -101.5t63.5 -67.5t107 -24.5q55 0 101 35t75 82l135 -72q-41 -90 -122 -142t-183 -52t-174 28.5t-118 91t-67.5 161t-21.5 237.5zM246 590h379q0 139 -48.5 209.5 t-140.5 70.5q-106 0 -146 -75.5t-44 -204.5z" />
<glyph unicode="&#x436;" horiz-adv-x="1308" d="M27 0q23 82 47 164t47 164q23 76 54.5 130t100.5 70q-55 16 -88.5 66.5t-56.5 124.5q-20 74 -41.5 146.5t-44.5 146.5h162l84 -291q14 -51 35.5 -80t48 -44t57.5 -19.5t64 -4.5h73v439h166v-439h53q33 0 67 2.5t64.5 15.5t55 44t41.5 86l84 291h162l-86 -293 q-23 -74 -57 -124t-89 -67q70 -16 101.5 -70.5t54.5 -129.5l94 -328h-166q-18 70 -36.5 139.5t-39.5 139.5q-16 57 -36.5 88.5t-47 47t-60.5 19.5t-75 4h-84v-438h-166v438h-80q-41 0 -74.5 -5t-61 -20.5t-49 -47t-38.5 -86.5l-73 -279h-166z" />
<glyph unicode="&#x437;" horiz-adv-x="815" d="M29 180l135 72q20 -57 75.5 -85t131.5 -28q82 0 136 40t54 124q0 72 -43 113t-115 41h-122v139h125q76 0 110.5 37t34.5 102q0 61 -42 98t-120 37q-72 0 -126 -25.5t-79 -84.5l-129 76q37 92 126 140t202 48q174 0 254 -76t80 -200q0 -61 -27.5 -125t-97.5 -93 q84 -41 110.5 -97t26.5 -134q0 -147 -96 -228t-262 -81q-123 0 -213 44t-129 146z" />
<glyph unicode="&#x438;" horiz-adv-x="1017" d="M123 0v1012h170v-723h4l152 252l286 471h160v-1012h-172v705h-8l-158 -259l-276 -446h-158z" />
<glyph unicode="&#x439;" horiz-adv-x="1017" d="M123 0v1012h170v-723h4l152 252l286 471h160v-1012h-172v705h-8l-158 -259l-276 -446h-158zM229 1432h142q2 -20 12 -43t28.5 -42.5t44 -31.5t56.5 -12q35 0 61.5 12t45 31.5t27.5 42t9 43.5h138q-4 -41 -19.5 -86.5t-47.5 -83t-84 -63t-130 -25.5q-80 0 -133 25.5 t-86 63t-48.5 83t-15.5 86.5z" />
<glyph unicode="&#x43a;" horiz-adv-x="854" d="M88 0v1014h166v-441h113q29 0 57.5 4.5t54 19.5t46 45t34.5 79l84 293h162l-86 -295q-23 -74 -56.5 -124t-89.5 -67q70 -16 102 -69t54 -129l94 -330h-166l-75 281q-29 98 -77 127.5t-116 29.5h-135v-438h-166z" />
<glyph unicode="&#x43b;" horiz-adv-x="919" d="M10 100q53 27 88 53.5t55.5 72.5t28.5 123t8 206v459h623v-1014h-168v868h-299v-397q0 -127 -17.5 -213t-51 -143.5t-86.5 -91.5t-123 -54q-14 33 -28.5 65t-29.5 66z" />
<glyph unicode="&#x43c;" horiz-adv-x="1134" d="M109 0v1014h161l166 -322q35 -70 68 -136.5t69 -133.5h2l134 270l165 322h160v-1014h-168v666h-2q-20 -43 -39.5 -86t-42.5 -84q-41 -78 -79.5 -153t-77.5 -153h-107l-135 261l-104 206h-3v-657h-167z" />
<glyph unicode="&#x43d;" horiz-adv-x="915" d="M106 0v1014h168v-430h367v430h168v-1014h-168v446h-367v-446h-168z" />
<glyph unicode="&#x43e;" horiz-adv-x="897" d="M82 500q0 96 9 184t32 143q41 92 125 145.5t207 53.5q121 0 190.5 -48t110.5 -120q14 -25 24.5 -64.5t16.5 -88t9 -100.5t3 -99q0 -29 -2 -70t-7 -86t-11.5 -86t-14.5 -65q-18 -59 -54 -100.5t-82 -66t-98.5 -35.5t-107.5 -11q-117 0 -191.5 49t-111.5 127 q-27 55 -37 146t-10 192zM246 481q0 -68 3 -127t19 -100q23 -55 66 -86t108 -31q63 0 111.5 31t71.5 98q10 29 14 97.5t4 152.5q0 72 -4 136.5t-16 101.5q-23 61 -68 92t-104 31t-106.5 -29t-70.5 -86q-14 -39 -21 -111.5t-7 -169.5z" />
<glyph unicode="&#x43f;" horiz-adv-x="937" d="M119 0v1014h702v-1014h-166v866h-370v-866h-166z" />
<glyph unicode="&#x440;" horiz-adv-x="884" d="M90 -410v1424h166v-94q2 0 2 -1t2 -1q45 57 102.5 82.5t129.5 25.5q100 0 159.5 -42t92 -112.5t43 -165t10.5 -196.5q0 -96 -11.5 -189.5t-46 -167t-98 -118.5t-166.5 -45q-127 0 -215 100h-4v-500h-166zM254 481q0 -55 5 -112.5t23.5 -105.5t55.5 -78.5t100 -30.5 t100 28.5t57.5 76.5t27 111.5t6.5 135.5q0 74 -6.5 139.5t-25.5 114.5t-56 78.5t-101 29.5q-74 0 -112.5 -37.5t-55 -95t-17.5 -126t-1 -128.5z" />
<glyph unicode="&#x441;" horiz-adv-x="788" d="M63 528q0 227 92.5 362.5t288.5 135.5q111 0 190 -50t120 -136l-136 -84q-23 53 -67.5 82.5t-104.5 29.5q-68 0 -110.5 -26.5t-66 -72.5t-32 -108.5t-8.5 -136.5t8.5 -142.5t32 -121.5t65.5 -85t109 -32q61 0 105 32t67 73q35 -20 70 -37.5t70 -38.5q-41 -86 -121 -135 t-191 -49q-115 0 -188.5 39t-116.5 109.5t-59.5 171t-16.5 220.5z" />
<glyph unicode="&#x442;" horiz-adv-x="716" d="M10 868v144h697v-144h-269v-868h-164v868h-264z" />
<glyph unicode="&#x443;" horiz-adv-x="786" d="M2 1014h176l125 -406l96 -342h7l90 342l118 406h172l-364 -1217q-33 -109 -100.5 -160t-163.5 -51h-54v144h50q96 0 131 145l43 150z" />
<glyph unicode="&#x444;" horiz-adv-x="1087" d="M76 500q0 94 7 175t36 144q41 96 130 150.5t212 58.5v418h164l2 -418q123 -4 207 -53t124 -137q31 -66 40.5 -152t9.5 -188q0 -111 -12.5 -201t-55.5 -156q-47 -74 -128 -112.5t-185 -46.5l-2 -383h-164v383q-111 6 -194 45t-126 108q-41 66 -53 159t-12 206zM240 481 q0 -70 5 -133t21 -100q25 -51 76 -80t117 -33l2 735q-66 -4 -119 -32.5t-76 -83.5q-16 -41 -21 -114t-5 -159zM625 135q68 4 122 36t76 97q16 39 18.5 94.5t2.5 118.5q0 86 -3 157t-20 112q-23 59 -76 87.5t-120 32.5v-735z" />
<glyph unicode="&#x445;" horiz-adv-x="806" d="M18 0l297 520l-282 494h186l187 -371l184 371h186l-282 -496l297 -518h-187l-198 389l-201 -389h-187z" />
<glyph unicode="&#x446;" horiz-adv-x="954" d="M109 0v1014h167v-860h367v860h166v-860h111v-418h-158v264h-653z" />
<glyph unicode="&#x447;" horiz-adv-x="858" d="M61 711v303h166v-326q0 -94 41 -132t119 -38q39 0 100.5 15.5t112.5 50.5v430h164v-1014h-166v436h-2q-59 -35 -124.5 -53t-125.5 -18q-143 0 -214 80.5t-71 265.5z" />
<glyph unicode="&#x448;" horiz-adv-x="1366" d="M111 0v1014h165v-858h324v858h164v-858h328v858h163v-1014h-1144z" />
<glyph unicode="&#x449;" horiz-adv-x="1417" d="M111 0v1014h163v-860h324v860h166v-860h326v860h163v-860h111v-402h-156v248h-1097z" />
<glyph unicode="&#x44a;" horiz-adv-x="1056" d="M25 868v146h464v-389h187q96 0 162.5 -25t107.5 -66.5t58.5 -97t17.5 -119.5q0 -145 -79 -231t-263 -86h-361v868h-294zM489 154h185q102 0 141 48t39 113q0 31 -8 58.5t-29.5 49t-56.5 35t-88 13.5l-183 2v-319z" />
<glyph unicode="&#x44b;" horiz-adv-x="1187" d="M102 0v1014h170v-389h187q96 0 161.5 -25t106.5 -66.5t58.5 -97t17.5 -119.5q0 -145 -78 -231t-262 -86h-361zM270 154h185q102 0 141 48t39 113q0 31 -8.5 58.5t-28.5 49t-56 35t-89 13.5l-183 2v-319zM905 0v1014h170v-1014h-170z" />
<glyph unicode="&#x44c;" horiz-adv-x="833" d="M106 0v1014h170v-389h187q96 0 161.5 -25t106.5 -66.5t58.5 -97t17.5 -119.5q0 -145 -78 -231t-262 -86h-361zM274 154h185q102 0 141 48t39 113q0 31 -8 58.5t-28.5 49t-56.5 35t-89 13.5l-183 2v-319z" />
<glyph unicode="&#x44d;" horiz-adv-x="788" d="M16 172l140 76q23 -41 69.5 -73t108.5 -32q59 0 98 25t63.5 68t36 100t15.5 121h-361v133h361q-4 61 -14.5 112.5t-35 88t-64.5 57t-101 20.5q-53 0 -102.5 -29.5t-71.5 -82.5l-135 84q41 86 127 136t190 50q98 0 170 -37t118 -103.5t67.5 -158.5t19.5 -205 q-2 -115 -20.5 -212t-62.5 -168.5t-119 -112.5t-187 -41q-111 0 -190 49t-120 135z" />
<glyph unicode="&#x44e;" horiz-adv-x="1200" d="M125 0v1012h172v-426h121q0 72 6 137q14 133 107.5 217t238.5 84q139 0 228 -73.5t106 -209.5q4 -37 6 -76.5t2 -78.5l-2 -240q-6 -174 -97 -266t-247 -92q-147 0 -236.5 77.5t-105.5 213.5q-6 70 -6 145v20h-121v-444h-172zM578 438q0 -37 2 -73.5t6 -73.5 q10 -66 58 -109t124 -43q86 0 132 57.5t46 145.5v301q0 45 -8 87t-27.5 74t-54.5 50t-88 18q-76 0 -124 -44t-58 -109q-4 -25 -6 -49.5t-2 -51.5v-180z" />
<glyph unicode="&#x44f;" horiz-adv-x="884" d="M53 0l74 295q14 55 42 102t77 68q-86 29 -123 95.5t-37 144.5q0 135 82 222t233 87h385v-1014h-165v422h-166q-61 -2 -103.5 -33t-64.5 -123l-64 -266h-170zM252 705q0 -72 45 -109t127 -37h197v307h-193q-82 0 -129 -41.5t-47 -119.5z" />
<glyph unicode="&#x451;" horiz-adv-x="868" d="M76 506q0 96 15 189t55 167t110 119t178 45q172 0 263 -109.5t91 -302.5v-157h-546q0 -68 8 -126.5t30.5 -101.5t63.5 -67.5t107 -24.5q55 0 101 35t75 82l135 -72q-41 -90 -122 -142t-183 -52t-174 28.5t-118 91t-67.5 161t-21.5 237.5zM190 1229v172h162v-172h-162z M246 590h379q0 139 -48.5 209.5t-140.5 70.5q-106 0 -146 -75.5t-44 -204.5zM532 1229v172h160v-172h-160z" />
<glyph unicode="&#x452;" horiz-adv-x="956" d="M12 1174v131h111v182h164v-182h385v-131h-385v-285h6q88 123 250 123q96 0 173 -48.5t105 -140.5q23 -53 30 -142t7 -185q0 -84 -11 -171t-38 -147q-37 -84 -111.5 -139t-208.5 -55q-14 0 -22 1t-25 3v145q10 -2 20.5 -2h20.5q63 0 103.5 26.5t64.5 73.5q23 43 31 107.5 t8 136.5q0 104 -6 179t-37 122q-23 35 -59.5 55.5t-95.5 20.5q-61 0 -100.5 -25.5t-63 -66.5t-32.5 -92.5t-9 -100.5v-567h-164v1174h-111z" />
<glyph unicode="&#x453;" horiz-adv-x="761" d="M106 0v1014h631v-146h-465v-868h-166zM322 1171l143 355l156 -51l-201 -342z" />
<glyph unicode="&#x454;" horiz-adv-x="788" d="M63 528q0 227 92.5 362.5t288.5 135.5q111 0 190 -50t120 -136l-136 -84q-23 53 -67.5 82.5t-104.5 29.5q-61 0 -101 -20.5t-64.5 -57t-36 -88t-13.5 -112.5h361v-133h-361q2 -63 14.5 -120.5t37 -100.5t63.5 -68t98 -25q61 0 105 32t67 73q35 -20 70 -37.5t70 -38.5 q-41 -86 -121 -135t-191 -49q-115 0 -188.5 39t-116.5 109.5t-59.5 171t-16.5 220.5z" />
<glyph unicode="&#x455;" horiz-adv-x="829" d="M55 201l135 78q33 -66 87.5 -103t136.5 -37q86 0 134 36t48 116q0 39 -14.5 63.5t-40 41t-60.5 27.5t-75 23q-74 18 -133.5 42t-102.5 58t-65.5 80t-22.5 111q0 135 88 212t242 77q137 0 213.5 -51t111.5 -144l-129 -79q-59 123 -198 122q-92 0 -128 -41.5t-36 -95.5 q0 -35 18.5 -57.5t50 -37.5t73.5 -27.5t87 -24.5q72 -16 125 -40t89 -59.5t53.5 -85t17.5 -118.5q0 -137 -92.5 -219t-257.5 -82q-131 0 -219.5 55t-135.5 160z" />
<glyph unicode="&#x456;" horiz-adv-x="403" d="M119 0v1014h166v-1014h-166zM119 1260v165h166v-165h-166z" />
<glyph unicode="&#x457;" horiz-adv-x="403" d="M-49 1214v172h162v-172h-162zM119 0v1014h166v-1014h-166zM293 1214v172h160v-172h-160z" />
<glyph unicode="&#x458;" horiz-adv-x="430" d="M-25 -266q4 0 20.5 -1t18.5 1q63 2 91 42t28 111v1127h166v-1164q0 -57 -16.5 -106t-50 -86t-84 -57.5t-117.5 -20.5h-56v154zM133 1260v165h166v-165h-166z" />
<glyph unicode="&#x459;" horiz-adv-x="1318" d="M23 100q49 25 83.5 50.5t56 65.5t32 102.5t10.5 162.5v533h545v-389h186q96 0 161.5 -25t106.5 -66.5t58.5 -97t17.5 -119.5q0 -143 -78 -230t-262 -87h-360v868h-220v-395q0 -127 -17 -213t-52 -143.5t-88 -91t-123 -56.5zM748 156h184q102 0 141 45.5t39 113.5 q0 31 -8 58.5t-28.5 49t-56.5 35t-89 13.5h-182v-315z" />
<glyph unicode="&#x45a;" horiz-adv-x="1353" d="M113 0v1014h168v-398h329v398h170v-398h187q96 0 161.5 -23.5t106.5 -64.5t58.5 -95t17.5 -116q0 -145 -78 -231t-262 -86h-361v463h-329v-463h-168zM778 154h185q102 0 141 48t39 113q0 29 -8.5 55.5t-29 46t-56 32t-88.5 12.5h-183v-307z" />
<glyph unicode="&#x45b;" horiz-adv-x="897" d="M0 1194v127h96v166h166v-166h373v-127h-373v-295h6q43 59 106.5 92t137.5 33q61 0 113.5 -20.5t90.5 -60.5t60.5 -96t22.5 -130v-717h-166v662q0 92 -46 145t-138 53q-86 0 -137.5 -53t-51.5 -150v-657h-164v1194h-96z" />
<glyph unicode="&#x45c;" horiz-adv-x="854" d="M88 0v1014h166v-441h113q29 0 57.5 4.5t54 19.5t46 45t34.5 79l84 293h162l-86 -295q-23 -74 -56.5 -124t-89.5 -67q70 -16 102 -69t54 -129l94 -330h-166l-75 281q-29 98 -77 127.5t-116 29.5h-135v-438h-166zM336 1171l143 355l156 -51l-201 -342z" />
<glyph unicode="&#x45e;" horiz-adv-x="786" d="M2 1014h176l125 -406l96 -342h7l90 342l118 406h172l-364 -1217q-33 -109 -100.5 -160t-163.5 -51h-54v144h50q96 0 131 145l43 150zM119 1432h141q2 -20 12.5 -43t28.5 -42.5t44 -31.5t56 -12q35 0 61.5 12t45 31.5t28 42t9.5 43.5h137q-4 -41 -19.5 -86.5t-47 -83 t-84 -63t-130.5 -25.5q-80 0 -133 25.5t-85.5 63t-48 83t-15.5 86.5z" />
<glyph unicode="&#x45f;" horiz-adv-x="917" d="M109 0v1014h167v-858h369v858h164v-1014h-264v-276h-172v276h-264z" />
<glyph unicode="&#x490;" horiz-adv-x="903" d="M133 0v1425h582l-2 240h157l2 -399h-569v-1266h-170z" />
<glyph unicode="&#x491;" horiz-adv-x="761" d="M106 0v1014h480v219h151v-365h-463v-868h-168z" />
<glyph unicode="&#x4d9;" horiz-adv-x="858" d="M68 401v158h546q0 68 -8 126t-30.5 101t-63.5 68t-106 25q-55 0 -101.5 -35t-75.5 -82l-135 72q41 90 128 142t190 52q193 0 280.5 -120t87.5 -398q0 -96 -15 -189.5t-55 -167t-110 -118.5t-178 -45q-172 0 -263 109.5t-91 301.5zM231 426q0 -139 48.5 -210t140.5 -71 q106 0 146 76t44 205h-379z" />
<glyph unicode="&#x1e80;" horiz-adv-x="1437" d="M39 1425h178l119 -653l65 -405h7l86 399l153 659h146l153 -661l86 -397h6l64 397l117 661h180l-283 -1425h-151l-160 692l-84 391h-6l-82 -383l-160 -700h-151zM518 1753l121 125l303 -250l-76 -86z" />
<glyph unicode="&#x1e81;" horiz-adv-x="1298" d="M16 1014h177q35 -135 66.5 -268.5t64.5 -268.5l49 -209h8l51 207q33 133 68 267.5t69 271.5h162q35 -131 66.5 -262t64.5 -263l56 -231h8l51 221q33 135 62.5 267.5t62.5 267.5h178l-276 -1014h-162q-33 123 -67 245t-64 247l-64 235h-4q-16 -66 -32.5 -132.5 t-32.5 -129.5l-123 -465h-164zM434 1475l156 51l143 -355l-98 -38z" />
<glyph unicode="&#x1e82;" horiz-adv-x="1437" d="M39 1425h178l119 -653l65 -405h7l86 399l153 659h146l153 -661l86 -397h6l64 397l117 661h180l-283 -1425h-151l-160 692l-84 391h-6l-82 -383l-160 -700h-151zM598 1569l297 241l111 -120l-340 -201z" />
<glyph unicode="&#x1e83;" horiz-adv-x="1298" d="M16 1014h177q35 -135 66.5 -268.5t64.5 -268.5l49 -209h8l51 207q33 133 68 267.5t69 271.5h162q35 -131 66.5 -262t64.5 -263l56 -231h8l51 221q33 135 62.5 267.5t62.5 267.5h178l-276 -1014h-162q-33 123 -67 245t-64 247l-64 235h-4q-16 -66 -32.5 -132.5 t-32.5 -129.5l-123 -465h-164zM590 1171l143 355l156 -51l-201 -342z" />
<glyph unicode="&#x1e84;" horiz-adv-x="1437" d="M39 1425h178l119 -653l65 -405h7l86 399l153 659h146l153 -661l86 -397h6l64 397l117 661h180l-283 -1425h-151l-160 692l-84 391h-6l-82 -383l-160 -700h-151zM453 1532v172h161v-172h-161zM795 1532v172h159v-172h-159z" />
<glyph unicode="&#x1e85;" horiz-adv-x="1298" d="M16 1014h177q35 -135 66.5 -268.5t64.5 -268.5l49 -209h8l51 207q33 133 68 267.5t69 271.5h162q35 -131 66.5 -262t64.5 -263l56 -231h8l51 221q33 135 62.5 267.5t62.5 267.5h178l-276 -1014h-162q-33 123 -67 245t-64 247l-64 235h-4q-16 -66 -32.5 -132.5 t-32.5 -129.5l-123 -465h-164zM395 1217v172h162v-172h-162zM737 1217v172h160v-172h-160z" />
<glyph unicode="&#x1ef2;" horiz-adv-x="905" d="M14 1425h181q37 -92 75.5 -184t75.5 -184q25 -61 50.5 -133t47.5 -133h13l104 274l148 360h178l-352 -831v-594h-166v594zM186 1722l121 125l303 -250l-75 -86z" />
<glyph unicode="&#x1ef3;" horiz-adv-x="792" d="M2 1014h176l125 -406l96 -342h7l90 342l118 406h172l-364 -1217q-33 -109 -100.5 -160t-163.5 -51h-54v144h50q96 0 131 145l43 150zM162 1475l155 51l144 -355l-99 -38z" />
<glyph unicode="&#x2000;" horiz-adv-x="958" />
<glyph unicode="&#x2001;" horiz-adv-x="1917" />
<glyph unicode="&#x2002;" horiz-adv-x="958" />
<glyph unicode="&#x2003;" horiz-adv-x="1917" />
<glyph unicode="&#x2004;" horiz-adv-x="639" />
<glyph unicode="&#x2005;" horiz-adv-x="479" />
<glyph unicode="&#x2006;" horiz-adv-x="319" />
<glyph unicode="&#x2007;" horiz-adv-x="319" />
<glyph unicode="&#x2008;" horiz-adv-x="239" />
<glyph unicode="&#x2009;" horiz-adv-x="383" />
<glyph unicode="&#x200a;" horiz-adv-x="106" />
<glyph unicode="&#x2010;" horiz-adv-x="755" d="M104 455v145h560v-145h-560z" />
<glyph unicode="&#x2011;" horiz-adv-x="755" d="M104 455v145h560v-145h-560z" />
<glyph unicode="&#x2012;" horiz-adv-x="755" d="M104 455v145h560v-145h-560z" />
<glyph unicode="&#x2013;" horiz-adv-x="1024" d="M41 471v156h942v-156h-942z" />
<glyph unicode="&#x2014;" horiz-adv-x="2048" d="M41 471v156h1966v-156h-1966z" />
<glyph unicode="&#x2015;" horiz-adv-x="2048" d="M41 471v156h1966v-156h-1966z" />
<glyph unicode="&#x2018;" horiz-adv-x="456" d="M127 1030v209l104 234h99l-58 -230h50v-213h-195z" />
<glyph unicode="&#x2019;" horiz-adv-x="456" d="M127 1030l57 232h-51v213h197v-209l-107 -236h-96z" />
<glyph unicode="&#x201a;" horiz-adv-x="456" d="M117 -238l57 230h-51v213h194v-209l-104 -234h-96z" />
<glyph unicode="&#x201c;" horiz-adv-x="614" d="M76 1030v209l104 234h96l-57 -230h51v-213h-194zM342 1030v209l104 234h99l-58 -230h50v-213h-195z" />
<glyph unicode="&#x201d;" horiz-adv-x="614" d="M86 1030l57 232h-49v213h195v-209l-105 -236h-98zM354 1030l58 232h-52v213h195v-209l-104 -236h-97z" />
<glyph unicode="&#x201e;" horiz-adv-x="759" d="M117 -238l57 230h-51v213h194v-209l-104 -234h-96zM434 -238l58 230h-52v213h195v-209l-105 -234h-96z" />
<glyph unicode="&#x2020;" horiz-adv-x="843" d="M35 807v139h311v479h154v-479h309v-139h-309v-1210h-154v1210h-311z" />
<glyph unicode="&#x2021;" horiz-adv-x="843" d="M35 274v140h311v393h-311v139h311v479h154v-479h309v-139h-309v-393h309v-140h-309v-677h-154v677h-311z" />
<glyph unicode="&#x2022;" horiz-adv-x="839" d="M162 571q0 53 20.5 101.5t55 84.5t82 56.5t102.5 20.5t102 -20.5t83 -56.5t56.5 -84.5t20.5 -101.5t-20.5 -101t-56.5 -83t-83 -55.5t-102 -20.5t-102.5 20.5t-82 55.5t-55 83t-20.5 101z" />
<glyph unicode="&#x2023;" horiz-adv-x="1036" d="M166 135v842l805 -410z" />
<glyph unicode="&#x2026;" horiz-adv-x="1449" d="M139 0v207h195v-207h-195zM621 0v207h194v-207h-194zM1112 0v207h195v-207h-195z" />
<glyph unicode="&#x202f;" horiz-adv-x="383" />
<glyph unicode="&#x2030;" horiz-adv-x="1859" d="M82 782v430q0 100 66.5 160t164.5 60q100 0 166 -59.5t66 -160.5v-430q0 -102 -67.5 -160.5t-164.5 -58.5q-96 0 -163.5 58.5t-67.5 160.5zM211 782q0 -47 27.5 -74.5t74.5 -27.5t75 27.5t28 74.5v430q0 43 -28 72t-75 29t-74.5 -29t-27.5 -72v-430zM227 -35l756 1497 h117l-758 -1497h-115zM791 203v446q0 49 18 89t51 66.5t74 41t88 14.5q45 0 87 -14.5t75 -41t51 -66.5t18 -89v-446q0 -51 -18 -90t-51 -66t-75 -41t-87 -14q-47 0 -88 14t-74 41t-51 66t-18 90zM920 203q0 -47 27.5 -70.5t74.5 -23.5t74.5 23.5t27.5 70.5v446 q0 43 -27.5 67.5t-74.5 24.5t-74.5 -24.5t-27.5 -67.5v-446zM1315 203v446q0 49 18.5 89t51 66.5t73.5 41t88 14.5q45 0 87 -14.5t75 -41t51.5 -66.5t18.5 -89v-446q0 -51 -18.5 -90t-51.5 -66t-75 -41t-87 -14q-47 0 -88 14t-73.5 41t-51 66t-18.5 90zM1444 203 q0 -47 27.5 -70.5t74.5 -23.5t75 23.5t28 70.5v446q0 43 -28 67.5t-75 24.5t-74.5 -24.5t-27.5 -67.5v-446z" />
<glyph unicode="&#x2039;" horiz-adv-x="591" d="M90 475l240 381h159l-235 -381l235 -381h-159z" />
<glyph unicode="&#x203a;" horiz-adv-x="571" d="M92 94l234 381l-234 381h160l240 -381l-240 -381h-160z" />
<glyph unicode="&#x2044;" horiz-adv-x="282" d="M-319 -35l755 1497h117l-758 -1497h-114z" />
<glyph unicode="&#x205f;" horiz-adv-x="479" />
<glyph unicode="&#x2070;" horiz-adv-x="575" d="M57 967v430q0 100 66.5 159.5t165.5 59.5q100 0 165.5 -59.5t65.5 -159.5v-430q0 -102 -67.5 -160.5t-163.5 -58.5t-164 58t-68 161zM186 967q0 -47 28 -75t75 -28t74.5 28t27.5 75v430q0 43 -27.5 71.5t-74.5 28.5t-75 -28.5t-28 -71.5v-430z" />
<glyph unicode="&#x2074;" horiz-adv-x="583" d="M27 883v108l241 619h138l-240 -613h180v238h129v-238h72v-114h-72v-127h-129v127h-319z" />
<glyph unicode="&#x2075;" horiz-adv-x="567" d="M39 956q35 4 66.5 8.5t66.5 8.5q6 -115 104 -115q39 0 60.5 18.5t32 47t12.5 61.5t2 62t-2 58.5t-12.5 53t-31 38.5t-56.5 15q-66 0 -101 -57h-117v455h441v-113h-320v-205h2q62 33 125 33q100 0 150.5 -62.5t50.5 -209.5q0 -66 -11.5 -121t-38 -97t-72.5 -66t-114 -24 q-219 0 -237 211z" />
<glyph unicode="&#x2076;" horiz-adv-x="571" d="M49 999q0 68 12.5 120t30.5 89l203 400h141l-178 -359q27 8 59 8q59 0 98.5 -19t63 -53t32.5 -77t9 -92q0 -135 -64 -201.5t-173 -66.5q-115 0 -174.5 58t-59.5 193zM182 1004q0 -29 3 -55.5t13.5 -47t30 -32t54.5 -11.5q59 0 81.5 41t22.5 94q0 25 -2 53.5t-11 51 t-29.5 39t-55.5 16.5t-55.5 -13.5t-32 -35t-15.5 -48t-4 -52.5z" />
<glyph unicode="&#x2077;" horiz-adv-x="520" d="M29 1380v230h469v-107l-281 -747h-133l272 737h-200v-113h-127z" />
<glyph unicode="&#x2078;" horiz-adv-x="575" d="M47 997q0 162 92 203q-47 20 -64.5 67.5t-17.5 110.5q0 123 69 179.5t161 56.5q96 0 162.5 -56.5t66.5 -179.5q0 -63 -17.5 -107t-64.5 -71q49 -25 70.5 -78t21.5 -125q0 -70 -20.5 -116.5t-54 -76.5t-76.5 -42t-88 -12q-47 0 -91 12t-77 42t-52.5 77t-19.5 116z M174 1006q0 -82 33 -115t80 -33q59 0 84.5 38t25.5 112q1 141 -110 141q-51 0 -82 -36t-31 -107zM182 1372q0 -123 105 -123q53 0 78.5 34t25.5 95q0 55 -24.5 89t-79.5 34q-53 0 -79 -34.5t-26 -94.5z" />
<glyph unicode="&#x2079;" horiz-adv-x="567" d="M49 1346q0 135 64.5 201.5t173.5 66.5q115 0 174 -58.5t59 -193.5q0 -68 -12 -120t-31 -89l-203 -399h-141l178 358q-27 -8 -59 -8q-59 0 -98 19.5t-62.5 53t-33 76.5t-9.5 93zM182 1368q0 -25 2 -53.5t11.5 -51t30 -39t55.5 -16.5q33 0 54 13.5t32.5 35t15.5 48t4 53.5 q0 29 -3 55.5t-13.5 46t-29.5 31.5t-54 12q-59 0 -82 -41t-23 -94z" />
<glyph unicode="&#x207a;" horiz-adv-x="585" d="M18 1069v98h224v211h104v-211h223v-98h-223v-213h-104v213h-224z" />
<glyph unicode="&#x207b;" horiz-adv-x="493" d="M57 1042v109h385v-109h-385z" />
<glyph unicode="&#x207c;" horiz-adv-x="585" d="M18 965v102h551v-102h-551zM18 1171v103h551v-103h-551z" />
<glyph unicode="&#x207d;" horiz-adv-x="333" d="M47 1130q0 156 64.5 285t152.5 227l76 -36q-74 -104 -118 -227.5t-44 -241.5q0 -129 44 -253t116 -222l-72 -50q-88 100 -153.5 232.5t-65.5 285.5z" />
<glyph unicode="&#x207e;" horiz-adv-x="333" d="M20 662q72 98 117 222t45 253q0 117 -43 240.5t-119 228.5l74 36q90 -98 154.5 -227t64.5 -285q0 -76 -17 -147.5t-48 -137t-71 -123.5t-85 -110z" />
<glyph unicode="&#x207f;" horiz-adv-x="628" d="M63 571v670h136v-65q63 74 159 73q86 0 145.5 -55t59.5 -152v-471h-135v430q0 55 -28.5 87t-86.5 32q-53 0 -83.5 -32.5t-30.5 -88.5v-428h-136z" />
<glyph unicode="&#x2080;" horiz-adv-x="575" d="M57 18v447q0 49 18.5 89t51.5 66.5t74 41t88 14.5q45 0 87 -14.5t74.5 -41t51 -66.5t18.5 -89v-447q0 -51 -18.5 -90t-51 -65.5t-74.5 -41t-87 -14.5q-47 0 -88 14.5t-74 41t-51.5 65.5t-18.5 90zM186 18q0 -47 28 -70.5t75 -23.5t74.5 23.5t27.5 70.5v447 q0 43 -27.5 67.5t-74.5 24.5t-75 -24.5t-28 -67.5v-447z" />
<glyph unicode="&#x2081;" horiz-adv-x="493" d="M98 444v134l131 92h125v-854h-129v716z" />
<glyph unicode="&#x2082;" horiz-adv-x="571" d="M53 -78l297 416q41 59 41 125q0 35 -22.5 64.5t-75.5 29.5q-47 0 -76 -36t-33 -101l-131 18q8 109 70.5 172.5t171.5 63.5t170 -54.5t61 -154.5q0 -45 -15 -93t-48 -93l-248 -342h303v-121h-465v106z" />
<glyph unicode="&#x2083;" horiz-adv-x="575" d="M49 461q10 92 74 152.5t166 60.5q63 0 107 -18.5t71 -49.5t39 -71.5t12 -85.5q0 -53 -14.5 -102.5t-69.5 -84.5q53 -31 70.5 -78t17.5 -118q0 -117 -58 -188t-181 -71q-104 0 -164 52.5t-68 158.5l131 17q6 -115 103 -115q66 0 87 48t21 106q0 57 -25.5 93t-91.5 36h-65 v108h61q68 0 91.5 37t23.5 92t-23.5 86t-76.5 31q-41 0 -70 -30.5t-37 -84.5z" />
<glyph unicode="&#x2084;" horiz-adv-x="583" d="M27 51l254 619h137l-252 -613h192v238h129v-238h72v-114h-72v-127h-129v127h-331v108z" />
<glyph unicode="&#x2085;" horiz-adv-x="567" d="M39 18q35 4 66.5 8.5t66.5 8.5q6 -115 104 -115q39 0 60.5 18.5t32 47t12.5 61.5t2 62t-2 58.5t-12.5 53t-31 38.5t-56.5 15q-66 0 -101 -57h-117v455h441v-113h-320v-205h2q62 33 125 33q100 0 150.5 -62.5t50.5 -209.5q0 -66 -11.5 -121t-38 -97t-72.5 -66t-114 -24 q-219 0 -237 211z" />
<glyph unicode="&#x2086;" horiz-adv-x="571" d="M49 59q0 68 12.5 120t30.5 89l203 400h141l-178 -359q27 8 59 8q59 0 98.5 -19t63 -53t32.5 -77t9 -92q0 -135 -64 -202t-173 -67q-115 0 -174.5 58.5t-59.5 193.5zM182 63q0 -29 3 -55t13.5 -46.5t30 -32t54.5 -11.5q59 0 81.5 41t22.5 94q0 25 -2 53.5t-11 51t-29.5 39 t-55.5 16.5t-55.5 -13.5t-32 -35t-15.5 -48t-4 -53.5z" />
<glyph unicode="&#x2087;" horiz-adv-x="520" d="M29 440v230h469v-107l-281 -747h-133l272 737h-200v-113h-127z" />
<glyph unicode="&#x2088;" horiz-adv-x="575" d="M47 55q0 162 92 203q-47 20 -64.5 67.5t-17.5 110.5q0 123 69 179.5t161 56.5q96 0 162.5 -56.5t66.5 -179.5q0 -63 -17.5 -107t-64.5 -71q49 -25 70.5 -78t21.5 -125q0 -70 -20.5 -117t-54 -76.5t-76.5 -42t-88 -12.5q-47 0 -91 12.5t-77 42t-52.5 77t-19.5 116.5z M174 63q0 -82 33 -114.5t80 -32.5q59 0 84.5 38t25.5 112q1 141 -110 141q-51 0 -82 -36t-31 -108zM182 430q0 -123 105 -123q53 0 78.5 34t25.5 95q0 55 -24.5 89t-79.5 34q-53 0 -79 -35t-26 -94z" />
<glyph unicode="&#x2089;" horiz-adv-x="567" d="M49 408q0 135 64.5 201.5t173.5 66.5q115 0 174 -58.5t59 -193.5q0 -68 -12 -120t-31 -89l-203 -399h-141l178 358q-27 -8 -59 -8q-59 0 -98 19.5t-62.5 53t-33 76.5t-9.5 93zM182 430q0 -25 2 -53.5t11.5 -51t30 -39t55.5 -16.5q33 0 54 13.5t32.5 35t15.5 48t4 53.5 q0 29 -3 55.5t-13.5 46t-29.5 31.5t-54 12q-59 0 -82 -41t-23 -94z" />
<glyph unicode="&#x208a;" horiz-adv-x="585" d="M18 129v98h224v211h104v-211h223v-98h-223v-213h-104v213h-224z" />
<glyph unicode="&#x208b;" horiz-adv-x="493" d="M57 102v109h385v-109h-385z" />
<glyph unicode="&#x208c;" horiz-adv-x="585" d="M18 25v102h551v-102h-551zM18 231v103h551v-103h-551z" />
<glyph unicode="&#x208d;" horiz-adv-x="333" d="M47 190q0 156 64.5 285t152.5 227l76 -36q-74 -104 -118 -227.5t-44 -241.5q0 -129 44 -253t116 -223l-72 -49q-88 100 -153.5 232.5t-65.5 285.5z" />
<glyph unicode="&#x208e;" horiz-adv-x="333" d="M20 -279q72 98 117 222.5t45 253.5q0 117 -43 240.5t-119 228.5l74 36q90 -98 154.5 -227t64.5 -285q0 -76 -17 -147.5t-48 -137t-71 -123.5t-85 -110z" />
<glyph unicode="&#x20ab;" horiz-adv-x="901" d="M135 643q0 82 10.5 158t40 134t86 94t148.5 36q53 0 95 -18.5t73 -51.5v170h-158v107h158v151h151v-151h90v-107h-90v-907h-151v72q-35 -41 -83 -60.5t-108 -19.5q-82 0 -133 30.5t-79.5 83t-39 124t-10.5 155.5zM147 0v141h623v-141h-623zM291 651q0 -57 5 -105 t20.5 -83t45 -54.5t80.5 -19.5q63 0 95 34t43 87q6 41 7 82t1 82q0 33 -1 66.5t-7 66.5q-8 53 -40 85t-98 32q-47 0 -76.5 -19.5t-46 -54.5t-22.5 -86t-6 -113z" />
<glyph unicode="&#x20ac;" horiz-adv-x="901" d="M29 547v106h80v121h-80v105h80v141q0 90 26.5 167t76.5 132t124 86t166 31q139 0 241.5 -75t137.5 -210l-164 -47q-23 72 -74 123t-141 51q-59 0 -101.5 -20.5t-70 -56.5t-39.5 -82t-12 -95v-145h362v-105h-362v-121h362v-106h-362v-158q0 -49 14 -93t41.5 -78 t69.5 -54.5t98 -20.5q92 0 144 49.5t81 129.5l154 -48q-35 -135 -136.5 -210.5t-242.5 -75.5q-92 0 -165 29.5t-123 85t-77.5 133t-27.5 172.5v139h-80z" />
<glyph unicode="&#x2103;" horiz-adv-x="1517" d="M78 1196q0 49 18.5 93t51 77t76.5 51.5t93 18.5t93.5 -18.5t77 -51.5t52 -77t19.5 -93t-19.5 -93t-52 -77t-76.5 -51.5t-94 -18.5q-49 0 -93 18.5t-76.5 51.5t-51 77t-18.5 93zM178 1196q0 -59 41 -100t98 -41q59 0 99.5 41t40.5 100t-40 99t-100 40q-57 0 -98 -40 t-41 -99zM672 414v598q0 90 27.5 167.5t81 134t131 89.5t175.5 33q145 0 251 -72t145 -201l-162 -63q-20 78 -78.5 125t-155.5 47q-59 0 -105 -21.5t-77 -56.5t-47 -82t-16 -96v-606q0 -51 16 -98.5t47 -83t77 -57t105 -21.5q92 0 152.5 47t81.5 127l162 -60 q-37 -135 -142.5 -205.5t-253.5 -70.5q-96 0 -173.5 31.5t-131 88t-82 134t-28.5 172.5z" />
<glyph unicode="&#x2105;" horiz-adv-x="1366" d="M88 1067q0 199 70 287t207 88q92 0 151 -44t82 -122q-29 -16 -62.5 -30.5t-62.5 -31.5q-14 47 -44 71t-64 24q-35 0 -60.5 -11.5t-42 -40t-26 -78t-9.5 -122.5q0 -102 29 -160.5t109 -58.5q41 0 67.5 25.5t40.5 66.5l119 -62q-29 -82 -85 -122.5t-149 -40.5 q-145 0 -207.5 93t-62.5 269zM244 -35q193 375 379 747.5t378 747.5h115q-190 -375 -377.5 -747.5t-380.5 -747.5h-114zM758 350q0 86 13 154.5t44 118t82 75t129 25.5q147 0 201.5 -95.5t54.5 -275.5q0 -190 -70.5 -277t-199.5 -87q-78 0 -127 25.5t-77 72.5t-39 113.5 t-11 150.5zM897 338q0 -45 3 -85t15.5 -70.5t37 -48t65.5 -17.5q74 0 99.5 58t25.5 187q0 117 -26.5 173.5t-92.5 56.5q-70 0 -98.5 -56.5t-28.5 -197.5z" />
<glyph unicode="&#x2109;" horiz-adv-x="1468" d="M74 1196q0 49 18.5 93t51 77t76.5 51.5t93 18.5t93.5 -18.5t77 -51.5t52 -77t19.5 -93t-19.5 -93t-52 -77t-77 -51.5t-93.5 -18.5t-93 18.5t-76.5 51.5t-51 77t-18.5 93zM174 1196q0 -59 41 -100t98 -41q59 0 99.5 41t40.5 100t-40 99t-100 40q-57 0 -98 -40t-41 -99z M690 0v1425h756v-159h-586v-473h502v-154h-502v-639h-170z" />
<glyph unicode="&#x2113;" horiz-adv-x="829" d="M49 424l141 125v518q0 106 19.5 181t54.5 121t82 66.5t103 20.5q88 0 144 -64.5t56 -195.5q0 -84 -20.5 -166t-62.5 -165t-103.5 -170t-143.5 -181v-115q0 -78 13.5 -133t36 -89t49 -49t55.5 -15q55 0 101.5 51t84.5 162l107 -39q-20 -57 -49 -112.5t-67 -98.5t-85 -69.5 t-106 -26.5t-107.5 25.5t-84.5 69.5t-55 105.5t-19 132.5v111q-4 -4 -18.5 -15.5t-30 -23.5t-29 -22.5t-15.5 -14.5zM319 674q106 147 161 274t55 252q0 20 -4.5 44t-14.5 45.5t-28.5 35.5t-47.5 14q-43 0 -82 -58t-39 -194v-413z" />
<glyph unicode="&#x2116;" horiz-adv-x="1613" d="M117 0v1425h166l342 -739l127 -293l8 2v1030h170v-1425h-164l-344 750l-127 284h-6v-1034h-172zM1024 1090q0 53 4 102t21 90q29 76 85 116t154 40q84 0 136.5 -32t80.5 -83q35 -61 35 -223q0 -82 -7 -139.5t-30 -96.5q-35 -59 -95 -86.5t-130 -27.5q-92 0 -151.5 37.5 t-82.5 103.5q-12 35 -16 90t-4 109zM1055 553v119h465v-119h-465zM1157 1077q0 -37 1 -69.5t11 -57.5q12 -39 39 -60.5t74 -21.5q84 0 113 76q10 23 12 64t2 94q0 49 -3 82t-9 55q-23 80 -113 80q-66 0 -96 -47q-14 -20 -22.5 -74.5t-8.5 -120.5z" />
<glyph unicode="&#x2117;" horiz-adv-x="1542" d="M104 698q0 154 47.5 286t134.5 228.5t209.5 150.5t274.5 54q150 0 273.5 -54t210.5 -150.5t135.5 -228.5t48.5 -286t-48.5 -283.5t-135.5 -226t-210.5 -150.5t-273.5 -54q-154 0 -276.5 54t-209.5 150.5t-133.5 226.5t-46.5 283zM227 698q0 -127 39 -235.5t109.5 -190.5 t171 -128t223.5 -46q125 0 226.5 46t171 128t107.5 190.5t38 235.5t-38 238t-108.5 192.5t-171 129t-225.5 47.5q-127 0 -227.5 -47.5t-170 -129t-107.5 -192.5t-38 -238zM561 236v876h262q125 0 192.5 -65.5t67.5 -200.5q0 -51 -13 -99.5t-44 -85t-80 -59t-119 -22.5h-141 v-344h-125zM686 696h135q80 0 108.5 46t28.5 104q0 70 -31.5 111.5t-105.5 41.5h-135v-303z" />
<glyph unicode="&#x2122;" horiz-adv-x="1550" d="M76 1307v118h555v-118h-213v-699h-129v699h-213zM733 606v817h127l227 -508l224 508h125v-817h-129l-2 492l-168 -359h-109l-166 361h-2v-494h-127z" />
<glyph unicode="&#x2126;" horiz-adv-x="1017" d="M68 0v160h145q-70 45 -96.5 131t-26.5 178v537q0 94 30 172.5t85 136t132 90.5t171 33q88 0 165 -31t133 -87t88 -136t32 -178v-537q0 -98 -28 -178t-95 -131h145v-160h-352v190q76 27 117 94.5t41 166.5v553q0 119 -65.5 193.5t-180.5 74.5q-121 0 -184.5 -78 t-63.5 -190v-553q0 -90 42 -161t120 -100l-2 -190h-352z" />
<glyph unicode="&#x212b;" horiz-adv-x="1015" d="M18 0l414 1425h154l415 -1425h-176l-90 324h-454l-88 -324h-175zM319 477h377l-104 369l-80 315h-8l-80 -313zM319 1624q0 37 14.5 68.5t39 55.5t57.5 38t72 14q35 0 66.5 -14t55 -38t38 -55.5t14.5 -68.5q0 -72 -51 -122t-123 -50q-78 0 -130.5 50t-52.5 122zM406 1624 q0 -37 27.5 -62.5t68.5 -25.5q37 0 63.5 25.5t26.5 62.5q0 39 -26.5 65.5t-63.5 26.5q-41 0 -68.5 -26.5t-27.5 -65.5z" />
<glyph unicode="&#x212e;" horiz-adv-x="1673" d="M125 674q0 141 56.5 265t154.5 216t229 145.5t279 53.5q152 0 280.5 -53.5t224 -146.5t151.5 -223t63 -284h-1164q0 -92 1 -188.5t1 -188.5q33 -53 82 -96t107.5 -73.5t124 -48t131.5 -17.5q135 0 251.5 59.5t198.5 161.5h127q-104 -129 -255.5 -204t-323.5 -75 q-147 0 -278.5 55.5t-229.5 151t-154.5 222t-56.5 268.5zM399 700h885v367q-31 51 -80 94t-107.5 73t-124 46t-126.5 16q-117 0 -234.5 -64.5t-210.5 -172.5v-82t-1 -97.5t-1 -98.5v-81z" />
<glyph unicode="&#x2153;" horiz-adv-x="1310" d="M125 1200v133l131 92h125v-854h-129v717zM168 -35l756 1497h116l-757 -1497h-115zM772 645q10 92 74 152.5t166 60.5q63 0 107 -18.5t71 -49t39 -71.5t12 -86q0 -53 -14.5 -102.5t-69.5 -84.5q53 -31 70.5 -77.5t17.5 -118.5q0 -117 -58.5 -187.5t-180.5 -70.5 q-104 0 -164 52t-68 159l131 16q6 -115 103 -115q66 0 87 48.5t21 105.5t-25.5 93t-91.5 36h-65v109h61q68 0 91.5 36.5t23.5 92.5q0 55 -23.5 85.5t-76.5 30.5q-41 0 -70 -30.5t-37 -83.5z" />
<glyph unicode="&#x2154;" horiz-adv-x="1310" d="M39 571v107l297 416q41 59 41 125q0 35 -22.5 64.5t-75.5 29.5q-47 0 -76 -36t-33 -101l-131 18q8 109 70.5 172.5t171.5 63.5t170 -54.5t61 -154.5q0 -45 -15.5 -93.5t-47.5 -93.5l-248 -342h303v-121h-465zM231 -35l756 1497h117l-758 -1497h-115zM770 645 q10 92 74 152.5t166 60.5q63 0 107 -18.5t70.5 -49t39 -71.5t12.5 -86q0 -53 -14.5 -102.5t-69.5 -84.5q53 -31 70.5 -77.5t17.5 -118.5q0 -117 -58.5 -187.5t-180.5 -70.5q-104 0 -164 52t-68 159l131 16q6 -115 103 -115q66 0 87 48.5t21 105.5t-25.5 93t-91.5 36h-65v109 h61q68 0 91.5 36.5t23.5 92.5q0 55 -23.5 85.5t-76.5 30.5q-41 0 -70 -30.5t-37 -83.5z" />
<glyph unicode="&#x2155;" horiz-adv-x="1310" d="M123 1200v133l131 92h125v-854h-129v717zM141 -35l756 1497h117l-758 -1497h-115zM754 203q35 4 66.5 8t66.5 8q6 -115 104 -115q39 0 60.5 18.5t32 47.5t12.5 61.5t2 61.5t-2 58.5t-12.5 53t-31 39t-57.5 15.5q-66 0 -100 -58h-117v455h441v-113h-320v-204h2 q62 32 125 32q100 0 150.5 -62.5t50.5 -209.5q0 -66 -11.5 -121t-38 -97t-72.5 -65.5t-114 -23.5q-219 0 -237 211z" />
<glyph unicode="&#x2156;" horiz-adv-x="1310" d="M31 571v107l297 416q41 59 41 125q0 35 -22.5 64.5t-76.5 29.5q-47 0 -75.5 -36t-32.5 -101l-131 18q8 109 70.5 172.5t170.5 63.5q109 0 170.5 -54.5t61.5 -154.5q0 -45 -15.5 -93.5t-48.5 -93.5l-247 -342h303v-121h-465zM215 -35l756 1497h116l-757 -1497h-115z M791 203q35 4 66.5 8t66.5 8q6 -115 104 -115q39 0 60.5 18.5t31.5 47.5t12.5 61.5t2.5 61.5t-2.5 58.5t-12.5 53t-30.5 39t-57.5 15.5q-66 0 -100 -58h-117v455h440v-113h-319v-204h2q62 32 125 32q100 0 150.5 -62.5t50.5 -209.5q0 -66 -11.5 -121t-38 -97t-72.5 -65.5 t-114 -23.5q-219 0 -237 211z" />
<glyph unicode="&#x2157;" horiz-adv-x="1310" d="M39 1217q10 92 74 152.5t166 60.5q63 0 107 -18.5t70.5 -49.5t39 -72t12.5 -86q0 -53 -14.5 -102t-69.5 -84q53 -31 70.5 -78t17.5 -119q0 -117 -58.5 -187.5t-181.5 -70.5q-104 0 -163.5 52.5t-67.5 158.5l131 17q6 -115 102 -115q66 0 87.5 48t21.5 105t-25.5 93 t-91.5 36h-65v109h61q68 0 91.5 37t23.5 92t-23.5 86t-77.5 31q-41 0 -69.5 -31t-36.5 -84zM188 -35l756 1497h117l-758 -1497h-115zM780 203q35 4 67 8t66 8q6 -115 105 -115q39 0 60.5 18.5t31.5 47.5t12 61.5t2 61.5t-2 58.5t-12 53t-30.5 39t-57.5 15.5q-66 0 -100 -58 h-117v455h440v-113h-319v-204h2q62 32 125 32q100 0 150 -62.5t50 -209.5q0 -66 -11 -121t-37.5 -97t-73 -65.5t-113.5 -23.5q-219 0 -238 211z" />
<glyph unicode="&#x2158;" horiz-adv-x="1310" d="M39 698v109l242 618h137l-240 -612h180v238h129v-238h72v-115h-72v-127h-129v127h-319zM231 -35l756 1497h117l-758 -1497h-115zM807 203q35 4 66.5 8t66.5 8q6 -115 104 -115q39 0 60.5 18.5t32 47.5t12.5 61.5t2 61.5t-2 58.5t-12.5 53t-31 39t-56.5 15.5 q-66 0 -101 -58h-117v455h441v-113h-320v-204h2q62 32 125 32q100 0 150.5 -62.5t50.5 -209.5q0 -66 -11.5 -121t-38 -97t-72.5 -65.5t-114 -23.5q-219 0 -237 211z" />
<glyph unicode="&#x2159;" horiz-adv-x="1310" d="M154 1200v133l131 92h125v-854h-129v717zM201 -35l755 1497h117l-758 -1497h-114zM729 244q0 68 12.5 120t30.5 89l203 399h141l-178 -358q27 8 59 8q59 0 98.5 -19.5t63 -53.5t32.5 -77t9 -92q0 -135 -64 -201.5t-173 -66.5q-115 0 -174.5 58.5t-59.5 193.5zM862 248 q0 -29 3 -55.5t13.5 -47t30 -32t54.5 -11.5q59 0 81.5 41t22.5 95q0 25 -2 53t-11.5 51t-29.5 39t-55 16t-55.5 -13t-32 -34.5t-15.5 -48.5t-4 -53z" />
<glyph unicode="&#x215a;" horiz-adv-x="1310" d="M70 772q35 4 66.5 8t66.5 8q6 -115 104 -114q39 0 60.5 18.5t32 47t12.5 61.5t2 61q0 29 -2 58.5t-12.5 53t-31 39t-57.5 15.5q-66 0 -100 -57h-117v454h441v-112h-320v-205h2q62 33 125 33q100 0 150.5 -62.5t50.5 -210.5q0 -66 -11.5 -121t-38 -97t-72.5 -65.5 t-114 -23.5q-219 0 -237 211zM244 -35l755 1497h117l-758 -1497h-114zM739 244q0 68 12.5 120t30.5 89l203 399h141l-178 -358q27 8 60 8q59 0 98 -19.5t62.5 -53.5t32.5 -77t9 -92q0 -135 -64 -201.5t-173 -66.5q-115 0 -174.5 58.5t-59.5 193.5zM872 248q0 -29 3.5 -55.5 t13.5 -47t29.5 -32t54.5 -11.5q59 0 81.5 41t22.5 95q0 25 -2 53t-11 51t-29.5 39t-55.5 16t-55.5 -13t-31.5 -34.5t-15.5 -48.5t-4.5 -53z" />
<glyph unicode="&#x215b;" horiz-adv-x="1310" d="M127 1200v133l131 92h125v-854h-129v717zM166 -35l756 1497h116l-757 -1497h-115zM745 240q0 162 93 202q-47 20 -64.5 67.5t-17.5 111.5q0 123 68.5 179t160.5 56q96 0 162.5 -56.5t66.5 -178.5q0 -63 -17 -107.5t-64 -71.5q49 -25 70.5 -77.5t21.5 -124.5 q0 -70 -20.5 -117t-54.5 -77t-77 -42t-88 -12q-47 0 -91 12t-77 42t-52.5 77t-19.5 117zM872 248q0 -82 33 -115t80 -33q59 0 85 38t26 112q0 141 -111 141q-51 0 -82 -36t-31 -107zM881 614q0 -123 104 -122q53 0 79 33.5t26 95.5q0 55 -25 88.5t-80 33.5 q-53 0 -78.5 -34.5t-25.5 -94.5z" />
<glyph unicode="&#x215c;" horiz-adv-x="1310" d="M41 1217q10 92 74 152.5t166 60.5q63 0 107 -18.5t70.5 -49.5t39 -72t12.5 -86q0 -53 -14.5 -102t-69.5 -84q53 -31 70.5 -78t17.5 -119q0 -117 -58.5 -187.5t-181.5 -70.5q-104 0 -163.5 52.5t-67.5 158.5l131 17q6 -115 102 -115q66 0 87.5 48t21.5 105t-25.5 93 t-91.5 36h-65v109h61q68 0 91.5 37t23.5 92t-23.5 86t-76.5 31q-41 0 -70 -31t-37 -84zM213 -35l756 1497h116l-757 -1497h-115zM774 240q0 162 92 202q-47 20 -64.5 67.5t-17.5 111.5q0 123 69 179t161 56q96 0 162.5 -56.5t66.5 -178.5q0 -63 -17.5 -107.5t-64.5 -71.5 q49 -25 70.5 -77.5t21.5 -124.5q0 -70 -20.5 -117t-54 -77t-76.5 -42t-88 -12q-47 0 -91 12t-77 42t-52.5 77t-19.5 117zM901 248q0 -82 33 -115t80 -33q59 0 84.5 38t25.5 112q1 141 -110 141q-51 0 -82 -36t-31 -107zM909 614q0 -123 105 -122q53 0 78.5 33.5t25.5 95.5 q0 55 -24.5 88.5t-79.5 33.5q-53 0 -79 -34.5t-26 -94.5z" />
<glyph unicode="&#x215d;" horiz-adv-x="1310" d="M59 772q35 4 67 8t67 8q6 -115 104 -114q39 0 60.5 18.5t31.5 47t12 61.5t2 61q0 29 -2 58.5t-12 53t-30.5 39t-57.5 15.5q-66 0 -100 -57h-117v454h440v-112h-319v-205h2q62 33 125 33q100 0 150 -62.5t50 -210.5q0 -66 -11 -121t-37.5 -97t-72.5 -65.5t-114 -23.5 q-219 0 -238 211zM223 -35l756 1497h117l-758 -1497h-115zM778 240q0 162 92 202q-47 20 -64.5 67.5t-17.5 111.5q0 123 69 179t161 56q96 0 162.5 -56.5t66.5 -178.5q0 -63 -17.5 -107.5t-64.5 -71.5q49 -25 70.5 -77.5t21.5 -124.5q0 -70 -20 -117t-54 -77t-77 -42 t-88 -12q-47 0 -91 12t-77 42t-52.5 77t-19.5 117zM905 248q0 -82 33 -115t80 -33q59 0 84.5 38t25.5 112q1 141 -110 141q-51 0 -82 -36t-31 -107zM913 614q0 -123 105 -122q53 0 78.5 33.5t25.5 95.5q0 55 -24.5 88.5t-79.5 33.5q-53 0 -79 -34.5t-26 -94.5z" />
<glyph unicode="&#x215e;" horiz-adv-x="1310" d="M90 1196v229h469v-106l-280 -748h-134l273 738h-201v-113h-127zM150 -35l755 1497h117l-758 -1497h-114zM735 240q0 162 92 202q-47 20 -64.5 67.5t-17.5 111.5q0 123 69 179t161 56q96 0 162.5 -56.5t66.5 -178.5q0 -63 -17.5 -107.5t-64.5 -71.5q49 -25 70.5 -77.5 t21.5 -124.5q0 -70 -20 -117t-54 -77t-77 -42t-88 -12q-47 0 -91 12t-77 42t-52.5 77t-19.5 117zM862 248q0 -82 33 -115t80 -33q59 0 84.5 38t25.5 112q1 141 -110 141q-51 0 -82 -36t-31 -107zM870 614q0 -123 105 -122q53 0 78.5 33.5t25.5 95.5q0 55 -24.5 88.5 t-79.5 33.5q-53 0 -79 -34.5t-26 -94.5z" />
<glyph unicode="&#x215f;" horiz-adv-x="765" d="M125 1200v133l131 92h125v-854h-129v717zM164 -35l756 1497h116l-757 -1497h-115z" />
<glyph unicode="&#x2190;" horiz-adv-x="1720" d="M168 657l450 455l95 -92l-299 -297h1181v-131l-1181 2l299 -297l-95 -92z" />
<glyph unicode="&#x2191;" horiz-adv-x="993" d="M53 979l453 451l455 -451l-93 -94l-297 291v-1174h-131v1174l-295 -291z" />
<glyph unicode="&#x2192;" horiz-adv-x="1720" d="M170 592v131h1182l-299 297l94 92l450 -455l-450 -452l-94 92l299 297z" />
<glyph unicode="&#x2193;" horiz-adv-x="993" d="M53 455l92 94l297 -299v1182h129v-1182l297 299l93 -94l-455 -451z" />
<glyph unicode="&#x2196;" horiz-adv-x="1720" d="M252 678v639l641 2v-129h-420l1096 -1098l-90 -92l-1096 1098l2 -420h-133z" />
<glyph unicode="&#x2198;" horiz-adv-x="1720" d="M250 1227l90 92l1096 -1098l-2 420h133l-2 -639l-639 -2l-2 129h422z" />
<glyph unicode="&#x21a9;" horiz-adv-x="1720" d="M70 657l450 455l94 -92l-299 -297h994q113 0 158.5 63.5t45.5 157.5v164q0 92 -48 142t-156 50h-152v127h162q90 0 152.5 -24.5t100.5 -68.5t55.5 -104.5t17.5 -129.5v-156q0 -160 -86 -256t-267 -96l-977 2l299 -297l-94 -92z" />
<glyph unicode="&#x21aa;" horiz-adv-x="1695" d="M72 944v156q0 70 17 130t55 104t100.5 68.5t152.5 24.5h162v-127h-151q-109 0 -157 -50t-48 -142v-164q0 -47 10 -87t34.5 -69.5t63.5 -47t97 -17.5h993l-299 297l94 92l451 -455l-451 -452l-94 92l299 297l-977 -2q-180 0 -266 96t-86 256z" />
<glyph unicode="&#x21b3;" horiz-adv-x="1720" d="M229 592v825h133v-694h1047l-299 297l94 92l451 -455l-451 -452l-94 92l299 297z" />
<glyph unicode="&#x21b5;" horiz-adv-x="1720" d="M168 657l450 455l95 -92l-299 -297h1046v694h133v-825l-1179 2l299 -297l-95 -92z" />
<glyph unicode="&#x21de;" horiz-adv-x="993" d="M53 979l453 451l455 -451l-93 -94l-295 291v-406h226v-131h-226v-156h226v-131h-226v-352h-133v352h-225v131h225v156h-225v131h225v406l-295 -291z" />
<glyph unicode="&#x21df;" horiz-adv-x="993" d="M53 451l92 94l297 -297l-2 411h-225v132h225v155h-225v131h225v353h133v-353h226v-131h-226v-155h226v-132h-226l-2 -411l297 297l93 -94l-455 -451z" />
<glyph unicode="&#x21e0;" horiz-adv-x="1720" d="M129 657l451 455l94 -92l-303 -297h272v-131l-272 2l303 -297l-94 -92zM780 592v131h164v-131h-164zM1083 592v131h166v-131h-166zM1389 592v131h165v-131h-165z" />
<glyph unicode="&#x21e1;" horiz-adv-x="993" d="M49 977l453 450l454 -450l-92 -94l-297 299v-269h-131l2 269l-297 -299zM436 2v166h131v-166h-131zM436 307v166h131v-166h-131zM436 612v164h131v-164h-131z" />
<glyph unicode="&#x21e2;" horiz-adv-x="1720" d="M129 592v131h166v-131h-166zM434 592v131h166v-131h-166zM739 592v131h164v-131h-164zM1010 297l303 297l-273 -2v131h273l-303 297l94 92l450 -455l-450 -452z" />
<glyph unicode="&#x21e3;" horiz-adv-x="993" d="M49 453l92 94l297 -299l-2 268h131v-268l297 299l92 -94l-454 -451zM436 653v164h131v-164h-131zM436 956v166h131v-166h-131zM436 1262v165h131v-165h-131z" />
<glyph unicode="&#x21e4;" horiz-adv-x="1720" d="M154 213v891h133v-891h-133zM416 657l450 455l95 -92l-299 -297h1009v-131l-1009 2l299 -297l-95 -92z" />
<glyph unicode="&#x21e5;" horiz-adv-x="1720" d="M156 592v131h1009l-299 297l95 92l450 -455l-450 -452l-95 92l299 297zM1540 213v891h133v-891h-133z" />
<glyph unicode="&#x21e7;" horiz-adv-x="1720" d="M113 651l757 776l758 -776h-379v-651h-757v651h-379zM367 750h235v-641h539v641h233l-504 522z" />
<glyph unicode="&#x21ea;" horiz-adv-x="1720" d="M92 651l758 776l758 -776h-379v-444h-758v444h-379zM346 750h236v-431h538v431h234l-504 522zM471 0h758v-385h-758v385zM582 -109v-165h538v165h-538z" />
<glyph unicode="&#x2202;" horiz-adv-x="901" d="M66 442q0 106 25.5 193.5t71.5 147t107.5 92t132.5 32.5q61 0 125 -22.5t129 -96.5q0 123 -22.5 225.5t-65.5 176.5t-103 115t-134 41q-23 0 -52.5 -4.5t-64.5 -16.5v131q68 20 131 21q125 0 213 -64.5t143.5 -171t81 -243t25.5 -279.5q0 -184 -29.5 -322.5t-84 -230.5 t-127 -139t-158.5 -47q-74 0 -137.5 29.5t-109.5 88t-71.5 144t-25.5 200.5zM209 446q0 -86 17.5 -146t46 -99t65.5 -57.5t78 -18.5q63 0 109 44t76 113.5t43 156.5t13 173q-63 100 -123.5 132t-119.5 32q-53 0 -92 -28.5t-64 -75.5t-37 -106t-12 -120z" />
<glyph unicode="&#x2206;" horiz-adv-x="1017" d="M18 0l414 1425h154l413 -1425h-981zM233 154h547q-8 31 -29.5 111.5t-50 184t-60.5 218t-58.5 215t-47 173t-24.5 93.5h-4q-14 -41 -38 -134t-52 -210q-47 -166 -93.5 -335t-89.5 -316z" />
<glyph unicode="&#x2207;" horiz-adv-x="1017" d="M18 1425h981l-413 -1425h-154zM233 1272q43 -147 89.5 -316.5t93.5 -334.5q29 -117 52.5 -210.5t37.5 -134.5h4q4 20 24.5 93t47 173.5t58.5 215t60.5 218t50 184.5t29.5 112h-547z" />
<glyph unicode="&#x220f;" horiz-adv-x="1075" d="M133 -170v1595h811v-1595h-172v1446h-469v-1446h-170z" />
<glyph unicode="&#x2211;" horiz-adv-x="835" d="M49 1284v141h719v-155h-532l278 -635l-276 -649h555v-158h-742v147l275 660z" />
<glyph unicode="&#x2212;" horiz-adv-x="901" d="M39 539v127h823v-127h-823z" />
<glyph unicode="&#x221a;" horiz-adv-x="921" d="M37 750l239 98l224 -735q70 385 139.5 758.5t138.5 760.5h137l-344 -1798h-127l-258 842q-27 -10 -56.5 -24.5t-55.5 -24.5z" />
<glyph unicode="&#x221e;" horiz-adv-x="1191" d="M31 557q0 63 21.5 119.5t58 96.5t87 63.5t105.5 23.5q47 0 90 -17.5t80 -45t68.5 -65.5t54.5 -77q59 92 130 148.5t173 56.5q111 0 183.5 -81t72.5 -222q0 -66 -20.5 -121t-57.5 -95t-86 -63.5t-106 -23.5q-45 0 -85 17.5t-77 46t-68.5 64.5t-58.5 75 q-61 -84 -134 -143.5t-173 -59.5q-53 0 -100.5 20.5t-82 60.5t-55 95t-20.5 127zM154 557q0 -80 43 -127t102 -47q66 0 123 48t94 124q-16 31 -39.5 62.5t-51.5 56t-58.5 40t-63.5 15.5q-59 0 -104 -48t-45 -124zM670 557q49 -72 100 -123t117 -51q59 0 103 49t44 125 q0 80 -43 126t-98 46q-66 0 -120 -47t-103 -125z" />
<glyph unicode="&#x2227;" horiz-adv-x="901" d="M55 0l322 1073h119l321 -1073h-135l-246 825l-248 -825h-133z" />
<glyph unicode="&#x2228;" horiz-adv-x="901" d="M55 1073h133l248 -829l246 829h135l-321 -1073h-119z" />
<glyph unicode="&#x2229;" horiz-adv-x="901" d="M61 0v643q0 86 25 163t72 136t115.5 94t158.5 35q88 0 159 -31.5t120 -89t75.5 -136.5t26.5 -171v-643h-133v643q0 55 -16.5 107.5t-49 93.5t-79 65.5t-103.5 24.5t-102 -22.5t-77 -62.5t-48.5 -92t-16.5 -114v-643h-127z" />
<glyph unicode="&#x222a;" horiz-adv-x="901" d="M61 426v645h127v-645q0 -59 16.5 -111.5t48.5 -91.5t77 -61.5t102 -22.5t103.5 24.5t79 64.5t49 92.5t16.5 105.5v645h133v-645q0 -92 -26.5 -170t-75.5 -135.5t-120 -89t-159 -31.5q-90 0 -158.5 35t-115.5 93t-72 136t-25 162z" />
<glyph unicode="&#x222b;" horiz-adv-x="647" d="M-55 -287q6 29 14 59.5t14 59.5q31 -6 49.5 -8t34.5 -2q43 0 75 14t53.5 53t35 105t19.5 168q6 127 9 321.5t7 440.5q0 76 4 147.5t10 136.5q16 193 86 284t203 91q29 0 68 -6t71 -16q-6 -29 -14 -60t-14 -59q-55 12 -90 12q-43 0 -73 -16.5t-50.5 -55.5t-31.5 -104.5 t-17 -163.5q-4 -61 -5.5 -149t-1.5 -185.5t-2 -197t-4 -185.5q-4 -90 -7 -173t-11 -156q-23 -201 -96.5 -288t-208.5 -87q-29 0 -62 5t-65 15z" />
<glyph unicode="&#x2248;" horiz-adv-x="901" d="M35 420q45 78 105.5 122t135.5 44q49 0 93.5 -17.5t87.5 -39t84 -39t82 -17.5q45 0 71.5 25.5t65.5 74.5l104 -71q-47 -78 -103 -127t-140 -49q-39 0 -82 18t-88 40t-89.5 40t-87.5 18q-47 0 -72.5 -22.5t-66.5 -69.5zM35 723q45 78 105.5 122t135.5 44q49 0 93.5 -17.5 t87.5 -39t84 -39t82 -17.5q45 0 71.5 25.5t65.5 75.5l104 -72q-47 -78 -103 -127t-140 -49q-39 0 -82 18.5t-88 40t-89.5 39.5t-87.5 18q-47 0 -72.5 -22.5t-66.5 -69.5z" />
<glyph unicode="&#x2260;" horiz-adv-x="901" d="M41 362v134h233l121 221h-354v133h428l152 272h135l-152 -272h260v-133h-334l-122 -221h456v-134h-530l-137 -249l-131 4l135 245h-160z" />
<glyph unicode="&#x2264;" horiz-adv-x="901" d="M45 2v135h813v-135h-813zM45 543v123l811 342v-154l-653 -250q74 -31 157.5 -61.5t169.5 -62t170 -62.5t156 -62v-151z" />
<glyph unicode="&#x2265;" horiz-adv-x="901" d="M47 2v135h813v-135h-813zM49 205v151q72 31 156 62t170 62.5t170 62t157 61.5l-653 250v154l811 -342v-123z" />
<glyph unicode="&#x2303;" horiz-adv-x="1628" d="M221 848l592 592l594 -592l-104 -107l-490 490l-485 -490z" />
<glyph unicode="&#x2318;" horiz-adv-x="1732" d="M133 276q0 57 19.5 110.5t57.5 92.5t92 62.5t124 23.5h145v297h-145q-59 0 -112.5 23.5t-93.5 62.5t-63.5 91.5t-23.5 111.5t21.5 112.5t60.5 93.5t92 62.5t119 22.5q72 0 126 -22.5t90 -62.5t54.5 -93.5t18.5 -112.5v-147h295v147q0 59 21.5 112.5t59 93.5t91 62.5 t118.5 22.5q70 0 124.5 -23.5t91 -63.5t55 -92.5t18.5 -111.5q0 -57 -22.5 -109.5t-61.5 -92.5t-92 -63.5t-113 -23.5h-147v-297h147q74 0 128.5 -23.5t90 -63.5t53 -92t17.5 -110q0 -59 -17.5 -111t-53 -92t-90 -63.5t-128.5 -23.5q-70 0 -124 23.5t-90.5 63.5t-56 92 t-19.5 111v148h-295v-148q0 -57 -18.5 -109t-54.5 -92t-90 -64.5t-126 -24.5q-68 0 -122 22.5t-92 62.5t-58.5 92t-20.5 113zM276 276q0 -63 42 -106t108 -43q61 0 103 43t42 106v148h-145q-66 0 -108 -44t-42 -104zM276 1151q0 -63 42 -105t108 -42h145v147q0 61 -43 104 t-102 43q-63 0 -106.5 -42t-43.5 -105zM715 565h295v297h-295v-297zM1153 276q0 -63 43 -106t104 -43t104.5 43t43.5 106q0 59 -43 103.5t-105 44.5h-147v-148zM1153 1004h147q61 0 104.5 43t43.5 104t-43 104t-105 43q-61 0 -104 -42t-43 -105v-147z" />
<glyph unicode="&#x2324;" horiz-adv-x="1628" d="M221 610l592 623l594 -623l-104 -106l-490 520l-485 -520zM221 1276v149h1188v-149h-1188z" />
<glyph unicode="&#x2325;" horiz-adv-x="2433" d="M90 1243v150h580l583 -1246h1074v-147h-1194l-584 1243h-459zM1081 1243v150h1246v-150h-1246z" />
<glyph unicode="&#x2326;" horiz-adv-x="2328" d="M197 0v1423h1343l690 -712l-690 -711h-1343zM338 141h1124l561 570l-561 569h-1124v-1139zM522 393l318 318l-318 319l101 100l315 -317l319 317l101 -100l-318 -319l318 -318l-101 -100l-319 319l-315 -319z" />
<glyph unicode="&#x232b;" horiz-adv-x="2385" d="M158 711l690 712h1343v-1423h-1343zM365 711l561 -570h1124v1139h-1124zM1010 393l317 318l-317 319l100 100l320 -317l315 317l100 -100l-317 -319l317 -318l-100 -100l-315 319l-320 -319z" />
<glyph unicode="&#x235f;" horiz-adv-x="1646" d="M94 711q0 150 56.5 281.5t154.5 230t230.5 155t283.5 56.5q150 0 282 -57.5t230.5 -156t154.5 -230.5t56 -281h-2q0 -150 -57.5 -282t-155.5 -230.5t-230 -154.5t-282 -56t-281 56t-229 154.5t-154.5 230.5t-56.5 284zM211 709q0 -125 47 -234.5t129 -191.5t192.5 -129.5 t235.5 -47.5t235.5 47.5t192.5 129.5t129 191.5t47 234.5t-47 235.5t-129 192.5t-192.5 129t-235.5 47t-235.5 -47t-192.5 -129t-129 -192.5t-47 -235.5zM311 848l334 65l154 304l164 -299l335 -70l-231 -232l53 -346l-321 156l-289 -156l43 338z" />
<glyph unicode="&#x23cf;" horiz-adv-x="1748" d="M135 186v279h1438v-279h-1438zM135 643l719 719l719 -719h-1438z" />
<glyph unicode="&#x25a0;" horiz-adv-x="1792" d="M252 82v1296h1296v-1296h-1296z" />
<glyph unicode="&#x25a1;" horiz-adv-x="1722" d="M170 0v1419h1407v-1419h-1407zM293 121h1163v1175h-1163v-1175z" />
<glyph unicode="&#x25b2;" horiz-adv-x="1679" d="M162 360l719 719l718 -719h-1437z" />
<glyph unicode="&#x25b6;" horiz-adv-x="1218" d="M283 0v1436l718 -717z" />
<glyph unicode="&#x25bc;" horiz-adv-x="1679" d="M162 1079h1437l-718 -719z" />
<glyph unicode="&#x25c0;" horiz-adv-x="1218" d="M207 719l719 717v-1436z" />
<glyph unicode="&#x25ca;" horiz-adv-x="690" d="M35 610l215 611h186l217 -611l-215 -608h-186zM176 606h4l164 -471h6l162 471l-168 475h-6z" />
<glyph unicode="&#x25cf;" horiz-adv-x="1726" d="M227 731q0 135 53.5 253t142.5 205t207 138t247 51t245.5 -51t205.5 -140t142.5 -207t53.5 -249t-51.5 -248.5t-140.5 -207t-206.5 -141.5t-248.5 -52q-133 0 -251 51t-207 140t-140.5 207t-51.5 251z" />
<glyph unicode="&#x25fc;" horiz-adv-x="1013" d="M0 0v1014h1014v-1014h-1014z" />
<glyph unicode="&#x2602;" horiz-adv-x="1597" d="M102 745q0 131 62.5 253t159 217.5t215 152.5t231.5 57v64h59v-66q113 0 231 -56t214 -150.5t157.5 -217t61.5 -254.5q-33 37 -82 58.5t-102 21.5q-47 0 -92.5 -19.5t-83.5 -60.5h-5q-47 80 -153 80q-57 0 -127 -28v-623q0 -86 -52.5 -138t-150.5 -52q-86 0 -142.5 48 t-56.5 152v27h97v-27q0 -57 27.5 -83.5t70.5 -26.5q33 0 53.5 10t31.5 26.5t15 37t4 40.5v607q-29 14 -55 19t-51 5q-53 0 -95 -20.5t-79 -55.5q-35 41 -82 60.5t-96 19.5q-51 0 -99.5 -19.5t-83.5 -60.5zM1493 745l2 -2q-2 0 -2 2z" />
<glyph unicode="&#x2605;" horiz-adv-x="1667" d="M86 874l510 99l233 463l252 -457l512 -105l-354 -354l80 -528l-490 239l-438 -239l66 514z" />
<glyph unicode="&#x2606;" horiz-adv-x="1716" d="M80 887l520 100l231 461l254 -457l521 -104l-361 -361l80 -530l-491 240l-447 -244l68 522zM199 850l313 -313l-55 -443l377 203l421 -203l-71 453l305 303l-436 88l-219 395l-201 -401z" />
<glyph unicode="&#x2610;" horiz-adv-x="1722" d="M170 0v1419h1407v-1419h-1407zM293 121h1163v1175h-1163v-1175z" />
<glyph unicode="&#x2611;" horiz-adv-x="1740" d="M170 0v1419h1407v-1419h-1407zM293 121h1163v1175h-1163v-1175zM397 745q35 29 78 40.5t72 11.5q18 0 44.5 -35t52.5 -90.5t47.5 -123t31.5 -134.5q57 98 139 212.5t175 226.5t190.5 207t187.5 152l23 -20q-55 -39 -115.5 -107.5t-123 -152.5t-124 -178.5t-117 -186.5 t-101.5 -175t-77 -146q-113 -23 -151 -43q-16 61 -44 146t-59.5 167t-65.5 145.5t-63 83.5z" />
<glyph unicode="&#x2612;" horiz-adv-x="1740" d="M170 0v1419h1407v-1419h-1407zM293 121h1163v1175h-1163v-1175zM379 326l389 389l-389 389l96 98l391 -393l387 393l97 -96l-387 -387l393 -393l-101 -97l-391 394l-391 -398z" />
<glyph unicode="&#x2622;" horiz-adv-x="1714" d="M102 719q0 137 53.5 270t152 239.5t236.5 172t308 65.5q160 0 299 -57t241.5 -156.5t161 -233.5t58.5 -290q0 -158 -58.5 -297t-160 -242.5t-239.5 -164t-298 -60.5q-158 0 -295 58.5t-239.5 160t-161 239.5t-58.5 296zM176 719q0 -143 54.5 -267t147.5 -216.5 t218 -144.5t264 -52q135 0 257 54t215 146.5t147.5 212t54.5 250.5q0 162 -58.5 291t-153.5 219.5t-218 139.5t-252 49q-139 0 -262 -54.5t-215 -147.5t-145.5 -217t-53.5 -263zM236 719q0 176 72.5 305t234.5 233l202 -352q-47 -29 -73.5 -77t-32.5 -109h-403zM547 184 l201 348q61 -29 110 -28q41 0 103 28l204 -350q-162 -84 -315 -84q-166 0 -303 86zM692 719q0 70 48 118t116 48q33 0 62.5 -14.5t51 -37t34 -52t12.5 -62.5t-12.5 -61.5t-34 -50t-51 -35t-62.5 -13.5q-63 0 -113.5 45t-50.5 115zM961 909l204 351q147 -82 229.5 -221.5 t82.5 -319.5h-404q-12 127 -112 190z" />
<glyph unicode="&#x2623;" horiz-adv-x="1753" d="M113 494q0 59 16 116.5t54 107.5t98.5 92t150.5 71q0 129 23.5 224t71.5 159.5t122 104.5t176 58l11 -30q-279 -81 -279 -310q0 -139 78 -220t227 -99v-45q-47 -10 -66.5 -38t-19.5 -56q0 -10 2 -19.5t6 -19.5l-39 -21q-123 147 -272 148q-59 0 -115.5 -24.5t-99.5 -66.5 t-69.5 -97.5t-26.5 -116.5q0 -45 12 -115l-22 -10q-16 51 -27.5 103t-11.5 104zM207 180l22 17q139 -123 240 -123q68 0 127 25.5t103 68.5t70 101.5t26 123.5q0 25 -5.5 62t-31.5 84l45 26q14 -23 35.5 -30t42.5 -7q37 0 67 35l47 -24q-35 -84 -34 -148q0 -63 24.5 -119.5 t67.5 -99.5t98 -67.5t117 -24.5q135 0 250 110l24 -16q-39 -53 -78 -87t-81 -53.5t-89 -26.5t-102 -7q-78 0 -158.5 21.5t-156.5 87.5q-86 -66 -166 -87.5t-152 -21.5q-53 0 -100 8t-89 28.5t-82 55.5t-81 88zM463 606q0 43 8 78h25q45 -4 86 -25v-61q0 -156 180 -246 q-4 -29 -15.5 -56t-27.5 -50q-57 25 -104.5 61.5t-81 84.5t-52 102.5t-18.5 111.5zM623 946q66 43 127 65.5t127 22.5q131 0 256 -88q-27 -55 -76 -88q-90 61 -176 62q-84 0 -183 -62q-29 16 -45 38t-30 50zM891 723v45q147 18 225 101.5t78 222.5q0 223 -242 303l11 32 q186 -41 274 -157.5t88 -317.5v-32.5t-2 -34.5q160 -63 237.5 -171t77.5 -245q0 -92 -36 -197l-27 9q16 88 16 133q0 61 -25.5 115.5t-68.5 94.5t-101.5 62.5t-123.5 22.5q-82 0 -146.5 -39t-113.5 -107l-47 27q6 20 6 41q0 33 -18.5 56.5t-61.5 35.5zM991 352 q180 90 180 254v24.5t-2 28.5q23 14 55.5 17.5t55.5 3.5q8 -33 8 -76q0 -111 -68.5 -207t-191.5 -151q-14 25 -23.5 51.5t-13.5 54.5z" />
<glyph unicode="&#x262e;" horiz-adv-x="1708" d="M96 723q0 154 58.5 289t160 234.5t236.5 156.5t289 57q160 0 298 -57t240.5 -156.5t160.5 -232.5t58 -285q0 -158 -59 -295t-162.5 -238.5t-243 -160t-296.5 -58.5q-150 0 -284 59.5t-235.5 161t-161 237.5t-59.5 288zM229 719q0 -55 5.5 -96t15.5 -74t25.5 -64.5 t37.5 -68.5l473 430v489q-123 -16 -225 -67t-176 -132t-115 -187.5t-41 -229.5zM383 324q47 -45 92 -82t92 -67t100.5 -49.5t118.5 -29.5v596zM903 100q121 14 219.5 69.5t190.5 154.5l-410 368v-592zM903 846l479 -428q37 66 58.5 141.5t21.5 169.5q0 119 -39 221.5 t-111.5 181t-176 132t-232.5 71.5v-489z" />
<glyph unicode="&#x262f;" horiz-adv-x="1695" d="M102 729q0 168 64.5 304t169 233.5t238 150.5t272.5 53q168 0 306 -60t236.5 -162.5t151.5 -239t53 -287.5q0 -168 -60 -304t-162.5 -233.5t-237 -149.5t-283.5 -52q-166 0 -304 62t-236.5 165.5t-153 239t-54.5 280.5zM500 1337l10 -8q43 12 86 12q84 0 152.5 -31.5 t116.5 -79.5t75 -104.5t27 -107.5q0 -104 -40 -193.5t-139 -187.5q-43 -43 -59 -105.5t-16 -105.5q0 -152 93 -237t263 -85q88 0 174 48.5t153.5 132.5t109.5 196.5t42 241.5q0 135 -50 263t-142 226.5t-221 159t-289 60.5q-92 0 -179 -24t-167 -71zM518 999 q0 -41 26.5 -71.5t73.5 -30.5q45 0 75 30.5t30 71.5q0 37 -28.5 69t-78.5 32q-35 0 -66.5 -28t-31.5 -73zM977 457q0 47 31.5 76.5t66.5 29.5q45 0 75 -32.5t30 -73.5q0 -45 -32 -73t-73 -28q-43 0 -70.5 32t-27.5 69z" />
<glyph unicode="&#x2672;" horiz-adv-x="1882" d="M102 862h433l174 -375l-123 72l-64 -57q-33 -31 -33 -60q0 -51 64 -51h393v-432h-379q-66 0 -92 21.5t-47 58.5l-231 426q-14 25 -19.5 51.5t-5.5 54.5q0 53 14.5 102.5t51.5 88.5zM188 831l97 -65q-39 -37 -60.5 -87t-21.5 -104q0 -59 19.5 -95t51 -55t70.5 -26.5 t76 -7.5h57q-23 16 -22 49q0 41 39 80l86 78l57 -35l-125 268h-324zM268 391l181 -334q18 -33 39.5 -52t68.5 -19h361v379h-486q-35 0 -58.5 2t-41 5t-32.5 8t-32 11zM365 1026l210 340q23 37 56 57.5t86 20.5h497q41 0 56.5 -5t29.5 -28l109 -178l131 78l-172 -393l-432 43 l123 77l-94 166l-254 -379zM408 1032l294 -170l246 371q-39 76 -97 125t-146 49q-59 0 -99 -57zM801 1417q63 -14 105 -67.5t79 -118.5l115 -205l-76 -47l326 -31l137 297l-82 -53l-121 190q-12 20 -26.5 27.5t-38.5 7.5h-418zM1001 160l226 346v-144h223l-236 400l353 209 l194 -361q18 -37 19 -61q0 -23 -7.5 -42.5t-17.5 -37.5l-221 -397q-18 -33 -31.5 -54.5t-27 -35t-31 -18.5t-43.5 -5h-172v-158zM1036 160l166 -266v92h197q18 0 41.5 10t42.5 43l211 385q-66 -61 -138.5 -76.5t-181.5 -15.5h-172v90zM1251 754l236 -392q39 4 84 20.5 t84 42.5t64.5 58.5t25.5 69.5q0 14 -4 26.5t-8 22.5l-183 326z" />
<glyph unicode="&#x2673;" horiz-adv-x="1779" d="M102 213q0 74 50 160l149 268l-94 51l14 27l242 45l86 -229l-17 -31l-96 59l-131 -237q-27 -49 -26 -88q0 -37 27.5 -62.5t92.5 -25.5h406v-150h-436q-123 0 -195 58.5t-72 154.5zM449 897l217 379q45 78 101 111.5t118 33.5q63 0 121.5 -36.5t95.5 -102.5l149 -264 l105 59l12 -28l-90 -230l-248 43l-12 25l100 55l-145 246q-16 29 -40 45t-52 16q-29 0 -55.5 -20.5t-43.5 -50.5l-202 -357zM739 662v116l86 62h101v-594h-113v467zM913 74l160 200l27 -4v-120h262q74 0 107.5 24.5t33.5 65.5q0 39 -33 94l-204 348l137 80l227 -397 q47 -80 47 -150q0 -98 -83 -156.5t-210 -58.5h-286v-121h-33z" />
<glyph unicode="&#x2674;" horiz-adv-x="1779" d="M102 213q0 74 50 160l149 268l-94 51l14 27l242 45l86 -229l-17 -31l-96 59l-131 -237q-27 -49 -26 -88q0 -37 27.5 -62.5t92.5 -25.5h406v-150h-436q-123 0 -195 58.5t-72 154.5zM449 897l217 379q45 78 101 111.5t118 33.5q63 0 121.5 -36.5t95.5 -102.5l149 -264 l105 59l12 -28l-90 -230l-248 43l-12 25l100 55l-145 246q-16 29 -40 45t-52 16q-29 0 -55.5 -20.5t-43.5 -50.5l-202 -357zM674 254v94l219 275q29 31 29 67q0 23 -16.5 41.5t-47.5 18.5q-29 0 -48 -24t-26 -64l-106 12q12 86 63.5 132t116.5 46q74 0 123 -41t49 -119 q0 -29 -10 -60.5t-33 -60.5l-170 -213h203v-104h-346zM913 74l160 200l27 -4v-120h262q74 0 107.5 24.5t33.5 65.5q0 39 -33 94l-204 348l137 80l227 -397q47 -80 47 -150q0 -98 -83 -156.5t-210 -58.5h-286v-121h-33z" />
<glyph unicode="&#x2675;" horiz-adv-x="1779" d="M102 213q0 74 50 160l149 268l-94 51l14 27l242 45l86 -229l-17 -31l-96 59l-131 -237q-27 -49 -26 -88q0 -37 27.5 -62.5t92.5 -25.5h406v-150h-436q-123 0 -195 58.5t-72 154.5zM449 897l217 379q45 78 101 111.5t118 33.5q63 0 121.5 -36.5t95.5 -102.5l149 -264 l105 59l12 -28l-90 -230l-248 43l-12 25l100 55l-145 246q-16 29 -40 45t-52 16q-29 0 -55.5 -20.5t-43.5 -50.5l-202 -357zM674 406l104 14q8 -39 27.5 -55.5t44.5 -16.5q37 0 58.5 25.5t21.5 62.5q0 39 -21.5 58.5t-54.5 19.5h-59v98h53q33 0 54.5 19.5t21.5 48.5 t-20.5 49.5t-49.5 20.5q-23 0 -41 -19.5t-29 -54.5l-106 12q14 72 63.5 118t112.5 46q92 0 134 -51t42 -119q0 -31 -10 -59.5t-45 -55.5q35 -29 47 -61.5t12 -67.5q0 -86 -50 -138t-136 -52q-29 0 -56.5 7t-51 25.5t-41 49t-25.5 76.5zM913 74l160 200l27 -4v-120h262 q74 0 107.5 24.5t33.5 65.5q0 39 -33 94l-204 348l137 80l227 -397q47 -80 47 -150q0 -98 -83 -156.5t-210 -58.5h-286v-121h-33z" />
<glyph unicode="&#x2676;" horiz-adv-x="1779" d="M102 213q0 74 50 160l149 268l-94 51l14 27l242 45l86 -229l-17 -31l-96 59l-131 -237q-27 -49 -26 -88q0 -37 27.5 -62.5t92.5 -25.5h406v-150h-436q-123 0 -195 58.5t-72 154.5zM449 897l217 379q45 78 101 111.5t118 33.5q63 0 121.5 -36.5t95.5 -102.5l149 -264 l105 59l12 -28l-90 -230l-248 43l-12 25l100 55l-145 246q-16 29 -40 45t-52 16q-29 0 -55.5 -20.5t-43.5 -50.5l-202 -357zM633 342v88l196 422h115l-190 -410h118v144h105v-144h45v-100h-45v-84h-105v84h-239zM913 74l160 200l27 -4v-120h262q74 0 107.5 24.5t33.5 65.5 q0 39 -33 94l-204 348l137 80l227 -397q47 -80 47 -150q0 -98 -83 -156.5t-210 -58.5h-286v-121h-33z" />
<glyph unicode="&#x2677;" horiz-adv-x="1779" d="M102 213q0 74 50 160l149 268l-94 51l14 27l242 45l86 -229l-17 -31l-96 59l-131 -237q-27 -49 -26 -88q0 -37 27.5 -62.5t92.5 -25.5h406v-150h-436q-123 0 -195 58.5t-72 154.5zM449 897l217 379q45 78 101 111.5t118 33.5q63 0 121.5 -36.5t95.5 -102.5l149 -264 l105 59l12 -28l-90 -230l-248 43l-12 25l100 55l-145 246q-16 29 -40 45t-52 16q-29 0 -55.5 -20.5t-43.5 -50.5l-202 -357zM684 397l104 21q16 -78 74 -78q27 0 42.5 11t23.5 28.5t11 38t3 39.5q0 39 -13.5 70.5t-58.5 31.5q-20 0 -36.5 -14.5t-30.5 -36.5h-96v332h309 v-103h-209v-96q20 10 39.5 14t40.5 4q78 0 117.5 -51t39.5 -131v-37q0 -84 -45 -141t-137 -57q-63 0 -111.5 32.5t-66.5 122.5zM913 74l160 200l27 -4v-120h262q74 0 107.5 24.5t33.5 65.5q0 39 -33 94l-204 348l137 80l227 -397q47 -80 47 -150q0 -98 -83 -156.5 t-210 -58.5h-286v-121h-33z" />
<glyph unicode="&#x2678;" horiz-adv-x="1779" d="M102 213q0 74 50 160l149 268l-94 51l14 27l242 45l86 -229l-17 -31l-96 59l-131 -237q-27 -49 -26 -88q0 -37 27.5 -62.5t92.5 -25.5h406v-150h-436q-123 0 -195 58.5t-72 154.5zM449 897l217 379q45 78 101 111.5t118 33.5q63 0 121.5 -36.5t95.5 -102.5l149 -264 l105 59l12 -28l-90 -230l-248 43l-12 25l100 55l-145 246q-16 29 -40 45t-52 16q-29 0 -55.5 -20.5t-43.5 -50.5l-202 -357zM694 426q0 29 7.5 61.5t25.5 67.5q35 68 75 141.5t75 143.5h114l-112 -232h12q72 0 117 -52t45 -124q0 -49 -15.5 -86t-41 -59.5t-58.5 -33.5 t-68 -11q-78 0 -127 46t-49 138zM801 428q0 -41 19.5 -63.5t51.5 -22.5q29 0 49.5 22.5t20.5 63.5t-20.5 61.5t-49.5 20.5t-50 -20.5t-21 -61.5zM913 74l160 200l27 -4v-120h262q74 0 107.5 24.5t33.5 65.5q0 39 -33 94l-204 348l137 80l227 -397q47 -80 47 -150 q0 -98 -83 -156.5t-210 -58.5h-286v-121h-33z" />
<glyph unicode="&#x2679;" horiz-adv-x="1779" d="M102 213q0 74 50 160l149 268l-94 51l14 27l242 45l86 -229l-17 -31l-96 59l-131 -237q-27 -49 -26 -88q0 -37 27.5 -62.5t92.5 -25.5h406v-150h-436q-123 0 -195 58.5t-72 154.5zM449 897l217 379q45 78 101 111.5t118 33.5q63 0 121.5 -36.5t95.5 -102.5l149 -264 l105 59l12 -28l-90 -230l-248 43l-12 25l100 55l-145 246q-16 29 -40 45t-52 16q-29 0 -55.5 -20.5t-43.5 -50.5l-202 -357zM692 641v188h352v-90l-200 -503h-115l195 489h-125v-84h-107zM913 74l160 200l27 -4v-120h262q74 0 107.5 24.5t33.5 65.5q0 39 -33 94l-204 348 l137 80l227 -397q47 -80 47 -150q0 -98 -83 -156.5t-210 -58.5h-286v-121h-33z" />
</font>
</defs>
</svg>
