<?xml version="1.0" encoding="UTF-8"?>
<!DOCTYPE svg PUBLIC "-//W3C//DTD SVG 1.1//EN" "http://www.w3.org/Graphics/SVG/1.1/DTD/svg11.dtd">
<!-- Creator: CorelDRAW X7 -->
<svg xmlns="http://www.w3.org/2000/svg" xml:space="preserve" width="82px" height="82px" version="1.1" style="shape-rendering:geometricPrecision; text-rendering:geometricPrecision; image-rendering:optimizeQuality; fill-rule:evenodd; clip-rule:evenodd"
viewBox="0 0 820000 820000"
 xmlns:xlink="http://www.w3.org/1999/xlink">
 <defs>
  <style type="text/css">
   <![CDATA[
    .fil0 {fill:#AF203B}
    .fil2 {fill:#FEFEFE}
    .fil1 {fill:#FEFEFE;fill-rule:nonzero}
    .fil3 {fill:white;fill-rule:nonzero}
   ]]>
  </style>
 </defs>
 <g id="Слой_x0020_1">
  <metadata id="CorelCorpID_0Corel-Layer"/>
  <g id="_2310457320384">
   <path class="fil0" d="M64453 -2327l691082 0c36732,0 66780,30060 66780,66792l0 691070c0,36732 -30048,66792 -66780,66792l-691082 0c-36732,0 -66780,-30060 -66780,-66792l0 -691070c0,-36732 30048,-66792 66780,-66792z"/>
   <path class="fil1" d="M711798 550446c-1098,-2338 -2657,-4382 -4677,-6189 -2020,-1771 -4287,-3177 -6791,-4193 -2493,-1027 -5032,-1535 -7583,-1571 -2717,0 -5303,461 -7748,1382 -2422,886 -4607,2174 -6485,3815 -1889,1666 -3366,3662 -4441,5977 -1110,2315 -1641,4901 -1677,7724 36,3118 709,5811 1973,8020 1287,2209 2988,4087 5114,5646 2126,1535 4465,2858 7016,3992 2563,1098 5114,2090 7701,3012 2527,838 4866,1807 7074,2905 2186,1134 3981,2610 5327,4465 1382,1854 2103,4287 2126,7323 -23,3153 -779,6000 -2256,8504 -1476,2527 -3496,4547 -6000,6023 -2527,1489 -5386,2245 -8527,2268 -3284,-23 -6142,-673 -8587,-1972 -2457,-1288 -4500,-3059 -6142,-5327 -1642,-2256 -2929,-4890 -3850,-7878 -1996,-4500 -8185,-2445 -7099,2256 1051,4063 2799,7559 5244,10500 2445,2929 5434,5185 8941,6779 3473,1583 7312,2398 11493,2422 3354,-24 6508,-591 9413,-1701 2906,-1122 5433,-2717 7642,-4784 2185,-2043 3909,-4500 5114,-7346 1240,-2823 1855,-5977 1890,-9425 -35,-3815 -709,-6993 -2020,-9556 -1299,-2551 -3047,-4618 -5197,-6259 -2149,-1642 -4523,-3024 -7075,-4099 -2586,-1075 -5173,-2067 -7759,-2988 -2552,-910 -4926,-1878 -7075,-2988 -2150,-1075 -3898,-2422 -5197,-4063 -1311,-1607 -1984,-3685 -2020,-6213 36,-2185 685,-4146 1913,-5894 1241,-1748 2800,-3118 4737,-4146 1937,-1051 3956,-1559 6118,-1582 2929,23 5539,779 7795,2256 2292,1476 4040,3531 5280,6141 2126,4371 8421,1524 6295,-3236zm-57485 -2740c-3744,-3154 -7771,-5469 -12165,-6969 -4358,-1511 -8988,-2244 -13831,-2244 -5516,36 -10606,1052 -15260,3024 -4677,1961 -8717,4701 -12189,8232 -3472,3520 -6142,7642 -8079,12319 -1901,4689 -2870,9745 -2905,15190 35,5480 1004,10570 2882,15307 1889,4712 4523,8858 7972,12401 3413,3556 7453,6331 12106,8315 4654,1997 9745,3024 15308,3048 5043,-24 9850,-922 14480,-2693 4606,-1772 8835,-4299 12650,-7642 3165,-3035 331,-9012 -4512,-5221 -1075,839 -2114,1725 -3236,2504 -2906,1997 -6024,3556 -9366,4630 -3308,1075 -6756,1642 -10335,1642 -4418,-23 -8504,-921 -12213,-2669 -3720,-1725 -6980,-4110 -9720,-7134 -2776,-3012 -4902,-6425 -6426,-10299 -1535,-3851 -2291,-7914 -2315,-12189 24,-4288 803,-8316 2339,-12142 1535,-3851 3685,-7241 6484,-10205 2776,-2988 6024,-5327 9768,-7016 3744,-1724 7831,-2587 12248,-2610 5303,23 10146,1075 14481,3142 2445,1169 4665,2763 6956,4370 5292,3708 8044,-2493 4878,-5091zm-82146 -3898c-425,-5374 -7264,-4323 -7264,0l0 70903c0,4417 7264,4429 7264,0l0 -70903zm-35682 3083l13075 0c4524,0 4524,-6780 0,-6780l-13075 0 0 -20019c0,-5115 -7263,-5091 -7263,0l0 20019 -8233 0c-4960,0 -4960,6780 0,6780l8233 0 0 66969c0,4819 7263,4819 7263,0l0 -66969zm-93213 24390c354,-3531 1323,-6862 2965,-9992 1606,-3118 3732,-5894 6342,-8280 2646,-2397 5634,-4287 8988,-5657 3367,-1347 6945,-2044 10772,-2067 3851,23 7394,720 10654,2126 3260,1393 6142,3307 8646,5728 2492,2421 4511,5162 6071,8292 1570,3094 2586,6378 3047,9850l-57485 0zm64749 6780c23,-5410 -756,-10500 -2363,-15237 -1594,-4760 -3933,-8964 -7027,-12590 -3095,-3662 -6862,-6508 -11303,-8587 -4441,-2043 -9497,-3118 -15154,-3154 -5457,36 -10418,1087 -14859,3130 -4405,2044 -8232,4866 -11409,8445 -3177,3579 -5599,7701 -7311,12331 -1701,4654 -2563,9603 -2587,14859 24,5326 862,10334 2528,15011 1701,4713 4122,8859 7264,12461 3153,3603 6945,6402 11385,8481 4441,2043 9449,3094 14989,3118 4925,0 9472,-803 13701,-2374 4193,-1559 7960,-3839 11303,-6827 3331,-3012 6130,-6673 8421,-10984 2055,-4229 -3909,-7323 -6130,-3556 -1783,3367 -3992,6296 -6626,8859 -2610,2527 -5575,4488 -8882,5917 -3330,1429 -6945,2162 -10819,2185 -4334,-23 -8338,-779 -12023,-2268 -3662,-1500 -6863,-3626 -9579,-6401 -2693,-2776 -4796,-6083 -6225,-9933 -1452,-3851 -2149,-8150 -2043,-12886l64749 0zm-174545 -35788c0,-4984 -7276,-4571 -7276,0l0 72438c0,3697 7276,3708 7276,0l0 -41009c0,-2456 130,-4984 425,-7618 295,-2610 838,-5161 1594,-7618 780,-2469 1855,-4677 3248,-6673 1371,-1996 3178,-3555 5363,-4737 2173,-1157 4819,-1748 7937,-1771 3602,23 6508,697 8716,2019 2233,1312 3898,3095 5056,5327 1133,2233 1901,4737 2291,7500 390,2776 567,5634 567,8563l0 46017c0,4086 7264,3885 7264,0l0 -42946c0,-3260 260,-6460 838,-9578 579,-3119 1559,-5977 2953,-8505 1429,-2539 3366,-4582 5870,-6082 2528,-1512 5705,-2292 9555,-2315 3520,23 6355,614 8504,1771 2126,1158 3745,2717 4819,4737 1075,2019 1819,4311 2174,6921 366,2575 484,5327 484,8209l0 47788c0,4252 7276,4263 7276,0l0 -46820c0,-4122 -296,-7937 -922,-11468 -638,-3544 -1771,-6674 -3413,-9343 -1666,-2693 -4016,-4783 -7051,-6295 -3012,-1500 -6945,-2256 -11705,-2292 -3201,0 -6189,520 -8989,1536 -2799,1027 -5303,2563 -7488,4583 -2173,1984 -3957,4488 -5327,7452 -1960,-4393 -4759,-7724 -8374,-10063 -3602,-2315 -7830,-3472 -12614,-3508 -2669,0 -5197,437 -7618,1300 -2421,862 -4607,2126 -6508,3744 -1914,1641 -3449,3626 -4606,5941l-319 0 0 -7205zm-30201 8173c-1099,-2338 -2658,-4382 -4678,-6189 -2019,-1771 -4287,-3177 -6791,-4193 -2492,-1027 -5032,-1535 -7583,-1571 -2716,0 -5303,461 -7748,1382 -2421,886 -4606,2174 -6484,3815 -1890,1666 -3366,3662 -4441,5977 -1110,2315 -1642,4901 -1677,7724 35,3118 708,5811 1972,8020 1287,2209 2988,4087 5114,5646 2126,1535 4465,2858 7016,3992 2563,1098 5114,2090 7701,3012 2528,838 4866,1807 7075,2905 2185,1134 3980,2610 5327,4465 1382,1854 2102,4287 2126,7323 -24,3153 -780,6000 -2256,8504 -1477,2527 -3496,4547 -6000,6023 -2528,1489 -5386,2245 -8528,2268 -3283,-23 -6142,-673 -8587,-1972 -2456,-1288 -4500,-3059 -6141,-5327 -1642,-2256 -2930,-4890 -3851,-7878 -1559,-3898 -8091,-2362 -7098,2256 1051,4063 2799,7559 5244,10500 2445,2929 5433,5185 8941,6779 3472,1583 7311,2398 11492,2422 3354,-24 6508,-591 9414,-1701 2905,-1122 5433,-2717 7641,-4784 2185,-2043 3910,-4500 5115,-7346 1240,-2823 1854,-5977 1889,-9425 -35,-3815 -708,-6993 -2019,-9556 -1300,-2551 -3048,-4618 -5197,-6259 -2150,-1642 -4524,-3024 -7075,-4099 -2587,-1075 -5173,-2067 -7760,-2988 -2551,-910 -4913,-1878 -7075,-2988 -2150,-1075 -3898,-2422 -5197,-4063 -1311,-1607 -1984,-3685 -2008,-6213 24,-2185 674,-4146 1902,-5894 1240,-1748 2799,-3118 4736,-4146 1937,-1051 3957,-1559 6118,-1582 2929,23 5540,779 7796,2256 2291,1476 4039,3531 5279,6141 2799,4087 7926,1678 6296,-3236zm-94950 -5161c4630,23 8917,827 12839,2445 3933,1618 7382,3874 10311,6779 2929,2941 5197,6331 6838,10252 1607,3910 2445,8185 2469,12815 -24,4548 -862,8741 -2504,12615 -1642,3886 -3921,7275 -6886,10145 -2929,2882 -6378,5150 -10276,6756 -3933,1619 -8185,2434 -12791,2457 -4406,-23 -8504,-921 -12272,-2610 -3732,-1701 -7016,-4040 -9815,-7028 -2799,-2964 -4984,-6354 -6543,-10193 -1559,-3827 -2339,-7866 -2363,-12142 24,-4358 804,-8480 2339,-12330 1535,-3874 3709,-7312 6484,-10300 2800,-2988 6083,-5327 9851,-7051 3744,-1701 7854,-2587 12319,-2610zm484 -6792c-5433,36 -10488,1087 -15177,3095 -4677,2020 -8800,4819 -12296,8398 -3519,3578 -6295,7724 -8256,12413 -1972,4713 -2988,9768 -3023,15177 35,5327 1051,10312 3047,14989 1984,4653 4736,8752 8291,12331 3520,3543 7642,6342 12296,8338 4677,2020 9709,3071 15118,3095 5528,-24 10666,-1028 15402,-2965 4736,-1960 8905,-4677 12461,-8209 3578,-3496 6342,-7606 8338,-12319 1996,-4712 3012,-9850 3048,-15425 -36,-5563 -1052,-10713 -3048,-15413 -1996,-4713 -4760,-8835 -8338,-12331 -3556,-3520 -7725,-6248 -12461,-8209 -4736,-1937 -9874,-2929 -15402,-2965zm-51343 9213c-3744,-3154 -7772,-5469 -12165,-6969 -4359,-1511 -8989,-2244 -13831,-2244 -5516,36 -10607,1052 -15260,3024 -4677,1961 -8717,4701 -12189,8232 -3473,3520 -6142,7642 -8079,12319 -1902,4689 -2870,9745 -2906,15190 36,5480 1004,10570 2882,15307 1890,4712 4524,8858 7961,12401 3425,3556 7465,6331 12118,8315 4654,1997 9744,3024 15307,3048 5032,-24 9851,-922 14481,-2693 4606,-1772 8835,-4299 12650,-7642 3850,-3697 956,-9000 -4382,-5339 -1181,804 -2197,1819 -3367,2622 -2905,1997 -6035,3556 -9366,4630 -3307,1075 -6756,1642 -10334,1642 -4418,-23 -8505,-921 -12213,-2669 -3721,-1725 -6981,-4110 -9721,-7134 -2775,-3012 -4901,-6425 -6437,-10299 -1523,-3851 -2279,-7914 -2315,-12189 36,-4288 815,-8316 2351,-12142 1535,-3851 3685,-7241 6484,-10205 2764,-2988 6024,-5327 9768,-7016 3744,-1724 7831,-2587 12248,-2610 5291,23 10146,1075 14480,3142 2587,1228 5020,2787 7311,4665 5374,3342 7583,-3319 4524,-5386zm414701 -28028c-425,-5374 -7264,-4287 -7264,0l0 9012c0,4382 7264,4417 7264,0l0 -9012z"/>
   <path class="fil2" d="M529222 493517l82 0 197140 0 94 0c1867,0 3378,1523 3378,3389 0,1878 -1511,3390 -3378,3390l-129 0 -197057 0 -130 0c-1878,0 -3390,-1512 -3390,-3390 0,-1866 1512,-3389 3390,-3389z"/>
   <path class="fil2" d="M93450 652660l82 0 632912 0 94 0c1867,0 3378,1523 3378,3390 0,1878 -1511,3389 -3378,3389l-129 0 -632829 0 -130 0c-1866,0 -3390,-1511 -3390,-3389 0,-1867 1524,-3390 3390,-3390z"/>
   <path class="fil1" d="M317283 335885l0 90379 46406 0 0 -84154c0,-15237 5055,-46879 25204,-56588l0 140730 16631 12 23610 -47103 35 -154643 -9673 -24c-56859,0 -102213,51745 -102213,111391z"/>
   <polygon class="fil2" points="442209,276865 468536,224530 491757,224530 491757,426264 442209,426264 "/>
   <path class="fil2" d="M93450 493517l82 0 298031 0c44764,0 84272,-7524 117580,-40879 33319,-33354 40760,-72697 40760,-117450l0 -167848 -114025 0c-33295,0 -63331,3827 -92646,21638 -25028,15390 -45178,36721 -59056,61524 -16807,30036 -21544,60721 -21544,94525l0 107103 0 95c0,1866 -1511,3378 -3378,3378 -1878,0 -3389,-1512 -3389,-3378l0 -95 0 -106950c0,-35220 5043,-67193 22630,-98422 14421,-25606 35291,-47646 61205,-63567 30508,-18532 61796,-22630 96473,-22630l120510 0 0 174474c0,46701 -8103,87603 -42804,122339 -34630,34678 -75662,42922 -122316,42922l-297983 0 -130 0c-1866,0 -3390,-1512 -3390,-3390 0,-1866 1524,-3389 3390,-3389z"/>
   <path class="fil3" d="M146647 716310l-1925 9933 8268 0 0 3768 -8977 0 -2445 12567 -4004 0 2457 -12567 -8858 0 -2386 12567 -3981 0 2339 -12567 -7654 0 0 -3768 8386 0 1985 -9933 -8091 0 0 -3709 8740 0 2386 -12744 4063 0 -2398 12744 8918 0 2457 -12744 3897 0 -2445 12744 7713 0 0 3709 -8445 0zm-14776 9933l8847 0 1937 -9933 -8858 0 -1926 9933zm45131 -5646l-16796 -20740 5551 0 16607 20693 0 -20693 4807 0 0 20693 16642 -20693 5551 0 -16819 20693 17339 22028 -5728 0 -16985 -21650 0 21650 -4807 0 0 -21650 -16961 21650 -5811 0 17410 -21981zm41870 -20740l4630 0 0 23752c0,4382 -130,8351 -413,11894l248 0 23941 -35646 5433 0 0 42721 -4677 0 0 -23528c0,-3909 165,-8031 496,-12319l-260 0 -23977 35847 -5421 0 0 -42721zm73194 10004c0,2799 -886,5067 -2670,6827 -1783,1748 -4240,2858 -7381,3331l0 224c3578,496 6271,1606 8114,3366 1842,1748 2764,4052 2764,6863 0,4004 -1489,7110 -4477,9354 -2976,2232 -7193,3343 -12626,3343 -4961,0 -9035,-768 -12201,-2304l0 -4618c1866,898 3886,1583 6059,2067 2174,484 4264,732 6272,732 3850,0 6768,-732 8740,-2196 1984,-1453 2965,-3556 2965,-6308 0,-2610 -1087,-4594 -3284,-5941 -2197,-1346 -5456,-2007 -9803,-2007l-6366 0 0 -4193 6106 0c3992,0 7087,-721 9272,-2138 2197,-1441 3295,-3449 3295,-6012 0,-2091 -791,-3756 -2374,-4996 -1582,-1252 -3697,-1866 -6366,-1866 -2138,0 -4075,236 -5811,720 -1736,496 -3744,1465 -6024,2894l-2456 -3331c1972,-1453 4181,-2551 6626,-3295 2445,-756 4972,-1122 7606,-1122 4382,0 7807,956 10287,2870 2493,1925 3733,4500 3733,7736zm45331 32717l-4973 0 0 -20103 -22512 0 0 20103 -4960 0 0 -42721 4960 0 0 18189 22512 0 0 -18189 4973 0 0 42721zm44067 -12449c0,3957 -1323,7016 -3956,9177 -2646,2185 -6402,3272 -11304,3272l-14220 0 0 -42721 4972 0 0 18248 8492 0c5209,0 9178,1028 11906,3083 2728,2055 4110,5032 4110,8941zm-24508 8138l8740 0c7087,0 10630,-2717 10630,-8150 0,-2622 -909,-4559 -2740,-5787 -1819,-1240 -4736,-1855 -8740,-1855l-7890 0 0 15792zm36390 -38410l12071 0c5670,0 9768,851 12296,2540 2527,1700 3803,4381 3803,8043 0,2527 -697,4618 -2114,6272 -1418,1641 -3473,2704 -6189,3200l0 284c6496,1110 9732,4524 9732,10228 0,3815 -1299,6792 -3862,8941 -2587,2138 -6201,3213 -10831,3213l-14906 0 0 -42721zm4973 18307l8173 0c3508,0 6036,-555 7571,-1653 1547,-1099 2315,-2953 2315,-5563 0,-2398 -862,-4134 -2575,-5185 -1712,-1075 -4441,-1595 -8173,-1595l-7311 0 0 13996zm0 4182l0 15980 8917 0c3437,0 6036,-661 7772,-2008 1748,-1323 2622,-3413 2622,-6260 0,-2646 -898,-4594 -2669,-5846 -1784,-1240 -4500,-1866 -8138,-1866l-8504 0zm67441 20232l-6023 0 -19760 -21650 0 21650 -4961 0 0 -42721 4961 0 0 20693 19264 -20693 5704 0 -18909 20740 19724 21981zm35824 -30284c0,4323 -1477,7654 -4418,9981 -2953,2326 -7169,3484 -12661,3484l-5032 0 0 16819 -4961 0 0 -42721 11067 0c10678,0 16005,4146 16005,12437zm-22111 9225l4477 0c4393,0 7582,-709 9555,-2138 1960,-1417 2941,-3697 2941,-6827 0,-2823 -922,-4925 -2764,-6319 -1854,-1382 -4736,-2067 -8658,-2067l-5551 0 0 17351zm57827 21059l-5315 -13583 -17138 0 -5255 13583 -5020 0 16890 -42898 4181 0 16795 42898 -5138 0zm-6862 -18071l-4984 -13229c-626,-1677 -1299,-3732 -1973,-6165 -437,1866 -1039,3921 -1854,6165l-5020 13229 13831 0zm39048 -20823c-4689,0 -8398,1571 -11114,4689 -2717,3130 -4075,7406 -4075,12839 0,5598 1311,9921 3933,12956 2610,3048 6354,4583 11209,4583 2964,0 6366,-543 10193,-1606l0 4346c-2965,1122 -6615,1678 -10961,1678 -6296,0 -11150,-1902 -14563,-5717 -3414,-3815 -5138,-9248 -5138,-16276 0,-4405 838,-8268 2480,-11575 1642,-3319 4016,-5870 7122,-7653 3107,-1796 6768,-2693 10973,-2693 4488,0 8398,815 11752,2445l-2102 4263c-3237,-1523 -6473,-2279 -9709,-2279zm53091 38894l-6024 0 -19760 -21650 0 21650 -4961 0 0 -42721 4961 0 0 20693 19264 -20693 5705 0 -18910 20740 19725 21981zm35610 0l-5315 -13583 -17138 0 -5244 13583 -5031 0 16890 -42898 4181 0 16807 42898 -5150 0zm-6862 -18071l-4972 -13229c-638,-1677 -1311,-3732 -1985,-6165 -437,1866 -1039,3921 -1842,6165l-5032 13229 13831 0zm49182 18071l-5646 0 -11480 -18792 -11670 18792 -5268 0 14197 -22335 -13228 -20386 5492 0 10607 16925 10677 -16925 5291 0 -13228 20221 14256 22500z"/>
  </g>
 </g>
</svg>
